<?xml version="1.0" standalone="no"?>
<!DOCTYPE svg PUBLIC "-//W3C//DTD SVG 1.1//EN" "http://www.w3.org/Graphics/SVG/1.1/DTD/svg11.dtd" >
<svg xmlns="http://www.w3.org/2000/svg" xmlns:xlink="http://www.w3.org/1999/xlink" version="1.1">
<metadata>
Created by FontForge 20170910 at Mon Sep 28 15:33:36 2015
 By Jimmy Wärting
Copyright 2015 Nissan Motors Co., Ltd. All rights reserved.
</metadata>
<defs>
<font id="NissanBrand-Regular" horiz-adv-x="400" >
  <font-face 
    font-family="Nissan Brand"
    font-weight="400"
    font-stretch="normal"
    units-per-em="1000"
    panose-1="2 11 5 4 2 2 4 3 2 4"
    ascent="746"
    descent="-254"
    x-height="513"
    cap-height="650"
    bbox="-192 -300 1252 1064"
    underline-thickness="50"
    underline-position="-100"
    stemh="86"
    stemv="94"
    unicode-range="U+000D-FEFF"
  />
<missing-glyph horiz-adv-x="492" 
d="M492 750v-750h-492v750h492zM405 85v580h-318v-580h318z" />
    <glyph glyph-name="f_i.liga" unicode="fi" horiz-adv-x="578" 
d="M269 723c17 0 41 -3 85 -13v-79c-43 11 -74 12 -89 12c-51 0 -82 -19 -82 -76v-54h171v-77h-171v-436h-90v436h-98v77h98v55c0 126 82 155 176 155zM509 588h-102v92h102v-92zM503 0h-90v513h90v-513z" />
    <glyph glyph-name="f_l.liga" unicode="fl" horiz-adv-x="578" 
d="M269 723c17 0 41 -3 85 -13v-79c-43 11 -74 12 -89 12c-51 0 -82 -19 -82 -76v-54h171v-77h-171v-436h-90v436h-98v77h98v55c0 126 82 155 176 155zM503 0h-90v691h90v-691z" />
    <glyph glyph-name="f_f.liga" unicode="ff" horiz-adv-x="671" 
d="M598 643c-51 0 -82 -19 -82 -76v-54h171v-77h-171v-436h-90v436h-243v-436h-90v436h-98v77h98v55c0 126 82 155 176 155c17 0 41 -3 85 -13v-79c-43 11 -74 12 -89 12c-51 0 -82 -19 -82 -76v-54h243v55c0 126 82 155 176 155c17 0 41 -3 85 -13v-79
c-43 11 -74 12 -89 12z" />
    <glyph glyph-name="f_f_i.liga" unicode="ffi" horiz-adv-x="911" 
d="M426 513v55c0 126 82 155 176 155c17 0 41 -3 85 -13v-79c-43 11 -74 12 -89 12c-51 0 -82 -19 -82 -76v-54h171v-77h-171v-436h-90v436h-243v-436h-90v436h-98v77h98v55c0 126 82 155 176 155c17 0 41 -3 85 -13v-79c-43 11 -74 12 -89 12c-51 0 -82 -19 -82 -76v-54
h243zM842 680v-92h-102v92h102zM746 513h90v-513h-90v513z" />
    <glyph glyph-name="f_f_l.liga" unicode="ffl" horiz-adv-x="911" 
d="M426 513v55c0 126 82 155 176 155c17 0 41 -3 85 -13v-79c-43 11 -74 12 -89 12c-51 0 -82 -19 -82 -76v-54h171v-77h-171v-436h-90v436h-243v-436h-90v436h-98v77h98v55c0 126 82 155 176 155c17 0 41 -3 85 -13v-79c-43 11 -74 12 -89 12c-51 0 -82 -19 -82 -76v-54
h243zM836 691v-691h-90v691h90z" />
    <glyph glyph-name=".notdef" horiz-adv-x="492" 
d="M492 750v-750h-492v750h492zM405 85v580h-318v-580h318z" />
    <glyph glyph-name="NULL" horiz-adv-x="600" 
 />
    <glyph glyph-name="CR" unicode="&#xd;" horiz-adv-x="251" 
 />
    <glyph glyph-name="space" unicode=" " horiz-adv-x="251" 
 />
    <glyph glyph-name="exclam" unicode="!" horiz-adv-x="200" 
d="M150 650l-12 -473h-74l-12 473h98zM150 0h-100v97h100v-97z" />
    <glyph glyph-name="quotedbl" unicode="&#x22;" horiz-adv-x="442" 
d="M174 493h-66l-13 230h92zM335 493h-67l-12 230h91z" />
    <glyph glyph-name="numbersign" unicode="#" horiz-adv-x="600" 
d="M456 506h104v-70h-116l-28 -157h105v-71h-117l-37 -208h-77l36 208h-123l-37 -208h-77l37 208h-105v71h118l28 157h-105v70h117l39 217h77l-39 -217h123l39 217h77zM244 436l-29 -157h124l28 157h-123z" />
    <glyph glyph-name="dollar" unicode="$" horiz-adv-x="601" 
d="M554 177c0 -104 -75 -169 -208 -185v-92h-76v88c-82 1 -153 17 -226 44v95c74 -24 144 -51 226 -53v220l-63 17c-83 22 -154 69 -154 173c0 112 95 165 217 176v90h76v-89c69 -2 126 -15 180 -33v-90c-72 22 -124 35 -180 38v-211l62 -18c80 -22 146 -71 146 -170z
M270 386v188c-66 -7 -122 -32 -122 -90c0 -48 41 -75 95 -90zM346 273v-193c69 13 111 47 111 94c0 53 -41 80 -97 95z" />
    <glyph glyph-name="percent" unicode="%" horiz-adv-x="882" 
d="M200 662c112 0 165 -78 165 -187s-50 -194 -168 -194c-116 0 -167 85 -167 192c0 109 52 189 170 189zM323 0h-99l337 650h97zM199 592c-54 0 -80 -48 -81 -129c-1 -68 27 -111 79 -111s80 46 79 117c-1 77 -26 123 -77 123zM685 368c116 0 167 -85 167 -192
c0 -109 -52 -189 -170 -189c-112 0 -165 78 -165 187s50 194 168 194zM685 297c-52 0 -78 -46 -78 -118c0 -76 25 -122 76 -122c54 0 80 48 80 129c0 68 -26 111 -78 111z" />
    <glyph glyph-name="ampersand" unicode="&#x26;" horiz-adv-x="704" 
d="M336 664c71 0 133 -18 164 -33v-90c-38 18 -96 42 -157 42c-35 0 -121 -10 -121 -84c0 -72 98 -167 250 -304c35 36 87 110 100 134h104c-60 -91 -126 -169 -141 -186c58 -46 114 -95 174 -143h-136c-35 27 -69 55 -102 82c-71 -65 -164 -99 -245 -99
c-124 0 -186 77 -186 162c0 70 21 133 150 217c-49 62 -62 92 -62 140c0 79 58 162 208 162zM248 297c-74 -42 -113 -85 -113 -135c0 -47 31 -96 103 -96c75 0 127 29 170 69c-55 52 -135 132 -160 162z" />
    <glyph glyph-name="quotesingle" unicode="'" horiz-adv-x="282" 
d="M174 493h-66l-13 230h92z" />
    <glyph glyph-name="parenleft" unicode="(" horiz-adv-x="294" 
d="M187 708h91c-37 -68 -142 -205 -142 -428c0 -222 106 -358 143 -426h-92c-82 143 -132 267 -132 428c0 160 50 283 132 426z" />
    <glyph glyph-name="parenright" unicode=")" horiz-adv-x="294" 
d="M16 708h91c82 -143 132 -266 132 -426c0 -161 -50 -285 -132 -428h-92c37 68 143 204 143 426c0 223 -105 360 -142 428z" />
    <glyph glyph-name="asterisk" unicode="*" horiz-adv-x="378" 
d="M286 623l-68 -93l115 11v-57l-113 13l66 -97l-50 -25l-46 103l-49 -105l-48 27l67 96l-115 -12v57l116 -11l-69 93l49 27l49 -103l47 103z" />
    <glyph glyph-name="plus" unicode="+" horiz-adv-x="509" 
d="M297 84h-85v172h-172v85h172v172h85v-172h172v-85h-172v-172z" />
    <glyph glyph-name="comma" unicode="," horiz-adv-x="191" 
d="M84 -129h-84l62 226h104z" />
    <glyph glyph-name="hyphen" unicode="-" horiz-adv-x="410" 
d="M370 262h-330v85h330v-85z" />
    <glyph glyph-name="period" unicode="." horiz-adv-x="200" 
d="M150 0h-100v97h100v-97z" />
    <glyph glyph-name="slash" unicode="/" horiz-adv-x="504" 
d="M118 -80h-98l364 764h100z" />
    <glyph glyph-name="zero" unicode="0" horiz-adv-x="676" 
d="M338 662c176 0 284 -135 284 -336c0 -204 -115 -338 -284 -338c-170 0 -284 134 -284 338c0 201 107 336 284 336zM335 576c-93 0 -189 -74 -189 -250c0 -169 97 -250 192 -250c87 0 192 81 192 250c0 176 -94 250 -195 250z" />
    <glyph glyph-name="one" unicode="1" horiz-adv-x="390" 
d="M285 0h-88v552l-161 -44v82l249 72v-662z" />
    <glyph glyph-name="two" unicode="2" horiz-adv-x="582" 
d="M281 662c147 0 236 -75 236 -196c0 -149 -173 -286 -316 -380h328v-86h-468v81c131 94 358 256 358 377c0 64 -37 118 -149 118c-59 0 -126 -19 -189 -49v93c58 24 129 42 200 42z" />
    <glyph glyph-name="three" unicode="3" horiz-adv-x="591" 
d="M512 582l-208 -192c104 -3 236 -46 236 -187c0 -144 -113 -215 -278 -215c-64 0 -136 16 -200 34v91c69 -19 142 -37 196 -37c126 0 187 43 188 128c1 102 -107 110 -225 110h-45v63l199 188h-313v85h450v-68z" />
    <glyph glyph-name="four" unicode="4" horiz-adv-x="616" 
d="M401 650h115c-143 -140 -258 -272 -356 -421h245v157h88v-157h96v-81h-96v-148h-88v148h-365v62c90 135 230 314 361 440z" />
    <glyph glyph-name="five" unicode="5" horiz-adv-x="595" 
d="M490 565h-305l-17 -159c22 5 57 13 118 13c159 0 255 -84 255 -208c0 -125 -96 -223 -273 -223c-74 0 -153 19 -211 37v89c58 -17 133 -38 207 -38c114 0 184 46 184 134c0 73 -66 122 -176 122c-69 0 -144 -16 -200 -30l36 348h382v-85z" />
    <glyph glyph-name="six" unicode="6" horiz-adv-x="608" 
d="M483 660v-87c-118 -16 -257 -78 -308 -184c21 22 89 51 142 51c150 0 236 -99 236 -218s-92 -234 -252 -234c-145 0 -246 96 -246 256c0 235 189 380 428 416zM306 360c-91 0 -155 -57 -155 -141c0 -81 53 -143 152 -143c91 0 155 57 155 144c0 93 -71 140 -152 140z" />
    <glyph glyph-name="seven" unicode="7" horiz-adv-x="543" 
d="M515 650v-58c-125 -190 -236 -400 -308 -592l-96 1c69 182 174 382 294 566h-368v83h478z" />
    <glyph glyph-name="eight" unicode="8" horiz-adv-x="625" 
d="M312 662c123 0 234 -56 234 -177c0 -69 -63 -119 -111 -142c54 -17 134 -73 134 -160c0 -127 -109 -195 -257 -195s-256 70 -256 197c0 86 80 141 135 158c-49 25 -111 73 -111 142c0 119 111 177 232 177zM312 581c-83 0 -140 -40 -140 -103c0 -52 58 -102 140 -102
s142 50 142 101c0 66 -60 104 -142 104zM313 301c-110 0 -165 -60 -165 -117c0 -84 90 -114 164 -114s165 30 165 112c0 59 -55 119 -164 119z" />
    <glyph glyph-name="nine" unicode="9" horiz-adv-x="608" 
d="M308 662c144 0 245 -95 245 -255c0 -235 -189 -383 -427 -419v87c117 16 257 81 308 187c-21 -22 -90 -51 -143 -51c-149 0 -236 99 -236 218s93 233 253 233zM306 574c-92 0 -155 -56 -155 -143c0 -93 71 -140 152 -140c90 0 155 57 155 141c0 81 -53 142 -152 142z" />
    <glyph glyph-name="colon" unicode=":" horiz-adv-x="200" 
d="M150 364h-100v97h100v-97zM150 0h-100v97h100v-97z" />
    <glyph glyph-name="semicolon" unicode=";" horiz-adv-x="200" 
d="M150 364h-100v97h100v-97zM70 -129h-84l62 226h104z" />
    <glyph glyph-name="less" unicode="&#x3c;" horiz-adv-x="589" 
d="M549 487l-416 -162l416 -159v-86l-509 200v92l509 201v-86z" />
    <glyph glyph-name="equal" unicode="=" horiz-adv-x="510" 
d="M470 333h-430v85h430v-85zM470 141h-430v85h430v-85z" />
    <glyph glyph-name="greater" unicode="&#x3e;" horiz-adv-x="589" 
d="M549 372v-92l-509 -200v86l416 159l-416 162v86z" />
    <glyph glyph-name="question" unicode="?" horiz-adv-x="555" 
d="M252 662c149 0 270 -43 270 -177c0 -193 -255 -129 -255 -297v-30h-88v41c0 185 253 181 253 284c0 71 -75 94 -182 94c-94 0 -168 -28 -216 -47v89c46 17 125 43 218 43zM271 0h-100v97h100v-97z" />
    <glyph glyph-name="at" unicode="@" horiz-adv-x="976" 
d="M501 695c227 0 425 -126 425 -393c0 -174 -86 -280 -198 -280c-61 0 -97 32 -113 53c-28 -20 -70 -39 -131 -38c-121 1 -219 76 -219 214c0 126 89 211 219 211c51 0 90 -12 121 -31l7 25h66v-301c0 -32 18 -51 51 -51c60 0 110 79 110 194c0 218 -159 313 -341 313
c-215 0 -359 -153 -359 -351c0 -195 154 -361 382 -361c50 0 99 7 150 20v-86c-50 -11 -99 -16 -147 -16c-290 0 -474 197 -474 444c0 257 184 434 451 434zM485 381c-82 0 -134 -50 -134 -129c0 -85 54 -137 138 -137c56 0 87 22 103 35v197c-23 17 -60 34 -107 34z" />
    <glyph glyph-name="A" unicode="A" horiz-adv-x="663" 
d="M668 0h-98c-16 48 -36 106 -60 168h-354c-26 -66 -47 -125 -60 -168h-101c98 297 238 580 281 650h111c27 -43 166 -303 281 -650zM190 252h287c-46 115 -99 233 -144 313c-41 -77 -96 -198 -143 -313z" />
    <glyph glyph-name="B" unicode="B" horiz-adv-x="674" 
d="M80 650h281c117 0 231 -38 231 -160c0 -76 -40 -125 -99 -150v-1c61 -20 121 -67 121 -164c0 -138 -122 -175 -277 -175h-257v650zM174 564v-190h166c96 0 154 30 154 100c0 83 -85 90 -154 90h-166zM174 291v-205h158c102 0 184 15 184 100c0 75 -69 105 -180 105h-162z
" />
    <glyph glyph-name="C" unicode="C" horiz-adv-x="704" 
d="M436 662c73 0 160 -18 213 -42v-98c-66 34 -139 52 -215 52c-158 0 -285 -84 -285 -254c0 -177 154 -244 292 -244c83 0 127 10 213 44v-92c-43 -18 -113 -40 -220 -40c-181 0 -384 91 -384 331c0 235 182 343 386 343z" />
    <glyph glyph-name="D" unicode="D" horiz-adv-x="713" 
d="M80 650h221c189 0 357 -84 357 -326c0 -231 -176 -324 -365 -324h-213v650zM174 564v-478h99c192 0 282 90 282 239c0 146 -80 239 -273 239h-108z" />
    <glyph glyph-name="E" unicode="E" horiz-adv-x="599" 
d="M539 564h-365v-187h336v-85h-336v-206h365v-86h-459v650h459v-86z" />
    <glyph glyph-name="F" unicode="F" horiz-adv-x="583" 
d="M538 564h-364v-205h335v-86h-335v-273h-94v650h458v-86z" />
    <glyph glyph-name="G" unicode="G" horiz-adv-x="721" 
d="M429 662c73 0 159 -18 219 -40v-92c-87 32 -143 44 -220 44c-151 0 -279 -81 -279 -252c0 -179 147 -246 286 -246c51 0 86 5 122 15v228h94v-291c-61 -23 -122 -40 -223 -40c-180 0 -378 91 -378 331c0 233 178 343 379 343z" />
    <glyph glyph-name="H" unicode="H" horiz-adv-x="719" 
d="M639 0h-94v281h-371v-281h-94v650h94v-283h371v283h94v-650z" />
    <glyph glyph-name="I" unicode="I" horiz-adv-x="254" 
d="M174 0h-94v650h94v-650z" />
    <glyph glyph-name="J" unicode="J" horiz-adv-x="454" 
d="M379 650v-466c0 -121 -82 -196 -207 -196c-28 0 -95 6 -162 26v94c44 -16 107 -31 158 -31c67 0 117 34 117 129v444h94z" />
    <glyph glyph-name="K" unicode="K" horiz-adv-x="659" 
d="M174 0h-94v650h94v-650zM510 650h144c-144 -119 -258 -224 -346 -324c113 -98 234 -209 346 -326h-132c-104 108 -218 213 -340 318c94 111 200 221 328 332z" />
    <glyph glyph-name="L" unicode="L" horiz-adv-x="557" 
d="M174 86h373v-86h-467v650h94v-564z" />
    <glyph glyph-name="M" unicode="M" horiz-adv-x="864" 
d="M612 650h95c31 -113 77 -251 127 -650h-95c-41 304 -76 455 -93 523c-62 -149 -125 -305 -181 -454h-66c-97 257 -164 425 -179 449c-17 -69 -53 -220 -94 -518h-96c54 395 99 534 131 650h95c54 -120 113 -261 176 -425c84 208 134 322 180 425z" />
    <glyph glyph-name="N" unicode="N" horiz-adv-x="726" 
d="M646 0h-79l-394 524v-524h-93v650h108l365 -486v486h93v-650z" />
    <glyph glyph-name="O" unicode="O" horiz-adv-x="792" 
d="M400 662c219 0 342 -135 342 -336c0 -207 -138 -338 -341 -338c-216 0 -351 134 -351 338c0 205 135 336 350 336zM400 574c-147 0 -251 -81 -251 -248c0 -157 103 -248 252 -248c141 0 244 91 244 248c0 164 -101 248 -245 248z" />
    <glyph glyph-name="P" unicode="P" horiz-adv-x="633" 
d="M80 650h270c79 0 243 -33 243 -219c0 -185 -164 -219 -243 -219h-176v-212h-94v650zM174 564v-266h164c77 0 155 30 155 132s-77 134 -155 134h-164z" />
    <glyph glyph-name="Q" unicode="Q" horiz-adv-x="792" 
d="M400 662c219 0 342 -135 342 -336c0 -138 -61 -242 -162 -296l90 -68l-56 -71l-143 103c-22 -4 -46 -6 -70 -6c-216 0 -351 134 -351 338c0 205 135 336 350 336zM400 574c-147 0 -251 -81 -251 -248c0 -157 103 -248 252 -248c141 0 244 91 244 248
c0 164 -101 248 -245 248z" />
    <glyph glyph-name="R" unicode="R" horiz-adv-x="660" 
d="M635 0h-125c-51 75 -122 163 -193 238h-143v-238h-94v650h273c81 0 241 -34 241 -202c0 -119 -81 -181 -160 -201c56 -60 130 -150 201 -247zM174 324h166c63 0 156 18 156 121c0 90 -75 119 -152 119h-170v-240z" />
    <glyph glyph-name="S" unicode="S" horiz-adv-x="605" 
d="M320 662c81 0 146 -14 207 -34v-90c-84 26 -140 39 -207 39c-85 0 -171 -21 -171 -93c0 -48 41 -75 95 -90l165 -47c80 -22 146 -71 146 -170c0 -121 -101 -189 -276 -189c-85 0 -159 16 -234 44v95c76 -25 148 -53 234 -53c109 0 179 39 179 100c0 53 -41 80 -97 95
l-153 42c-83 22 -154 69 -154 173c0 127 121 178 266 178z" />
    <glyph glyph-name="T" unicode="T" horiz-adv-x="626" 
d="M606 564h-246v-564h-94v564h-246v86h586v-86z" />
    <glyph glyph-name="U" unicode="U" horiz-adv-x="718" 
d="M638 650v-371c0 -155 -64 -291 -283 -291c-217 0 -280 136 -280 291v371h94v-372c0 -133 63 -202 186 -202c125 0 189 69 189 202v372h94z" />
    <glyph glyph-name="V" unicode="V" horiz-adv-x="663" 
d="M570 650h98c-115 -347 -254 -607 -281 -650h-111c-43 70 -183 353 -281 650h101c19 -63 142 -390 237 -565c100 177 172 382 237 565z" />
    <glyph glyph-name="W" unicode="W" horiz-adv-x="873" 
d="M768 650h97c-70 -334 -143 -537 -183 -650h-99c-66 155 -116 292 -149 382c-31 -90 -80 -230 -147 -382h-97c-41 113 -118 315 -182 650h96c53 -255 105 -421 138 -525c56 126 128 331 157 417h72c11 -34 94 -274 158 -418c36 107 86 274 139 526z" />
    <glyph glyph-name="X" unicode="X" horiz-adv-x="632" 
d="M380 329l257 -329h-118l-205 265l-196 -265h-123l259 328l-257 322h121l195 -254l202 254h116z" />
    <glyph glyph-name="Y" unicode="Y" horiz-adv-x="606" 
d="M498 650h113c-93 -178 -219 -374 -261 -430v-220h-94v220c-43 57 -166 250 -261 430h110c76 -152 136 -248 198 -344c59 90 116 184 195 344z" />
    <glyph glyph-name="Z" unicode="Z" horiz-adv-x="599" 
d="M559 567l-393 -481h391v-86h-517v83l394 481h-394v86h519v-83z" />
    <glyph glyph-name="bracketleft" unicode="[" horiz-adv-x="294" 
d="M264 708v-66h-99v-721h99v-67h-184v854h184z" />
    <glyph glyph-name="backslash" unicode="\" horiz-adv-x="504" 
d="M120 684l364 -764h-98l-366 764h100z" />
    <glyph glyph-name="bracketright" unicode="]" horiz-adv-x="294" 
d="M214 -146h-184v67h99v721h-99v66h184v-854z" />
    <glyph glyph-name="asciicircum" unicode="^" horiz-adv-x="476" 
d="M426 281h-82l-107 276l-105 -276h-82l151 369h73z" />
    <glyph glyph-name="underscore" unicode="_" horiz-adv-x="500" 
d="M500 -300h-500v85h500v-85z" />
    <glyph glyph-name="grave" unicode="`" horiz-adv-x="240" 
d="M210 591h-79l-101 145h106z" />
    <glyph glyph-name="a" unicode="a" horiz-adv-x="603" 
d="M286 524c162 0 242 -57 242 -221v-303h-68l-12 47c-44 -30 -113 -59 -192 -59c-111 0 -203 57 -203 171c0 123 106 167 216 167c60 0 123 -13 169 -36v30c0 101 -75 120 -162 120c-66 0 -117 -11 -191 -35v89c70 21 137 30 201 30zM148 160c0 -70 63 -90 124 -90
c78 0 136 33 166 52v93c-51 27 -112 36 -158 36c-74 0 -132 -24 -132 -91z" />
    <glyph glyph-name="b" unicode="b" horiz-adv-x="642" 
d="M339 524c145 0 258 -93 258 -262c0 -182 -134 -274 -270 -274c-66 0 -132 22 -177 50l-10 -38h-65v691h90v-217c36 23 96 50 174 50zM315 72c124 0 187 84 187 187c0 102 -61 183 -180 183c-70 0 -123 -28 -157 -57v-267c34 -24 88 -46 150 -46z" />
    <glyph glyph-name="c" unicode="c" horiz-adv-x="553" 
d="M327 524c82 0 115 -10 173 -31v-89c-72 27 -115 36 -163 36c-106 0 -198 -60 -198 -186c0 -94 71 -182 198 -182c75 0 106 13 171 34v-89c-60 -18 -99 -29 -179 -29c-155 0 -284 97 -284 268s128 268 282 268z" />
    <glyph glyph-name="d" unicode="d" horiz-adv-x="642" 
d="M567 691v-691h-65l-10 38c-53 -33 -114 -50 -174 -50c-146 0 -273 91 -273 266c0 171 127 270 275 270c51 0 109 -10 157 -40v207h90zM140 254c0 -122 89 -183 188 -183c51 0 103 16 149 47v278c-43 31 -95 46 -146 46c-99 0 -191 -60 -191 -188z" />
    <glyph glyph-name="e" unicode="e" horiz-adv-x="584" 
d="M537 223h-402c12 -135 123 -151 189 -151c74 0 114 11 203 38v-87c-48 -17 -130 -35 -207 -35c-142 0 -275 76 -275 265c0 195 129 271 265 271c141 0 227 -93 227 -248v-53zM139 300h306c-3 77 -44 140 -137 140c-82 0 -160 -43 -169 -140z" />
    <glyph glyph-name="f" unicode="f" horiz-adv-x="338" 
d="M269 723c17 0 41 -3 85 -13v-79c-43 11 -74 12 -89 12c-51 0 -82 -19 -82 -76v-54h171v-77h-171v-436h-90v436h-98v77h98v55c0 126 82 155 176 155z" />
    <glyph glyph-name="g" unicode="g" horiz-adv-x="642" 
d="M567 511v-491c0 -172 -108 -232 -263 -232c-76 0 -143 14 -221 46v89c72 -29 139 -51 218 -51c78 0 176 23 176 127v28c-48 -25 -99 -39 -159 -39c-146 0 -273 89 -273 264c0 173 127 272 275 272c60 0 128 -19 171 -51l9 38h67zM328 71c51 0 103 15 149 45v278
c-43 32 -95 48 -146 48c-99 0 -191 -60 -191 -190c0 -122 89 -181 188 -181z" />
    <glyph glyph-name="h" unicode="h" horiz-adv-x="645" 
d="M367 524c129 0 203 -44 203 -200v-324h-90v308c0 91 -24 130 -133 130c-69 0 -143 -34 -182 -64v-374h-90v691h90v-230c40 26 122 63 202 63z" />
    <glyph glyph-name="i" unicode="i" horiz-adv-x="240" 
d="M171 588h-102v92h102v-92zM165 0h-90v513h90v-513z" />
    <glyph glyph-name="j" unicode="j" horiz-adv-x="229" 
d="M160 588h-102v92h102v-92zM153 513v-570c0 -126 -80 -155 -174 -155c-17 0 -41 3 -85 13v79c43 -11 74 -12 89 -12c51 0 80 19 80 76v569h90z" />
    <glyph glyph-name="k" unicode="k" horiz-adv-x="564" 
d="M165 0h-90v691h90v-691zM412 513h137c-89 -71 -184 -150 -258 -240c89 -72 250 -243 273 -273h-127c-68 79 -171 188 -259 266c51 66 135 161 234 247z" />
    <glyph glyph-name="l" unicode="l" horiz-adv-x="240" 
d="M165 0h-90v691h90v-691z" />
    <glyph glyph-name="m" unicode="m" horiz-adv-x="978" 
d="M715 524c122 0 188 -44 188 -200v-324h-90v309c0 94 -25 129 -118 129c-67 0 -124 -33 -164 -63c2 -16 3 -33 3 -51v-324h-90v309c0 94 -25 129 -117 129c-65 0 -123 -32 -162 -63v-375h-90v513h66l16 -57c37 27 118 68 190 68c91 0 140 -28 165 -77c40 30 125 77 203 77
z" />
    <glyph glyph-name="n" unicode="n" horiz-adv-x="645" 
d="M367 524c129 0 203 -44 203 -200v-324h-90v308c0 91 -24 130 -133 130c-69 0 -145 -34 -182 -64v-374h-90v513h66l15 -59c36 28 124 70 211 70z" />
    <glyph glyph-name="o" unicode="o" horiz-adv-x="640" 
d="M320 524c146 0 275 -92 275 -269c0 -180 -130 -267 -276 -267c-145 0 -274 88 -274 267c0 177 129 269 275 269zM320 440c-103 0 -181 -71 -181 -185c0 -96 57 -182 182 -182c123 0 180 86 180 182c0 114 -78 185 -181 185z" />
    <glyph glyph-name="p" unicode="p" horiz-adv-x="642" 
d="M339 524c145 0 258 -94 258 -262c0 -182 -134 -274 -270 -274c-66 0 -120 18 -162 42v-230h-90v713h66l13 -48c36 27 103 59 185 59zM315 72c124 0 187 84 187 187c0 101 -61 183 -180 183c-70 0 -123 -29 -157 -58v-266c34 -24 88 -46 150 -46z" />
    <glyph glyph-name="q" unicode="q" horiz-adv-x="642" 
d="M567 513v-713h-90v228c-48 -25 -99 -40 -159 -40c-146 0 -273 91 -273 266c0 171 127 270 275 270c60 0 128 -18 171 -49l9 38h67zM328 71c51 0 103 16 149 46v279c-43 31 -95 46 -146 46c-99 0 -191 -60 -191 -188c0 -122 89 -183 188 -183z" />
    <glyph glyph-name="r" unicode="r" horiz-adv-x="402" 
d="M379 524v-90c-97 -1 -173 -28 -214 -60v-374h-90v513h66l16 -57c72 45 134 67 222 68z" />
    <glyph glyph-name="s" unicode="s" horiz-adv-x="513" 
d="M262 524c76 0 142 -13 190 -27v-87c-54 18 -123 31 -188 31c-57 0 -127 -3 -127 -63c0 -28 25 -47 74 -58l114 -26c82 -19 148 -48 148 -151c0 -122 -100 -155 -239 -155c-61 0 -140 13 -194 28v87c36 -11 120 -32 195 -32c70 0 147 9 147 73c0 38 -31 53 -71 63l-150 36
c-75 18 -116 72 -116 131c0 131 119 150 217 150z" />
    <glyph glyph-name="t" unicode="t" horiz-adv-x="399" 
d="M354 513v-77h-171v-292c0 -57 31 -76 82 -76c15 0 61 4 104 18v-80c-44 -13 -83 -18 -100 -18c-94 0 -176 29 -176 155v293h-98v77h98l12 131h78v-131h171z" />
    <glyph glyph-name="u" unicode="u" horiz-adv-x="639" 
d="M564 513v-513h-66l-13 47c-63 -37 -146 -59 -220 -59c-101 0 -190 54 -190 198v327h90v-303c0 -113 53 -138 132 -138c59 0 126 17 177 51v390h90z" />
    <glyph glyph-name="v" unicode="v" horiz-adv-x="539" 
d="M449 513h100c-66 -171 -148 -342 -245 -513h-72c-96 171 -177 342 -242 513h103c49 -134 105 -263 179 -397c74 135 128 260 177 397z" />
    <glyph glyph-name="w" unicode="w" horiz-adv-x="858" 
d="M770 513h93c-50 -174 -124 -365 -199 -513h-81c-50 105 -123 290 -151 381c-31 -96 -101 -258 -161 -381h-78c-78 159 -152 351 -198 513h98c47 -154 100 -303 142 -399c69 137 145 349 158 399h92c13 -49 73 -240 142 -398c45 97 98 245 143 398z" />
    <glyph glyph-name="x" unicode="x" horiz-adv-x="523" 
d="M323 252l201 -252h-117l-141 188l-150 -188h-119l208 252l-210 261h113l156 -198l150 198h114z" />
    <glyph glyph-name="y" unicode="y" horiz-adv-x="541" 
d="M446 513h105c-76 -208 -195 -458 -343 -713h-104c42 75 82 143 120 213c-94 170 -170 331 -234 500h100c49 -134 112 -271 185 -404c57 112 112 237 171 404z" />
    <glyph glyph-name="z" unicode="z" horiz-adv-x="533" 
d="M488 433l-333 -356h338v-77h-453v80l335 356h-321v77h434v-80z" />
    <glyph glyph-name="braceleft" unicode="{" horiz-adv-x="341" 
d="M5 316v-69c37 -1 71 -5 100 -26c25 -19 38 -54 38 -121v-34c0 -136 42 -204 213 -212v66c-108 6 -128 35 -128 142v38c0 53 -6 91 -19 116c-18 36 -56 58 -108 65c52 7 91 29 109 65c13 25 18 63 18 115v36c0 107 20 137 128 145v66c-167 -7 -213 -74 -213 -212v-36
c0 -66 -13 -101 -38 -120c-30 -22 -63 -24 -100 -24z" />
    <glyph glyph-name="bar" unicode="|" horiz-adv-x="254" 
d="M174 -250h-94v1000h94v-1000z" />
    <glyph glyph-name="braceright" unicode="}" horiz-adv-x="341" 
d="M336 247v69c-37 0 -70 2 -100 24c-25 19 -38 54 -38 120v36c0 138 -46 205 -213 212v-66c108 -8 128 -38 128 -145v-36c0 -52 5 -90 18 -115c18 -36 57 -58 109 -65c-52 -7 -90 -29 -108 -65c-13 -25 -19 -63 -19 -116v-38c0 -107 -20 -136 -128 -142v-66
c171 8 213 76 213 212v34c0 67 13 102 38 121c29 21 63 25 100 26z" />
    <glyph glyph-name="asciitilde" unicode="~" horiz-adv-x="511" 
d="M394 377h77c0 -69 -54 -116 -123 -116c-61 0 -111 37 -172 37c-30 0 -58 -12 -59 -37h-77c0 69 54 116 123 116c61 0 111 -37 172 -37c30 0 58 12 59 37z" />
    <glyph glyph-name="Aacute" unicode="&#xc1;" horiz-adv-x="663" 
d="M368 710h-79l74 145h106zM668 0h-98c-16 48 -36 106 -60 168h-354c-26 -66 -47 -125 -60 -168h-101c98 297 238 580 281 650h111c27 -43 166 -303 281 -650zM190 252h287c-46 115 -99 233 -144 313c-41 -77 -96 -198 -143 -313z" />
    <glyph glyph-name="Acircumflex" unicode="&#xc2;" horiz-adv-x="663" 
d="M257 710h-81l101 145h110l101 -145h-81l-75 86zM668 0h-98c-16 48 -36 106 -60 168h-354c-26 -66 -47 -125 -60 -168h-101c98 297 238 580 281 650h111c27 -43 166 -303 281 -650zM190 252h287c-46 115 -99 233 -144 313c-41 -77 -96 -198 -143 -313z" />
    <glyph glyph-name="Adieresis" unicode="&#xc4;" horiz-adv-x="663" 
d="M283 707h-100v98h100v-98zM481 707h-100v98h100v-98zM668 0h-98c-16 48 -36 106 -60 168h-354c-26 -66 -47 -125 -60 -168h-101c98 297 238 580 281 650h111c27 -43 166 -303 281 -650zM190 252h287c-46 115 -99 233 -144 313c-41 -77 -96 -198 -143 -313z" />
    <glyph glyph-name="Agrave" unicode="&#xc0;" horiz-adv-x="663" 
d="M300 710l-101 145h106l74 -145h-79zM668 0h-98c-16 48 -36 106 -60 168h-354c-26 -66 -47 -125 -60 -168h-101c98 297 238 580 281 650h111c27 -43 166 -303 281 -650zM190 252h287c-46 115 -99 233 -144 313c-41 -77 -96 -198 -143 -313z" />
    <glyph glyph-name="Aring" unicode="&#xc5;" horiz-adv-x="663" 
d="M332 711c-65 0 -101 35 -101 86s36 86 101 86s101 -35 101 -86s-36 -86 -101 -86zM332 837c-26 0 -52 -10 -52 -40s26 -40 52 -40s52 10 52 40s-26 40 -52 40zM668 0h-98c-16 48 -36 106 -60 168h-354c-26 -66 -47 -125 -60 -168h-101c98 297 238 580 281 650h111
c27 -43 166 -303 281 -650zM190 252h287c-46 115 -99 233 -144 313c-41 -77 -96 -198 -143 -313z" />
    <glyph glyph-name="Atilde" unicode="&#xc3;" horiz-adv-x="663" 
d="M272 764c-22 0 -29 -10 -34 -30h-60c8 56 38 97 94 97c42 0 79 -27 114 -27c24 0 31 10 34 30h60c-8 -56 -38 -97 -94 -97c-37 0 -83 27 -114 27zM668 0h-98c-16 48 -36 106 -60 168h-354c-26 -66 -47 -125 -60 -168h-101c98 297 238 580 281 650h111
c27 -43 166 -303 281 -650zM190 252h287c-46 115 -99 233 -144 313c-41 -77 -96 -198 -143 -313z" />
    <glyph glyph-name="AE" unicode="&#xc6;" horiz-adv-x="955" 
d="M568 564v-187h300v-85h-300v-206h327v-86h-421v179h-275c-37 -60 -71 -120 -104 -179h-110c170 298 337 527 446 650h464v-86h-327zM473 265v303c-85 -102 -157 -203 -221 -303h221z" />
    <glyph glyph-name="Ccedilla" unicode="&#xc7;" horiz-adv-x="704" 
d="M434 -12h-5l-8 -27c49 -5 76 -32 76 -75c0 -63 -37 -93 -112 -93c-22 0 -49 2 -88 13v67c42 -13 67 -16 89 -16c27 0 41 9 41 30c0 14 -15 25 -45 25c-18 0 -28 -1 -40 -3l27 83c-161 20 -319 116 -319 327c0 235 182 343 386 343c73 0 160 -18 213 -42v-98
c-66 34 -139 52 -215 52c-158 0 -285 -84 -285 -254c0 -177 154 -244 292 -244c83 0 127 10 213 44v-92c-43 -18 -113 -40 -220 -40z" />
    <glyph glyph-name="Eth" unicode="&#xd0;" horiz-adv-x="707" 
d="M80 650h221c189 0 357 -84 357 -326c0 -231 -176 -324 -365 -324h-213v293h-80v86h80v271zM174 86h99c192 0 282 90 282 239c0 146 -80 239 -273 239h-108v-185h206v-86h-206v-207z" />
    <glyph glyph-name="Eacute" unicode="&#xc9;" horiz-adv-x="599" 
d="M346 710h-79l74 145h106zM539 564h-365v-187h336v-85h-336v-206h365v-86h-459v650h459v-86z" />
    <glyph glyph-name="Ecircumflex" unicode="&#xca;" horiz-adv-x="599" 
d="M466 710h-81l-75 86l-75 -86h-81l101 145h110zM539 564h-365v-187h336v-85h-336v-206h365v-86h-459v650h459v-86z" />
    <glyph glyph-name="Edieresis" unicode="&#xcb;" horiz-adv-x="599" 
d="M261 707h-100v98h100v-98zM459 707h-100v98h100v-98zM539 564h-365v-187h336v-85h-336v-206h365v-86h-459v650h459v-86z" />
    <glyph glyph-name="Egrave" unicode="&#xc8;" horiz-adv-x="599" 
d="M357 710h-79l-101 145h106zM539 564h-365v-187h336v-85h-336v-206h365v-86h-459v650h459v-86z" />
    <glyph glyph-name="Iacute" unicode="&#xcd;" horiz-adv-x="254" 
d="M163 710h-79l74 145h106zM174 0h-94v650h94v-650z" />
    <glyph glyph-name="Icircumflex" unicode="&#xce;" horiz-adv-x="254" 
d="M283 710h-81l-75 86l-75 -86h-81l101 145h110zM174 0h-94v650h94v-650z" />
    <glyph glyph-name="Idieresis" unicode="&#xcf;" horiz-adv-x="254" 
d="M78 707h-100v98h100v-98zM276 707h-100v98h100v-98zM174 0h-94v650h94v-650z" />
    <glyph glyph-name="Igrave" unicode="&#xcc;" horiz-adv-x="254" 
d="M174 710h-79l-101 145h106zM174 0h-94v650h94v-650z" />
    <glyph glyph-name="Lslash" unicode="&#x141;" horiz-adv-x="554" 
d="M547 86v-86h-467v315l-80 -21v84l80 21v251h94v-226l206 54v-84l-206 -54v-254h373z" />
    <glyph glyph-name="Ntilde" unicode="&#xd1;" horiz-adv-x="726" 
d="M458 834h60c-8 -56 -38 -97 -94 -97c-37 0 -83 27 -114 27c-22 0 -29 -10 -34 -30h-60c8 56 38 97 94 97c42 0 79 -27 114 -27c24 0 31 10 34 30zM646 0h-79l-394 524v-524h-93v650h108l365 -486v486h93v-650z" />
    <glyph glyph-name="Oacute" unicode="&#xd3;" horiz-adv-x="792" 
d="M427 710h-79l74 145h106zM400 662c219 0 342 -135 342 -336c0 -207 -138 -338 -341 -338c-216 0 -351 134 -351 338c0 205 135 336 350 336zM400 574c-147 0 -251 -81 -251 -248c0 -157 103 -248 252 -248c141 0 244 91 244 248c0 164 -101 248 -245 248z" />
    <glyph glyph-name="Ocircumflex" unicode="&#xd4;" horiz-adv-x="792" 
d="M547 710h-81l-75 86l-75 -86h-81l101 145h110zM400 662c219 0 342 -135 342 -336c0 -207 -138 -338 -341 -338c-216 0 -351 134 -351 338c0 205 135 336 350 336zM400 574c-147 0 -251 -81 -251 -248c0 -157 103 -248 252 -248c141 0 244 91 244 248
c0 164 -101 248 -245 248z" />
    <glyph glyph-name="Odieresis" unicode="&#xd6;" horiz-adv-x="792" 
d="M342 707h-100v98h100v-98zM540 707h-100v98h100v-98zM400 662c219 0 342 -135 342 -336c0 -207 -138 -338 -341 -338c-216 0 -351 134 -351 338c0 205 135 336 350 336zM400 574c-147 0 -251 -81 -251 -248c0 -157 103 -248 252 -248c141 0 244 91 244 248
c0 164 -101 248 -245 248z" />
    <glyph glyph-name="Ograve" unicode="&#xd2;" horiz-adv-x="792" 
d="M438 710h-79l-101 145h106zM400 662c219 0 342 -135 342 -336c0 -207 -138 -338 -341 -338c-216 0 -351 134 -351 338c0 205 135 336 350 336zM400 574c-147 0 -251 -81 -251 -248c0 -157 103 -248 252 -248c141 0 244 91 244 248c0 164 -101 248 -245 248z" />
    <glyph glyph-name="Oslash" unicode="&#xd8;" horiz-adv-x="792" 
d="M698 617l-42 -50c56 -59 86 -142 86 -241c0 -207 -138 -338 -341 -338c-75 0 -140 16 -193 46l-52 -62l-62 52l49 58c-60 59 -93 143 -93 244c0 205 135 336 350 336c76 0 140 -16 192 -46l44 53zM149 326c0 -70 21 -127 57 -169l325 387c-37 20 -81 30 -131 30
c-147 0 -251 -81 -251 -248zM401 78c141 0 244 91 244 248c0 70 -18 126 -51 167l-324 -386c37 -19 82 -29 131 -29z" />
    <glyph glyph-name="Otilde" unicode="&#xd5;" horiz-adv-x="792" 
d="M479 834h60c-8 -56 -38 -97 -94 -97c-37 0 -83 27 -114 27c-22 0 -29 -10 -34 -30h-60c8 56 38 97 94 97c42 0 79 -27 114 -27c24 0 31 10 34 30zM400 662c219 0 342 -135 342 -336c0 -207 -138 -338 -341 -338c-216 0 -351 134 -351 338c0 205 135 336 350 336zM400 574
c-147 0 -251 -81 -251 -248c0 -157 103 -248 252 -248c141 0 244 91 244 248c0 164 -101 248 -245 248z" />
    <glyph glyph-name="OE" unicode="&#x152;" horiz-adv-x="1010" 
d="M585 564v-187h336v-85h-336v-206h365v-86h-449c-33 -8 -70 -12 -110 -12c-215 0 -341 132 -341 338c0 203 117 336 341 336c41 0 77 -4 109 -12h450v-86h-365zM147 326c0 -160 102 -252 244 -252c41 0 73 4 100 12v475c-27 10 -59 15 -100 15c-147 0 -244 -82 -244 -250z
" />
    <glyph glyph-name="Thorn" unicode="&#xde;" horiz-adv-x="633" 
d="M174 544h176c79 0 243 -33 243 -219c0 -185 -164 -219 -243 -219h-176v-106h-94v650h94v-106zM174 458v-266h164c77 0 155 30 155 132s-77 134 -155 134h-164z" />
    <glyph glyph-name="Scaron" unicode="&#x160;" horiz-adv-x="605" 
d="M356 710h-110l-101 145h81l75 -86l75 86h81zM320 662c81 0 146 -14 207 -34v-90c-84 26 -140 39 -207 39c-85 0 -171 -21 -171 -93c0 -48 41 -75 95 -90l165 -47c80 -22 146 -71 146 -170c0 -121 -101 -189 -276 -189c-85 0 -159 16 -234 44v95c76 -25 148 -53 234 -53
c109 0 179 39 179 100c0 53 -41 80 -97 95l-153 42c-83 22 -154 69 -154 173c0 127 121 178 266 178z" />
    <glyph glyph-name="Uacute" unicode="&#xda;" horiz-adv-x="718" 
d="M385 710h-79l74 145h106zM638 650v-371c0 -155 -64 -291 -283 -291c-217 0 -280 136 -280 291v371h94v-372c0 -133 63 -202 186 -202c125 0 189 69 189 202v372h94z" />
    <glyph glyph-name="Ucircumflex" unicode="&#xdb;" horiz-adv-x="718" 
d="M505 710h-81l-75 86l-75 -86h-81l101 145h110zM638 650v-371c0 -155 -64 -291 -283 -291c-217 0 -280 136 -280 291v371h94v-372c0 -133 63 -202 186 -202c125 0 189 69 189 202v372h94z" />
    <glyph glyph-name="Udieresis" unicode="&#xdc;" horiz-adv-x="718" 
d="M300 707h-100v98h100v-98zM498 707h-100v98h100v-98zM638 650v-371c0 -155 -64 -291 -283 -291c-217 0 -280 136 -280 291v371h94v-372c0 -133 63 -202 186 -202c125 0 189 69 189 202v372h94z" />
    <glyph glyph-name="Ugrave" unicode="&#xd9;" horiz-adv-x="718" 
d="M396 710h-79l-101 145h106zM638 650v-371c0 -155 -64 -291 -283 -291c-217 0 -280 136 -280 291v371h94v-372c0 -133 63 -202 186 -202c125 0 189 69 189 202v372h94z" />
    <glyph glyph-name="Yacute" unicode="&#xdd;" horiz-adv-x="606" 
d="M336 710h-79l74 145h106zM498 650h113c-93 -178 -219 -374 -261 -430v-220h-94v220c-43 57 -166 250 -261 430h110c76 -152 136 -248 198 -344c59 90 116 184 195 344z" />
    <glyph glyph-name="Ydieresis" unicode="&#x178;" horiz-adv-x="606" 
d="M251 707h-100v98h100v-98zM449 707h-100v98h100v-98zM498 650h113c-93 -178 -219 -374 -261 -430v-220h-94v220c-43 57 -166 250 -261 430h110c76 -152 136 -248 198 -344c59 90 116 184 195 344z" />
    <glyph glyph-name="Zcaron" unicode="&#x17d;" horiz-adv-x="599" 
d="M354 710h-110l-101 145h81l75 -86l75 86h81zM559 567l-393 -481h391v-86h-517v83l394 481h-394v86h519v-83z" />
    <glyph glyph-name="aacute" unicode="&#xe1;" horiz-adv-x="603" 
d="M339 591h-79l74 145h106zM286 524c162 0 242 -57 242 -221v-303h-68l-12 47c-44 -30 -113 -59 -192 -59c-111 0 -203 57 -203 171c0 123 106 167 216 167c60 0 123 -13 169 -36v30c0 101 -75 120 -162 120c-66 0 -117 -11 -191 -35v89c70 21 137 30 201 30zM148 160
c0 -70 63 -90 124 -90c78 0 136 33 166 52v93c-51 27 -112 36 -158 36c-74 0 -132 -24 -132 -91z" />
    <glyph glyph-name="acircumflex" unicode="&#xe2;" horiz-adv-x="603" 
d="M225 591h-81l101 145h110l101 -145h-81l-75 86zM286 524c162 0 242 -57 242 -221v-303h-68l-12 47c-44 -30 -113 -59 -192 -59c-111 0 -203 57 -203 171c0 123 106 167 216 167c60 0 123 -13 169 -36v30c0 101 -75 120 -162 120c-66 0 -117 -11 -191 -35v89
c70 21 137 30 201 30zM148 160c0 -70 63 -90 124 -90c78 0 136 33 166 52v93c-51 27 -112 36 -158 36c-74 0 -132 -24 -132 -91z" />
    <glyph glyph-name="adieresis" unicode="&#xe4;" horiz-adv-x="603" 
d="M250 588h-98v96h98v-96zM448 588h-98v96h98v-96zM286 524c162 0 242 -57 242 -221v-303h-68l-12 47c-44 -30 -113 -59 -192 -59c-111 0 -203 57 -203 171c0 123 106 167 216 167c60 0 123 -13 169 -36v30c0 101 -75 120 -162 120c-66 0 -117 -11 -191 -35v89
c70 21 137 30 201 30zM148 160c0 -70 63 -90 124 -90c78 0 136 33 166 52v93c-51 27 -112 36 -158 36c-74 0 -132 -24 -132 -91z" />
    <glyph glyph-name="agrave" unicode="&#xe0;" horiz-adv-x="603" 
d="M265 591l-101 145h106l74 -145h-79zM286 524c162 0 242 -57 242 -221v-303h-68l-12 47c-44 -30 -113 -59 -192 -59c-111 0 -203 57 -203 171c0 123 106 167 216 167c60 0 123 -13 169 -36v30c0 101 -75 120 -162 120c-66 0 -117 -11 -191 -35v89c70 21 137 30 201 30z
M148 160c0 -70 63 -90 124 -90c78 0 136 33 166 52v93c-51 27 -112 36 -158 36c-74 0 -132 -24 -132 -91z" />
    <glyph glyph-name="aring" unicode="&#xe5;" horiz-adv-x="603" 
d="M297 580c-65 0 -101 35 -101 86s36 86 101 86s101 -35 101 -86s-36 -86 -101 -86zM297 706c-26 0 -52 -10 -52 -40s26 -40 52 -40s52 10 52 40s-26 40 -52 40zM286 524c162 0 242 -57 242 -221v-303h-68l-12 47c-44 -30 -113 -59 -192 -59c-111 0 -203 57 -203 171
c0 123 106 167 216 167c60 0 123 -13 169 -36v30c0 101 -75 120 -162 120c-66 0 -117 -11 -191 -35v89c70 21 137 30 201 30zM148 160c0 -70 63 -90 124 -90c78 0 136 33 166 52v93c-51 27 -112 36 -158 36c-74 0 -132 -24 -132 -91z" />
    <glyph glyph-name="atilde" unicode="&#xe3;" horiz-adv-x="603" 
d="M243 644c-22 0 -29 -10 -34 -30h-60c8 56 38 97 94 97c42 0 79 -27 114 -27c24 0 31 10 34 30h60c-8 -56 -38 -97 -94 -97c-37 0 -83 27 -114 27zM286 524c162 0 242 -57 242 -221v-303h-68l-12 47c-44 -30 -113 -59 -192 -59c-111 0 -203 57 -203 171
c0 123 106 167 216 167c60 0 123 -13 169 -36v30c0 101 -75 120 -162 120c-66 0 -117 -11 -191 -35v89c70 21 137 30 201 30zM148 160c0 -70 63 -90 124 -90c78 0 136 33 166 52v93c-51 27 -112 36 -158 36c-74 0 -132 -24 -132 -91z" />
    <glyph glyph-name="ae" unicode="&#xe6;" horiz-adv-x="977" 
d="M703 524c141 0 227 -93 227 -248v-53h-402c12 -135 123 -151 189 -151c74 0 114 11 203 38v-87c-48 -17 -130 -35 -207 -35c-84 0 -165 26 -217 87c-96 -62 -158 -87 -240 -87c-111 0 -203 57 -203 171c0 123 106 167 216 167c60 0 123 -13 169 -36v30
c0 101 -75 120 -162 120c-66 0 -117 -11 -191 -35v89c70 21 137 30 201 30c104 0 174 -24 210 -86c51 59 128 86 207 86zM701 440c-82 0 -160 -43 -169 -139h306c-3 77 -44 139 -137 139zM280 251c-74 0 -132 -24 -132 -91c0 -70 63 -90 124 -90c86 0 155 42 187 65
c-9 23 -16 50 -19 79c-51 25 -116 37 -160 37z" />
    <glyph glyph-name="ccedilla" unicode="&#xe7;" horiz-adv-x="553" 
d="M508 106v-89c-56 -17 -93 -27 -162 -29l-8 -27c49 -5 76 -32 76 -75c0 -63 -37 -93 -112 -93c-22 0 -49 2 -88 13v67c42 -13 67 -16 89 -16c27 0 41 9 41 30c0 14 -15 25 -45 25c-18 0 -28 -1 -40 -3l26 82c-134 16 -240 110 -240 265c0 171 128 268 282 268
c82 0 115 -10 173 -31v-89c-72 27 -115 36 -163 36c-106 0 -198 -60 -198 -186c0 -94 71 -182 198 -182c75 0 106 13 171 34z" />
    <glyph glyph-name="eth" unicode="&#xf0;" horiz-adv-x="640" 
d="M534 669l-64 -45c75 -62 125 -162 125 -329c0 -220 -130 -307 -276 -307c-145 0 -274 88 -274 247c0 173 120 249 246 249c71 0 132 -17 196 -59c-16 70 -48 117 -89 150l-71 -50l-37 54l46 32c-38 17 -81 28 -125 36l24 76c63 -13 124 -31 177 -59l85 59zM321 73
c123 0 180 86 180 222l-1 32c-70 56 -124 73 -200 73c-83 0 -161 -55 -161 -165c0 -76 57 -162 182 -162z" />
    <glyph glyph-name="eacute" unicode="&#xe9;" horiz-adv-x="584" 
d="M341 591h-79l74 145h106zM537 223h-402c12 -135 123 -151 189 -151c74 0 114 11 203 38v-87c-48 -17 -130 -35 -207 -35c-142 0 -275 76 -275 265c0 195 129 271 265 271c141 0 227 -93 227 -248v-53zM139 300h306c-3 77 -44 140 -137 140c-82 0 -160 -43 -169 -140z" />
    <glyph glyph-name="ecircumflex" unicode="&#xea;" horiz-adv-x="584" 
d="M227 591h-81l101 145h110l101 -145h-81l-75 86zM537 223h-402c12 -135 123 -151 189 -151c74 0 114 11 203 38v-87c-48 -17 -130 -35 -207 -35c-142 0 -275 76 -275 265c0 195 129 271 265 271c141 0 227 -93 227 -248v-53zM139 300h306c-3 77 -44 140 -137 140
c-82 0 -160 -43 -169 -140z" />
    <glyph glyph-name="edieresis" unicode="&#xeb;" horiz-adv-x="584" 
d="M252 588h-98v96h98v-96zM450 588h-98v96h98v-96zM537 223h-402c12 -135 123 -151 189 -151c74 0 114 11 203 38v-87c-48 -17 -130 -35 -207 -35c-142 0 -275 76 -275 265c0 195 129 271 265 271c141 0 227 -93 227 -248v-53zM139 300h306c-3 77 -44 140 -137 140
c-82 0 -160 -43 -169 -140z" />
    <glyph glyph-name="egrave" unicode="&#xe8;" horiz-adv-x="584" 
d="M267 591l-101 145h106l74 -145h-79zM537 223h-402c12 -135 123 -151 189 -151c74 0 114 11 203 38v-87c-48 -17 -130 -35 -207 -35c-142 0 -275 76 -275 265c0 195 129 271 265 271c141 0 227 -93 227 -248v-53zM139 300h306c-3 77 -44 140 -137 140
c-82 0 -160 -43 -169 -140z" />
    <glyph glyph-name="dotlessi" unicode="&#x131;" horiz-adv-x="240" 
d="M165 0h-90v513h90v-513z" />
    <glyph glyph-name="iacute" unicode="&#xed;" horiz-adv-x="240" 
d="M159 591h-79l74 145h106zM165 0h-90v513h90v-513z" />
    <glyph glyph-name="icircumflex" unicode="&#xee;" horiz-adv-x="240" 
d="M120 677l-75 -86h-81l101 145h110l101 -145h-81zM165 0h-90v513h90v-513z" />
    <glyph glyph-name="idieresis" unicode="&#xef;" horiz-adv-x="240" 
d="M70 588h-98v96h98v-96zM268 588h-98v96h98v-96zM165 0h-90v513h90v-513z" />
    <glyph glyph-name="igrave" unicode="&#xec;" horiz-adv-x="240" 
d="M164 591h-79l-101 145h106zM165 0h-90v513h90v-513z" />
    <glyph glyph-name="lslash" unicode="&#x142;" horiz-adv-x="258" 
d="M278 373l-103 -28v-345h-90v320l-105 -29v84l105 29v287h90v-262l103 28v-84z" />
    <glyph glyph-name="ntilde" unicode="&#xf1;" horiz-adv-x="645" 
d="M264 644c-22 0 -29 -10 -34 -30h-60c8 56 38 97 94 97c42 0 79 -27 114 -27c24 0 31 10 34 30h60c-8 -56 -38 -97 -94 -97c-37 0 -83 27 -114 27zM367 524c129 0 203 -44 203 -200v-324h-90v308c0 91 -24 130 -133 130c-69 0 -145 -34 -182 -64v-374h-90v513h66l15 -59
c36 28 124 70 211 70z" />
    <glyph glyph-name="oacute" unicode="&#xf3;" horiz-adv-x="640" 
d="M359 591h-79l74 145h106zM320 524c146 0 275 -92 275 -269c0 -180 -130 -267 -276 -267c-145 0 -274 88 -274 267c0 177 129 269 275 269zM320 440c-103 0 -181 -71 -181 -185c0 -96 57 -182 182 -182c123 0 180 86 180 182c0 114 -78 185 -181 185z" />
    <glyph glyph-name="ocircumflex" unicode="&#xf4;" horiz-adv-x="640" 
d="M320 677l-75 -86h-81l101 145h110l101 -145h-81zM320 524c146 0 275 -92 275 -269c0 -180 -130 -267 -276 -267c-145 0 -274 88 -274 267c0 177 129 269 275 269zM320 440c-103 0 -181 -71 -181 -185c0 -96 57 -182 182 -182c123 0 180 86 180 182
c0 114 -78 185 -181 185z" />
    <glyph glyph-name="odieresis" unicode="&#xf6;" horiz-adv-x="640" 
d="M270 588h-98v96h98v-96zM468 588h-98v96h98v-96zM320 524c146 0 275 -92 275 -269c0 -180 -130 -267 -276 -267c-145 0 -274 88 -274 267c0 177 129 269 275 269zM320 440c-103 0 -181 -71 -181 -185c0 -96 57 -182 182 -182c123 0 180 86 180 182
c0 114 -78 185 -181 185z" />
    <glyph glyph-name="ograve" unicode="&#xf2;" horiz-adv-x="640" 
d="M364 591h-79l-101 145h106zM320 524c146 0 275 -92 275 -269c0 -180 -130 -267 -276 -267c-145 0 -274 88 -274 267c0 177 129 269 275 269zM320 440c-103 0 -181 -71 -181 -185c0 -96 57 -182 182 -182c123 0 180 86 180 182c0 114 -78 185 -181 185z" />
    <glyph glyph-name="oslash" unicode="&#xf8;" horiz-adv-x="640" 
d="M566 489l-39 -47c42 -45 68 -107 68 -187c0 -180 -130 -267 -276 -267c-52 0 -102 11 -145 34l-40 -48l-60 47l39 47c-42 44 -68 106 -68 187c0 177 129 269 275 269c53 0 103 -12 146 -36l40 48zM139 255c0 -43 11 -83 35 -115l234 280c-25 13 -55 20 -88 20
c-103 0 -181 -71 -181 -185zM321 73c123 0 180 86 180 182c0 46 -13 85 -35 115l-234 -279c24 -11 54 -18 89 -18z" />
    <glyph glyph-name="otilde" unicode="&#xf5;" horiz-adv-x="640" 
d="M411 714h60c-8 -56 -38 -97 -94 -97c-37 0 -83 27 -114 27c-22 0 -29 -10 -34 -30h-60c8 56 38 97 94 97c42 0 79 -27 114 -27c24 0 31 10 34 30zM320 524c146 0 275 -92 275 -269c0 -180 -130 -267 -276 -267c-145 0 -274 88 -274 267c0 177 129 269 275 269zM320 440
c-103 0 -181 -71 -181 -185c0 -96 57 -182 182 -182c123 0 180 86 180 182c0 114 -78 185 -181 185z" />
    <glyph glyph-name="oe" unicode="&#x153;" horiz-adv-x="1041" 
d="M994 223h-402c12 -135 123 -151 189 -151c74 0 114 11 203 38v-87c-48 -17 -130 -35 -207 -35c-93 0 -182 32 -232 108c-50 -71 -134 -108 -226 -108c-145 0 -274 88 -274 267c0 177 129 269 275 269c91 0 174 -38 224 -109c49 77 134 109 223 109
c141 0 227 -93 227 -248v-53zM321 73c123 0 180 86 180 182c0 114 -78 185 -181 185s-181 -71 -181 -185c0 -96 57 -182 182 -182zM596 300h306c-3 77 -44 140 -137 140c-82 0 -160 -43 -169 -140z" />
    <glyph glyph-name="thorn" unicode="&#xfe;" horiz-adv-x="642" 
d="M339 524c145 0 258 -93 258 -262c0 -182 -134 -274 -270 -274c-59 0 -118 18 -162 41v-229h-90v891h90v-217c36 23 96 50 174 50zM315 72c124 0 187 84 187 187c0 102 -61 183 -180 183c-70 0 -123 -28 -157 -57v-267c34 -24 88 -46 150 -46z" />
    <glyph glyph-name="scaron" unicode="&#x161;" horiz-adv-x="513" 
d="M312 591h-110l-101 145h81l75 -86l75 86h81zM262 524c76 0 142 -13 190 -27v-87c-54 18 -123 31 -188 31c-57 0 -127 -3 -127 -63c0 -28 25 -47 74 -58l114 -26c82 -19 148 -48 148 -151c0 -122 -100 -155 -239 -155c-61 0 -140 13 -194 28v87c36 -11 120 -32 195 -32
c70 0 147 9 147 73c0 38 -31 53 -71 63l-150 36c-75 18 -116 72 -116 131c0 131 119 150 217 150z" />
    <glyph glyph-name="germandbls" unicode="&#xdf;" horiz-adv-x="576" 
d="M255 723c117 0 188 -56 188 -158c0 -130 -123 -129 -123 -184c0 -21 9 -30 59 -49l65 -25c71 -27 112 -70 112 -150c0 -110 -70 -169 -195 -169c-48 0 -90 10 -141 28v96c36 -24 97 -40 142 -40c67 0 100 26 100 85c0 38 -24 59 -69 76l-87 32c-54 20 -80 54 -80 111
c0 128 123 88 123 189c0 51 -34 74 -98 74c-62 0 -86 -28 -86 -91v-548h-90v546c0 126 60 177 180 177z" />
    <glyph glyph-name="uacute" unicode="&#xfa;" horiz-adv-x="639" 
d="M359 591h-79l74 145h106zM564 513v-513h-66l-13 47c-63 -37 -146 -59 -220 -59c-101 0 -190 54 -190 198v327h90v-303c0 -113 53 -138 132 -138c59 0 126 17 177 51v390h90z" />
    <glyph glyph-name="ucircumflex" unicode="&#xfb;" horiz-adv-x="639" 
d="M245 591h-81l101 145h110l101 -145h-81l-75 86zM564 513v-513h-66l-13 47c-63 -37 -146 -59 -220 -59c-101 0 -190 54 -190 198v327h90v-303c0 -113 53 -138 132 -138c59 0 126 17 177 51v390h90z" />
    <glyph glyph-name="udieresis" unicode="&#xfc;" horiz-adv-x="639" 
d="M270 588h-98v96h98v-96zM468 588h-98v96h98v-96zM564 513v-513h-66l-13 47c-63 -37 -146 -59 -220 -59c-101 0 -190 54 -190 198v327h90v-303c0 -113 53 -138 132 -138c59 0 126 17 177 51v390h90z" />
    <glyph glyph-name="ugrave" unicode="&#xf9;" horiz-adv-x="639" 
d="M285 591l-101 145h106l74 -145h-79zM564 513v-513h-66l-13 47c-63 -37 -146 -59 -220 -59c-101 0 -190 54 -190 198v327h90v-303c0 -113 53 -138 132 -138c59 0 126 17 177 51v390h90z" />
    <glyph glyph-name="yacute" unicode="&#xfd;" horiz-adv-x="541" 
d="M296 591h-79l74 145h106zM446 513h105c-76 -208 -195 -458 -343 -713h-104c42 75 82 143 120 213c-94 170 -170 331 -234 500h100c49 -134 112 -271 185 -404c57 112 112 237 171 404z" />
    <glyph glyph-name="ydieresis" unicode="&#xff;" horiz-adv-x="541" 
d="M207 588h-98v96h98v-96zM405 588h-98v96h98v-96zM446 513h105c-76 -208 -195 -458 -343 -713h-104c42 75 82 143 120 213c-94 170 -170 331 -234 500h100c49 -134 112 -271 185 -404c57 112 112 237 171 404z" />
    <glyph glyph-name="zcaron" unicode="&#x17e;" horiz-adv-x="533" 
d="M312 591h-110l-101 145h81l75 -86l75 86h81zM488 433l-333 -356h338v-77h-453v80l335 356h-321v77h434v-80z" />
    <glyph glyph-name="fi" unicode="&#xfb01;" horiz-adv-x="578" 
d="M269 723c17 0 41 -3 85 -13v-79c-43 11 -74 12 -89 12c-51 0 -82 -19 -82 -76v-54h171v-77h-171v-436h-90v436h-98v77h98v55c0 126 82 155 176 155zM509 588h-102v92h102v-92zM503 0h-90v513h90v-513z" />
    <glyph glyph-name="fl" unicode="&#xfb02;" horiz-adv-x="578" 
d="M269 723c17 0 41 -3 85 -13v-79c-43 11 -74 12 -89 12c-51 0 -82 -19 -82 -76v-54h171v-77h-171v-436h-90v436h-98v77h98v55c0 126 82 155 176 155zM503 0h-90v691h90v-691z" />
    <glyph glyph-name="ordfeminine" unicode="&#xaa;" horiz-adv-x="547" 
d="M282 662c130 0 190 -40 190 -185v-252h-62l-11 32c-45 -25 -92 -42 -141 -42c-110 0 -182 47 -182 145c0 99 80 145 187 145c48 0 91 -11 127 -28v14c0 79 -52 93 -120 93c-51 0 -107 -10 -168 -28v81c71 18 126 25 180 25zM257 294c59 0 105 21 133 38v68
c-35 16 -80 28 -123 28c-52 0 -104 -15 -104 -70c0 -51 55 -64 94 -64zM75 85h397v-85h-397v85z" />
    <glyph glyph-name="ordmasculine" unicode="&#xba;" horiz-adv-x="549" 
d="M275 661c122 0 229 -76 229 -224c0 -150 -108 -223 -230 -223s-229 74 -229 223c0 148 107 224 230 224zM275 583c-82 0 -143 -56 -143 -146c0 -76 45 -143 144 -143c97 0 142 67 142 143c0 90 -62 146 -143 146zM473 0h-397v85h397v-85z" />
    <glyph glyph-name="uni0410" unicode="&#x410;" horiz-adv-x="663" 
d="M668 0h-98c-16 48 -36 106 -60 168h-354c-26 -66 -47 -125 -60 -168h-101c98 297 238 580 281 650h111c27 -43 166 -303 281 -650zM190 252h287c-46 115 -99 233 -144 313c-41 -77 -96 -198 -143 -313z" />
    <glyph glyph-name="uni0411" unicode="&#x411;" horiz-adv-x="610" 
d="M494 564h-320v-147h150c151 0 251 -68 251 -196c0 -142 -76 -221 -248 -221h-249v650h416v-86zM172 331v-245h155c97 0 151 51 151 131c0 71 -59 114 -156 114h-150z" />
    <glyph glyph-name="uni0412" unicode="&#x412;" horiz-adv-x="674" 
d="M80 650h281c117 0 231 -38 231 -160c0 -76 -40 -125 -99 -150v-1c61 -20 121 -67 121 -164c0 -138 -122 -175 -277 -175h-257v650zM174 564v-190h166c96 0 154 30 154 100c0 83 -85 90 -154 90h-166zM174 291v-205h158c102 0 184 15 184 100c0 75 -69 105 -180 105h-162z
" />
    <glyph glyph-name="uni0413" unicode="&#x413;" horiz-adv-x="506" 
d="M486 564h-312v-564h-94v650h406v-86z" />
    <glyph glyph-name="uni0403" unicode="&#x403;" horiz-adv-x="506" 
d="M289 710h-79l74 145h106zM486 564h-312v-564h-94v650h406v-86z" />
    <glyph glyph-name="uni0490" unicode="&#x490;" horiz-adv-x="506" 
d="M486 787v-223h-312v-564h-94v650h316v137h90z" />
    <glyph glyph-name="uni0414" unicode="&#x414;" horiz-adv-x="678" 
d="M673 86v-223h-91v137h-497v-137h-90v223h64c35 25 53 84 72 169c17 79 36 240 47 396l410 -1v-564h85zM494 86v478h-230c-13 -154 -32 -265 -52 -351c-13 -55 -27 -96 -48 -127h330z" />
    <glyph glyph-name="uni0415" unicode="&#x415;" horiz-adv-x="599" 
d="M539 564h-365v-187h336v-85h-336v-206h365v-86h-459v650h459v-86z" />
    <glyph glyph-name="uni0400" unicode="&#x400;" horiz-adv-x="599" 
d="M357 710h-79l-101 145h106zM539 564h-365v-187h336v-85h-336v-206h365v-86h-459v650h459v-86z" />
    <glyph glyph-name="uni0401" unicode="&#x401;" horiz-adv-x="599" 
d="M261 707h-100v98h100v-98zM459 707h-100v98h100v-98zM539 564h-365v-187h336v-85h-336v-206h365v-86h-459v650h459v-86z" />
    <glyph glyph-name="uni0416" unicode="&#x416;" horiz-adv-x="908" 
d="M898 0h-122c-65 92 -128 182 -196 274h-81v-274h-90v274h-81c-68 -92 -131 -182 -196 -274h-122c78 112 152 219 239 328c-73 114 -145 215 -236 322h124c74 -96 140 -194 197 -290h75v290h90v-290h75c57 96 123 194 197 290h124c-91 -107 -163 -208 -236 -322
c87 -109 161 -216 239 -328z" />
    <glyph glyph-name="uni0417" unicode="&#x417;" horiz-adv-x="628" 
d="M289 662c178 0 257 -64 257 -174c0 -68 -38 -121 -97 -146v-1c67 -22 119 -75 119 -150c0 -130 -86 -203 -273 -203c-104 0 -189 24 -230 40v94c87 -35 154 -48 223 -48c138 0 183 44 183 116c0 63 -54 100 -164 100h-154v86h154c97 0 142 41 142 101
c0 62 -46 99 -158 99c-78 0 -154 -20 -221 -54v96c53 25 145 44 219 44z" />
    <glyph glyph-name="uni0418" unicode="&#x418;" horiz-adv-x="725" 
d="M173 650v-504l371 504h101v-650h-93v526l-390 -526h-82v650h93z" />
    <glyph glyph-name="uni0419" unicode="&#x419;" horiz-adv-x="725" 
d="M503 817h-59c-14 -40 -41 -55 -81 -55c-31 0 -53 14 -60 55h-84c6 -76 47 -120 133 -120c79 0 135 39 151 120zM173 650v-504l371 504h101v-650h-93v526l-390 -526h-82v650h93z" />
    <glyph glyph-name="uni040D" unicode="&#x40d;" horiz-adv-x="725" 
d="M407 710h-79l-101 145h106zM173 650v-504l371 504h101v-650h-93v526l-390 -526h-82v650h93z" />
    <glyph glyph-name="uni041A" unicode="&#x41a;" horiz-adv-x="643" 
d="M309 328c127 -109 222 -215 329 -328h-128c-86 92 -170 182 -272 274h-64v-274h-94v650h94v-290h55c80 96 171 194 274 290h132c-125 -107 -225 -208 -326 -322z" />
    <glyph glyph-name="uni040C" unicode="&#x40c;" horiz-adv-x="643" 
d="M358 710h-79l74 145h106zM309 328c127 -109 222 -215 329 -328h-128c-86 92 -170 182 -272 274h-64v-274h-94v650h94v-290h55c80 96 171 194 274 290h132c-125 -107 -225 -208 -326 -322z" />
    <glyph glyph-name="uni041B" unicode="&#x41b;" horiz-adv-x="646" 
d="M566 650h-400c-11 -156 -30 -316 -47 -395c-26 -115 -53 -185 -119 -185c-5 0 -8 0 -15 1l1 -82c10 -1 18 -1 24 -1c116 0 159 78 192 221c20 86 40 201 53 355h217v-564h94v650z" />
    <glyph glyph-name="uni041C" unicode="&#x41c;" horiz-adv-x="864" 
d="M612 650h95c31 -113 77 -251 127 -650h-95c-41 304 -76 455 -93 523c-62 -149 -125 -305 -181 -454h-66c-97 257 -164 425 -179 449c-17 -69 -53 -220 -94 -518h-96c54 395 99 534 131 650h95c54 -120 113 -261 176 -425c84 208 134 322 180 425z" />
    <glyph glyph-name="uni041D" unicode="&#x41d;" horiz-adv-x="719" 
d="M639 0h-94v281h-371v-281h-94v650h94v-283h371v283h94v-650z" />
    <glyph glyph-name="uni041E" unicode="&#x41e;" horiz-adv-x="792" 
d="M400 662c219 0 342 -135 342 -336c0 -207 -138 -338 -341 -338c-216 0 -351 134 -351 338c0 205 135 336 350 336zM400 574c-147 0 -251 -81 -251 -248c0 -157 103 -248 252 -248c141 0 244 91 244 248c0 164 -101 248 -245 248z" />
    <glyph glyph-name="uni041F" unicode="&#x41f;" horiz-adv-x="709" 
d="M629 0h-94v564h-361v-564h-94v650h549v-650z" />
    <glyph glyph-name="uni0420" unicode="&#x420;" horiz-adv-x="633" 
d="M80 650h270c79 0 243 -33 243 -219c0 -185 -164 -219 -243 -219h-176v-212h-94v650zM174 564v-266h164c77 0 155 30 155 132s-77 134 -155 134h-164z" />
    <glyph glyph-name="uni0421" unicode="&#x421;" horiz-adv-x="704" 
d="M436 662c73 0 160 -18 213 -42v-98c-66 34 -139 52 -215 52c-158 0 -285 -84 -285 -254c0 -177 154 -244 292 -244c83 0 127 10 213 44v-92c-43 -18 -113 -40 -220 -40c-181 0 -384 91 -384 331c0 235 182 343 386 343z" />
    <glyph glyph-name="uni0422" unicode="&#x422;" horiz-adv-x="626" 
d="M606 564h-246v-564h-94v564h-246v86h586v-86z" />
    <glyph glyph-name="uni0423" unicode="&#x423;" horiz-adv-x="599" 
d="M499 650h110c-94 -179 -198 -370 -386 -650h-118c54 73 105 146 151 219c-42 59 -165 254 -256 431h105c52 -103 156 -268 206 -343c43 66 122 213 188 343z" />
    <glyph glyph-name="uni040E" unicode="&#x40e;" horiz-adv-x="599" 
d="M370 827h77c-8 -73 -53 -119 -142 -119s-134 46 -142 119h77c4 -31 24 -53 65 -53s61 22 65 53zM499 650h110c-94 -179 -198 -370 -386 -650h-118c54 73 105 146 151 219c-42 59 -165 254 -256 431h105c52 -103 156 -268 206 -343c43 66 122 213 188 343z" />
    <glyph glyph-name="uni0424" unicode="&#x424;" horiz-adv-x="828" 
d="M778 326c0 -190 -102 -323 -320 -337v-41h-90v42c-217 18 -319 145 -319 336c0 188 103 316 319 334v42h90v-41c213 -13 320 -142 320 -335zM456 575v-501c160 13 226 113 226 251c0 144 -73 238 -226 250zM145 326c0 -144 78 -234 225 -250v498
c-151 -15 -225 -96 -225 -248z" />
    <glyph glyph-name="uni0425" unicode="&#x425;" horiz-adv-x="632" 
d="M380 329l257 -329h-118l-205 265l-196 -265h-123l259 328l-257 322h121l195 -254l202 254h116z" />
    <glyph glyph-name="uni0427" unicode="&#x427;" horiz-adv-x="620" 
d="M540 650v-649h-94v249c-44 -31 -109 -65 -186 -65c-135 0 -200 50 -200 227v238h94v-235c0 -114 32 -144 115 -144c80 0 134 33 177 65v314h94z" />
    <glyph glyph-name="uni0426" unicode="&#x426;" horiz-adv-x="704" 
d="M699 86v-223h-90v137h-529v650h94v-564h346v564h94v-564h85z" />
    <glyph glyph-name="uni0428" unicode="&#x428;" horiz-adv-x="944" 
d="M864 650v-650h-784v650h94v-564h253v564h90v-564h253v564h94z" />
    <glyph glyph-name="uni0429" unicode="&#x429;" horiz-adv-x="954" 
d="M949 86v-223h-90v137h-779v650h94v-564h253v564h90v-564h253v564h94v-564h85z" />
    <glyph glyph-name="uni040F" unicode="&#x40f;" horiz-adv-x="694" 
d="M614 0h-222v-137h-90v137h-222v650h94v-564h346v564h94v-650z" />
    <glyph glyph-name="uni042F" unicode="&#x42f;" horiz-adv-x="645" 
d="M565 650v-650h-94v237h-135c-40 -41 -109 -128 -187 -237h-119c1 2 101 148 194 249c-86 18 -157 71 -157 194c0 128 94 207 258 207h240zM471 564h-150c-107 0 -157 -53 -157 -119c0 -82 57 -122 153 -122h154v241z" />
    <glyph glyph-name="uni042C" unicode="&#x42c;" horiz-adv-x="602" 
d="M174 417h152c151 0 251 -68 251 -196c0 -142 -76 -221 -248 -221h-249v650h94v-233zM172 86h157c97 0 151 51 151 131c0 71 -59 114 -156 114h-152v-245z" />
    <glyph glyph-name="uni042A" unicode="&#x42a;" horiz-adv-x="727" 
d="M299 417h152c151 0 251 -68 251 -196c0 -142 -76 -221 -248 -221h-249v566h-200v84h294v-233zM297 86h157c97 0 151 51 151 131c0 71 -59 114 -156 114h-152v-245z" />
    <glyph glyph-name="uni042B" unicode="&#x42b;" horiz-adv-x="855" 
d="M174 417h152c151 0 251 -68 251 -196c0 -142 -76 -221 -248 -221h-249v650h94v-233zM775 0h-94v650h94v-650zM172 331v-245h157c97 0 151 51 151 131c0 71 -59 114 -156 114h-152z" />
    <glyph glyph-name="uni0409" unicode="&#x409;" horiz-adv-x="974" 
d="M556 417h142c151 0 251 -68 251 -196c0 -142 -76 -221 -248 -221h-239v564h-207c-13 -154 -33 -269 -53 -355c-33 -143 -76 -221 -192 -221c-6 0 -14 0 -24 1l-1 82c7 -1 10 -1 15 -1c66 0 93 70 119 185c17 79 36 239 47 395h390v-233zM556 86h145c97 0 151 51 151 131
c0 70 -59 114 -156 114h-140v-245z" />
    <glyph glyph-name="uni040A" unicode="&#x40a;" horiz-adv-x="1043" 
d="M625 386h147c151 0 246 -67 246 -181c0 -127 -79 -205 -244 -205h-240v300h-360v-300h-94v650h94v-264h360v264h91v-264zM625 86h149c101 0 147 44 147 115c0 68 -54 99 -151 99h-145v-214z" />
    <glyph glyph-name="uni0405" unicode="&#x405;" horiz-adv-x="605" 
d="M320 662c81 0 146 -14 207 -34v-90c-84 26 -140 39 -207 39c-85 0 -171 -21 -171 -93c0 -48 41 -75 95 -90l165 -47c80 -22 146 -71 146 -170c0 -121 -101 -189 -276 -189c-85 0 -159 16 -234 44v95c76 -25 148 -53 234 -53c109 0 179 39 179 100c0 53 -41 80 -97 95
l-153 42c-83 22 -154 69 -154 173c0 127 121 178 266 178z" />
    <glyph glyph-name="uni0404" unicode="&#x404;" horiz-adv-x="655" 
d="M377 74c89 0 141 11 228 46v-92c-41 -16 -118 -40 -235 -40c-194 0 -320 105 -320 336c0 236 131 338 329 338c80 0 168 -19 221 -44v-94c-67 34 -138 52 -223 52c-130 0 -211 -67 -229 -196h346v-86h-349c9 -153 103 -220 232 -220z" />
    <glyph glyph-name="uni042D" unicode="&#x42d;" horiz-adv-x="655" 
d="M276 662c198 0 329 -102 329 -338c0 -231 -148 -336 -327 -336c-117 0 -187 24 -228 40v92c87 -35 132 -46 221 -46c129 0 229 63 239 220h-349v86h346c-18 129 -99 196 -229 196c-85 0 -156 -18 -223 -52v94c53 25 141 44 221 44z" />
    <glyph glyph-name="uni0406" unicode="&#x406;" horiz-adv-x="254" 
d="M174 0h-94v650h94v-650z" />
    <glyph glyph-name="uni0407" unicode="&#x407;" horiz-adv-x="254" 
d="M78 707h-100v98h100v-98zM276 707h-100v98h100v-98zM174 0h-94v650h94v-650z" />
    <glyph glyph-name="uni0408" unicode="&#x408;" horiz-adv-x="454" 
d="M379 650v-466c0 -121 -82 -196 -207 -196c-28 0 -95 6 -162 26v94c44 -16 107 -31 158 -31c67 0 117 34 117 129v444h94z" />
    <glyph glyph-name="uni040B" unicode="&#x40b;" horiz-adv-x="805" 
d="M545 451c134 0 200 -50 200 -227v-223h-94v220c0 114 -32 144 -115 144c-79 0 -134 -32 -176 -64v-301h-94v564h-246v86h586v-86h-246v-177c44 31 109 64 185 64z" />
    <glyph glyph-name="uni042E" unicode="&#x42e;" horiz-adv-x="989" 
d="M615 662c199 0 324 -132 324 -336c0 -203 -116 -338 -324 -338c-196 0 -318 117 -332 302h-109v-290h-94v650h94v-274h110c18 175 132 286 331 286zM615 74c147 0 227 103 227 251c0 155 -89 251 -227 251c-140 0 -237 -82 -237 -250c0 -160 102 -252 237 -252z" />
    <glyph glyph-name="uni0402" unicode="&#x402;" horiz-adv-x="806" 
d="M546 451c135 0 200 -50 200 -227v-29c0 -123 -35 -206 -163 -206c-45 0 -63 4 -119 21v87c76 -20 90 -22 120 -22c69 0 68 94 68 114v32c0 114 -32 144 -115 144c-80 0 -134 -33 -177 -65v-300h-94v564h-246v86h586v-86h-246v-178c44 31 109 65 186 65z" />
    <glyph glyph-name="uni0492" unicode="&#x492;" horiz-adv-x="506" 
d="M174 564v-185h176v-86h-176v-293h-94v293h-80v86h80v271h406v-86h-312z" />
    <glyph glyph-name="uni0496" unicode="&#x496;" horiz-adv-x="913" 
d="M928 86v-223h-90v137h-62c-65 92 -128 182 -196 274h-81v-274h-90v274h-81c-68 -92 -131 -182 -196 -274h-122c78 112 152 219 239 328c-73 114 -145 215 -236 322h124c74 -96 140 -194 197 -290h75v290h90v-290h75c57 96 123 194 197 290h124
c-91 -107 -163 -208 -236 -322c65 -81 122 -161 179 -242h90z" />
    <glyph glyph-name="uni049A" unicode="&#x49a;" horiz-adv-x="638" 
d="M658 86v-223h-90v137h-58c-86 92 -170 182 -272 274h-64v-274h-94v650h94v-290h55c80 96 171 194 274 290h132c-125 -107 -225 -208 -326 -322c94 -81 171 -160 248 -242h101z" />
    <glyph glyph-name="uni049C" unicode="&#x49c;" horiz-adv-x="647" 
d="M637 0h-122c-65 92 -128 182 -196 274h-24v-194h-78v194h-43v-274h-94v650h94v-290h43v153h78v-153h18c57 96 123 194 197 290h124c-91 -107 -163 -208 -236 -322c87 -109 161 -216 239 -328z" />
    <glyph glyph-name="uni049D" unicode="&#x49d;" horiz-adv-x="558" 
d="M558 0l-114 1c-46 67 -107 150 -164 221h-22v-172h-56v172h-37v-222h-90v513h90v-214h37v124h56v-124h13c51 68 93 126 166 214h112c-76 -84 -137 -158 -196 -241c68 -85 167 -217 205 -272z" />
    <glyph glyph-name="uni04A2" unicode="&#x4a2;" horiz-adv-x="724" 
d="M719 86v-223h-90v137h-84v281h-371v-281h-94v650h94v-283h371v283h94v-564h80z" />
    <glyph glyph-name="uni04AE" unicode="&#x4ae;" horiz-adv-x="606" 
d="M498 650h113c-93 -178 -219 -374 -261 -430v-220h-94v220c-43 57 -166 250 -261 430h110c76 -152 136 -248 198 -344c59 90 116 184 195 344z" />
    <glyph glyph-name="uni04AF" unicode="&#x4af;" horiz-adv-x="540" 
d="M447 513h103c-66 -166 -144 -332 -237 -499v-214h-90v218c-91 165 -168 330 -233 495h103c49 -134 102 -268 176 -402c74 134 129 268 178 402z" />
    <glyph glyph-name="uni04B2" unicode="&#x4b2;" horiz-adv-x="636" 
d="M666 86v-223h-90v137h-57l-205 265l-196 -265h-123l259 328l-257 322h121l195 -254l202 254h116l-251 -321l190 -243h96z" />
    <glyph glyph-name="uni04B8" unicode="&#x4b8;" horiz-adv-x="620" 
d="M540 650v-649h-94v249c-29 -21 -67 -42 -112 -55v-115h-88v105c-125 4 -186 56 -186 227v238h94v-235c0 -103 26 -137 92 -143v241h88v-234c46 11 82 34 112 57v314h94z" />
    <glyph glyph-name="uni04B9" unicode="&#x4b9;" horiz-adv-x="568" 
d="M493 513v-513h-90v193c-25 -18 -55 -37 -90 -50v-93h-82v78c-122 1 -181 54 -181 220v165h90v-165c0 -97 26 -132 91 -136v211h82v-199c34 13 64 33 90 54v235h90z" />
    <glyph glyph-name="uni04BA" unicode="&#x4ba;" horiz-adv-x="620" 
d="M360 451c135 0 200 -50 200 -227v-224h-94v221c0 114 -32 144 -115 144c-80 0 -134 -33 -177 -65v-300h-94v650h94v-264c44 31 109 65 186 65z" />
    <glyph glyph-name="uni04C0" unicode="&#x4c0;" horiz-adv-x="254" 
d="M174 0h-94v650h94v-650z" />
    <glyph glyph-name="uni04CF" unicode="&#x4cf;" horiz-adv-x="240" 
d="M165 0h-90v691h90v-691z" />
    <glyph glyph-name="uni04D8" unicode="&#x4d8;" horiz-adv-x="769" 
d="M391 662c203 0 328 -122 328 -327c0 -203 -123 -347 -328 -347c-222 0 -341 132 -341 338v50h570c-8 130 -83 200 -229 200c-92 0 -160 -15 -257 -48v94c83 24 170 40 257 40zM391 74c148 0 220 87 230 216h-472c7 -138 112 -216 242 -216z" />
    <glyph glyph-name="uni04E8" unicode="&#x4e8;" horiz-adv-x="782" 
d="M400 662c219 0 342 -135 342 -336c0 -207 -138 -338 -341 -338c-216 0 -351 134 -351 338c0 205 135 336 350 336zM400 574c-130 0 -227 -64 -247 -195h488c-19 129 -113 195 -241 195zM401 78c131 0 229 78 243 215h-493c14 -137 112 -215 250 -215z" />
    <glyph glyph-name="uni04E9" unicode="&#x4e9;" horiz-adv-x="640" 
d="M320 524c146 0 275 -92 275 -269c0 -180 -130 -267 -276 -267c-145 0 -274 88 -274 267c0 177 129 269 275 269zM320 440c-89 0 -160 -53 -177 -141h354c-18 88 -88 141 -177 141zM321 73c108 0 165 67 177 149h-357c12 -82 69 -149 180 -149z" />
    <glyph glyph-name="uni0430" unicode="&#x430;" horiz-adv-x="603" 
d="M286 524c162 0 242 -57 242 -221v-303h-68l-12 47c-44 -30 -113 -59 -192 -59c-111 0 -203 57 -203 171c0 123 106 167 216 167c60 0 123 -13 169 -36v30c0 101 -75 120 -162 120c-66 0 -117 -11 -191 -35v89c70 21 137 30 201 30zM148 160c0 -70 63 -90 124 -90
c78 0 136 33 166 52v93c-51 27 -112 36 -158 36c-74 0 -132 -24 -132 -91z" />
    <glyph glyph-name="uni0431" unicode="&#x431;" horiz-adv-x="620" 
d="M341 484c143 0 235 -88 235 -240c0 -144 -96 -256 -259 -256c-172 0 -267 89 -267 312v2c0 278 74 364 346 389c69 6 95 11 119 34l23 -87c-20 -25 -66 -33 -150 -36c-192 -7 -238 -87 -243 -204c47 53 118 86 196 86zM319 72c101 0 162 68 162 169
c0 105 -52 159 -148 159c-89 0 -152 -42 -190 -115c-4 -153 59 -213 176 -213z" />
    <glyph glyph-name="uni0432" unicode="&#x432;" horiz-adv-x="586" 
d="M75 513h243c129 0 195 -52 195 -128c0 -49 -33 -94 -83 -114v-1c76 -24 106 -62 106 -119c0 -98 -63 -151 -228 -151h-233v513zM165 436v-137h152c72 0 102 23 102 72c0 43 -32 65 -102 65h-152zM165 229v-152h151c91 0 126 28 126 76c0 47 -35 76 -125 76h-152z" />
    <glyph glyph-name="uni0433" unicode="&#x433;" horiz-adv-x="426" 
d="M401 436h-236v-436h-90v513h326v-77z" />
    <glyph glyph-name="uni0453" unicode="&#x453;" horiz-adv-x="426" 
d="M301 591h-79l74 145h106zM401 436h-236v-436h-90v513h326v-77z" />
    <glyph glyph-name="uni0491" unicode="&#x491;" horiz-adv-x="426" 
d="M401 650v-214h-236v-436h-90v513h242v137h84z" />
    <glyph glyph-name="uni0434" unicode="&#x434;" horiz-adv-x="591" 
d="M586 77v-214h-84v137h-418v-137h-84v214h62c44 37 68 163 90 436l352 -1v-435h82zM414 77v358h-179c-18 -194 -38 -298 -75 -358h254z" />
    <glyph glyph-name="uni0435" unicode="&#x435;" horiz-adv-x="584" 
d="M537 223h-402c12 -135 123 -151 189 -151c74 0 114 11 203 38v-87c-48 -17 -130 -35 -207 -35c-142 0 -275 76 -275 265c0 195 129 271 265 271c141 0 227 -93 227 -248v-53zM139 300h306c-3 77 -44 140 -137 140c-82 0 -160 -43 -169 -140z" />
    <glyph glyph-name="uni0450" unicode="&#x450;" horiz-adv-x="584" 
d="M267 591l-101 145h106l74 -145h-79zM537 223h-402c12 -135 123 -151 189 -151c74 0 114 11 203 38v-87c-48 -17 -130 -35 -207 -35c-142 0 -275 76 -275 265c0 195 129 271 265 271c141 0 227 -93 227 -248v-53zM139 300h306c-3 77 -44 140 -137 140
c-82 0 -160 -43 -169 -140z" />
    <glyph glyph-name="uni0451" unicode="&#x451;" horiz-adv-x="584" 
d="M252 588h-98v96h98v-96zM450 588h-98v96h98v-96zM537 223h-402c12 -135 123 -151 189 -151c74 0 114 11 203 38v-87c-48 -17 -130 -35 -207 -35c-142 0 -275 76 -275 265c0 195 129 271 265 271c141 0 227 -93 227 -248v-53zM139 300h306c-3 77 -44 140 -137 140
c-82 0 -160 -43 -169 -140z" />
    <glyph glyph-name="uni0436" unicode="&#x436;" horiz-adv-x="770" 
d="M770 0h-111c-46 67 -108 151 -166 222h-64v-222h-86v222h-66c-58 -71 -120 -155 -166 -222h-111c38 55 137 187 205 272c-59 83 -120 157 -196 241h114c73 -88 114 -146 165 -214h55v214h86v-214h53c51 68 92 126 165 214h114c-76 -84 -137 -158 -196 -241
c68 -85 167 -217 205 -272z" />
    <glyph glyph-name="uni0437" unicode="&#x437;" horiz-adv-x="519" 
d="M253 524c136 0 200 -62 200 -131c0 -55 -35 -102 -85 -122v-1c76 -24 101 -70 101 -124c0 -92 -63 -158 -225 -158c-79 0 -132 9 -192 30v89c65 -23 118 -37 194 -37c88 0 129 33 129 83c0 47 -35 76 -125 76h-144l1 70h143c72 0 109 23 109 72c0 45 -33 71 -110 71
c-57 0 -114 -11 -188 -35l-1 86c58 18 114 31 193 31z" />
    <glyph glyph-name="uni0438" unicode="&#x438;" horiz-adv-x="607" 
d="M163 513v-377l271 377h98v-513h-88v399l-290 -399h-79v513h88z" />
    <glyph glyph-name="uni0439" unicode="&#x439;" horiz-adv-x="607" 
d="M443 713h-59c-14 -40 -41 -55 -81 -55c-31 0 -53 14 -60 55h-84c6 -76 47 -120 133 -120c79 0 135 39 151 120zM163 513v-377l271 377h98v-513h-88v399l-290 -399h-79v513h88z" />
    <glyph glyph-name="uni045D" unicode="&#x45d;" horiz-adv-x="607" 
d="M348 591h-79l-101 145h106zM163 513v-377l271 377h98v-513h-88v399l-290 -399h-79v513h88z" />
    <glyph glyph-name="uni043A" unicode="&#x43a;" horiz-adv-x="559" 
d="M288 274c92 -85 223 -221 271 -274h-122c-60 64 -138 150 -213 222h-59v-222h-90v513h90v-214h42c62 67 113 122 215 214h127c-106 -84 -182 -159 -261 -239z" />
    <glyph glyph-name="uni045C" unicode="&#x45c;" horiz-adv-x="559" 
d="M319 591h-79l74 145h106zM288 274c92 -85 223 -221 271 -274h-122c-60 64 -138 150 -213 222h-59v-222h-90v513h90v-214h42c62 67 113 122 215 214h127c-106 -84 -182 -159 -261 -239z" />
    <glyph glyph-name="uni043B" unicode="&#x43b;" horiz-adv-x="547" 
d="M472 513h-344c-27 -334 -57 -448 -123 -448c-5 0 -8 0 -15 1l1 -77c10 -1 18 -1 24 -1c114 0 163 93 196 448h171v-436h90v513z" />
    <glyph glyph-name="uni043C" unicode="&#x43c;" horiz-adv-x="668" 
d="M474 513h94c24 -113 49 -251 85 -513h-93c-20 167 -36 308 -51 376c-57 -119 -80 -184 -139 -331h-72c-60 147 -86 218 -137 326c-16 -69 -36 -210 -52 -371h-94c37 258 63 397 89 513h91c56 -120 104 -248 139 -335c39 91 91 232 140 335z" />
    <glyph glyph-name="uni043D" unicode="&#x43d;" horiz-adv-x="607" 
d="M442 0v222h-277v-222h-90v513h90v-214h277v214h90v-513h-90z" />
    <glyph glyph-name="uni043E" unicode="&#x43e;" horiz-adv-x="640" 
d="M320 524c146 0 275 -92 275 -269c0 -180 -130 -267 -276 -267c-145 0 -274 88 -274 267c0 177 129 269 275 269zM320 440c-103 0 -181 -71 -181 -185c0 -96 57 -182 182 -182c123 0 180 86 180 182c0 114 -78 185 -181 185z" />
    <glyph glyph-name="uni043F" unicode="&#x43f;" horiz-adv-x="622" 
d="M547 0h-90v436h-292v-436h-90v513h472v-513z" />
    <glyph glyph-name="uni0440" unicode="&#x440;" horiz-adv-x="642" 
d="M339 524c145 0 258 -94 258 -262c0 -182 -134 -274 -270 -274c-66 0 -120 18 -162 42v-230h-90v713h66l13 -48c36 27 103 59 185 59zM315 72c124 0 187 84 187 187c0 101 -61 183 -180 183c-70 0 -123 -29 -157 -58v-266c34 -24 88 -46 150 -46z" />
    <glyph glyph-name="uni0441" unicode="&#x441;" horiz-adv-x="553" 
d="M327 524c82 0 115 -10 173 -31v-89c-72 27 -115 36 -163 36c-106 0 -198 -60 -198 -186c0 -94 71 -182 198 -182c75 0 106 13 171 34v-89c-60 -18 -99 -29 -179 -29c-155 0 -284 97 -284 268s128 268 282 268z" />
    <glyph glyph-name="uni0442" unicode="&#x442;" horiz-adv-x="534" 
d="M509 436h-197v-436h-90v436h-197v77h484v-77z" />
    <glyph glyph-name="uni0443" unicode="&#x443;" horiz-adv-x="541" 
d="M446 513h105c-76 -208 -195 -458 -343 -713h-104c42 75 82 143 120 213c-94 170 -170 331 -234 500h100c49 -134 112 -271 185 -404c57 112 112 237 171 404z" />
    <glyph glyph-name="uni045E" unicode="&#x45e;" horiz-adv-x="541" 
d="M259 593c-89 0 -134 46 -142 119h77c4 -31 24 -53 65 -53s61 22 65 53h77c-8 -73 -53 -119 -142 -119zM446 513h105c-76 -208 -195 -458 -343 -713h-104c42 75 82 143 120 213c-94 170 -170 331 -234 500h100c49 -134 112 -271 185 -404c57 112 112 237 171 404z" />
    <glyph glyph-name="uni0444" unicode="&#x444;" horiz-adv-x="806" 
d="M500 523c139 0 261 -86 261 -264c0 -188 -129 -271 -266 -271c-16 0 -32 1 -47 3v-191h-90v191c-15 -2 -31 -3 -47 -3c-137 0 -266 83 -266 271c0 178 122 264 261 264c19 0 37 -1 52 -2v170h90l-2 -171c16 2 34 3 54 3zM139 256c0 -119 75 -186 172 -186c18 0 34 0 49 2
v367c-13 1 -28 2 -45 2c-115 0 -176 -79 -176 -185zM495 70c97 0 172 67 172 186c0 106 -61 185 -176 185c-18 0 -33 -1 -47 -2v-367c16 -1 33 -2 51 -2z" />
    <glyph glyph-name="uni0445" unicode="&#x445;" horiz-adv-x="523" 
d="M323 252l201 -252h-117l-141 188l-150 -188h-119l208 252l-210 261h113l156 -198l150 198h114z" />
    <glyph glyph-name="uni0447" unicode="&#x447;" horiz-adv-x="568" 
d="M493 513v-513h-90v193c-42 -31 -102 -65 -168 -65c-125 0 -185 52 -185 220v165h90v-165c0 -103 29 -136 103 -136c67 0 117 32 160 66v235h90z" />
    <glyph glyph-name="uni0446" unicode="&#x446;" horiz-adv-x="624" 
d="M619 77v-214h-84v137h-460v513h90v-436h282v436h90v-436h82z" />
    <glyph glyph-name="uni0448" unicode="&#x448;" horiz-adv-x="852" 
d="M777 513v-513h-702v513h90v-436h218v436h86v-436h218v436h90z" />
    <glyph glyph-name="uni0449" unicode="&#x449;" horiz-adv-x="864" 
d="M859 77v-214h-84v137h-700v513h90v-436h218v436h86v-436h218v436h90v-436h82z" />
    <glyph glyph-name="uni045F" unicode="&#x45f;" horiz-adv-x="612" 
d="M537 0h-189v-137h-84v137h-189v513h90v-436h282v436h90v-513z" />
    <glyph glyph-name="uni044F" unicode="&#x44f;" horiz-adv-x="595" 
d="M520 513v-513h-90v172c-36 -6 -74 -10 -117 -11c-65 -56 -123 -113 -167 -160l-121 -1c12 13 88 92 173 168c-88 20 -141 76 -141 164c0 120 74 181 247 181h216zM285 241c48 0 98 2 145 9v185l-127 1c-113 1 -152 -34 -152 -101c0 -62 46 -94 134 -94z" />
    <glyph glyph-name="uni044C" unicode="&#x44c;" horiz-adv-x="572" 
d="M328 353c139 0 219 -63 219 -176c0 -127 -74 -189 -247 -189c-57 0 -125 4 -225 18v507h90v-198c44 20 99 38 163 38zM301 69c113 0 152 38 152 105c0 62 -46 95 -134 95c-54 0 -110 -15 -154 -38v-149c52 -9 85 -13 136 -13z" />
    <glyph glyph-name="uni044A" unicode="&#x44a;" horiz-adv-x="693" 
d="M449 353c139 0 219 -63 219 -176c0 -127 -74 -189 -247 -189c-57 0 -125 4 -225 18v430h-176v77h266v-198c44 20 99 38 163 38zM422 69c113 0 152 38 152 105c0 62 -46 95 -134 95c-54 0 -110 -15 -154 -38v-149c52 -9 85 -13 136 -13z" />
    <glyph glyph-name="uni044B" unicode="&#x44b;" horiz-adv-x="801" 
d="M325 353c132 0 212 -63 212 -176c0 -124 -74 -189 -240 -189c-54 0 -122 4 -222 18v507h90v-198c44 20 99 38 160 38zM726 0h-90v513h90v-513zM298 69c106 0 145 38 145 105c0 62 -46 95 -127 95c-51 0 -107 -15 -151 -38v-149c52 -9 85 -13 133 -13z" />
    <glyph glyph-name="uni0459" unicode="&#x459;" horiz-adv-x="859" 
d="M622 353c133 0 212 -63 212 -176c0 -127 -82 -189 -242 -189c-50 0 -118 4 -218 18v430h-165c-33 -355 -80 -448 -194 -448c-6 0 -14 0 -24 1l-1 77c7 -1 10 -1 15 -1c66 0 96 114 123 448h336v-198c44 20 99 38 158 38zM593 69c103 0 147 38 147 105
c0 62 -45 95 -127 95c-49 0 -105 -15 -149 -38v-149c52 -9 85 -13 129 -13z" />
    <glyph glyph-name="uni045A" unicode="&#x45a;" horiz-adv-x="917" 
d="M680 353c133 0 212 -63 212 -176c0 -127 -73 -189 -240 -189c-52 0 -118 4 -220 18v216h-267v-222h-90v513h90v-214h267v214h90v-198c44 20 99 38 158 38zM653 69c107 0 145 38 145 105c0 62 -45 95 -127 95c-49 0 -105 -15 -149 -38v-149c52 -9 85 -13 131 -13z" />
    <glyph glyph-name="uni0455" unicode="&#x455;" horiz-adv-x="513" 
d="M262 524c76 0 142 -13 190 -27v-87c-54 18 -123 31 -188 31c-57 0 -127 -3 -127 -63c0 -28 25 -47 74 -58l114 -26c82 -19 148 -48 148 -151c0 -122 -100 -155 -239 -155c-61 0 -140 13 -194 28v87c36 -11 120 -32 195 -32c70 0 147 9 147 73c0 38 -31 53 -71 63l-150 36
c-75 18 -116 72 -116 131c0 131 119 150 217 150z" />
    <glyph glyph-name="uni044D" unicode="&#x44d;" horiz-adv-x="528" 
d="M234 523c152 0 249 -91 249 -262c0 -173 -99 -273 -251 -273c-77 0 -131 9 -191 28v91c65 -21 111 -35 183 -35c108 0 153 69 163 150h-259v77h259c-12 98 -68 140 -163 140c-51 0 -102 -11 -176 -34l-1 88c58 18 112 30 187 30z" />
    <glyph glyph-name="uni0454" unicode="&#x454;" horiz-adv-x="528" 
d="M304 72c72 0 118 14 183 35v-91c-60 -19 -114 -28 -191 -28c-166 0 -251 100 -251 273c0 171 97 262 249 262c75 0 129 -11 187 -28l-1 -88c-74 22 -125 32 -176 32c-95 0 -151 -42 -163 -140h259v-77h-259c9 -81 50 -150 163 -150z" />
    <glyph glyph-name="uni0457" unicode="&#x457;" horiz-adv-x="240" 
d="M70 588h-98v96h98v-96zM268 588h-98v96h98v-96zM165 0h-90v513h90v-513z" />
    <glyph glyph-name="uni0456" unicode="&#x456;" horiz-adv-x="240" 
d="M171 588h-102v92h102v-92zM165 0h-90v513h90v-513z" />
    <glyph glyph-name="uni0458" unicode="&#x458;" horiz-adv-x="229" 
d="M160 588h-102v92h102v-92zM153 513v-570c0 -126 -80 -155 -174 -155c-17 0 -41 3 -85 13v79c43 -11 74 -12 89 -12c51 0 80 19 80 76v569h90z" />
    <glyph glyph-name="uni045B" unicode="&#x45b;" horiz-adv-x="645" 
d="M367 524c129 0 203 -44 203 -200v-324h-90v308c0 91 -24 130 -133 130c-69 0 -143 -34 -182 -64v-374h-90v565h-110v77h110v49h90v-49h142v-77h-142v-104c40 26 122 63 202 63z" />
    <glyph glyph-name="uni044E" unicode="&#x44e;" horiz-adv-x="832" 
d="M522 524c138 0 265 -92 265 -269c0 -180 -128 -267 -266 -267c-128 0 -248 77 -262 234h-94v-222h-90v513h90v-214h95c19 148 136 225 262 225zM523 72c115 0 170 87 170 183c0 114 -76 185 -171 185s-171 -71 -171 -185c0 -96 55 -183 172 -183z" />
    <glyph glyph-name="uni0452" unicode="&#x452;" horiz-adv-x="645" 
d="M367 524c129 0 203 -44 203 -200v-381c0 -126 -80 -155 -174 -155c-17 0 -41 3 -85 13v79c43 -11 74 -12 89 -12c51 0 80 19 80 76v364c0 91 -24 130 -133 130c-69 0 -143 -34 -182 -64v-374h-90v565h-110v77h110v49h90v-49h142v-77h-142v-104c40 26 122 63 202 63z" />
    <glyph glyph-name="uni0493" unicode="&#x493;" horiz-adv-x="436" 
d="M175 436v-143h142v-77h-142v-216h-90v216h-90v77h90v220h326v-77h-236z" />
    <glyph glyph-name="uni0497" unicode="&#x497;" horiz-adv-x="782" 
d="M802 77v-214h-84v137h-59c-46 67 -108 151 -166 222h-64v-222h-86v222h-66c-58 -71 -120 -155 -166 -222h-111c38 55 137 187 205 272c-59 83 -120 157 -196 241h114c73 -88 114 -146 165 -214h55v214h86v-214h53c51 68 92 126 165 214h114c-76 -84 -137 -158 -196 -241
c45 -56 104 -133 149 -195h88z" />
    <glyph glyph-name="uni049B" unicode="&#x49b;" horiz-adv-x="559" 
d="M569 77v-214h-84v137h-48c-60 64 -138 150 -213 222h-59v-222h-90v513h90v-214h42c62 67 113 122 215 214h127c-106 -84 -182 -159 -261 -239c61 -56 139 -135 199 -197h82z" />
    <glyph glyph-name="uni04A3" unicode="&#x4a3;" horiz-adv-x="619" 
d="M614 77v-214h-84v137h-88v222h-277v-222h-90v513h90v-214h277v214h90v-436h82z" />
    <glyph glyph-name="uni04B3" unicode="&#x4b3;" horiz-adv-x="523" 
d="M542 77v-214h-84v137h-51l-141 188l-150 -188h-119l208 252l-210 261h113l156 -198l150 198h114l-205 -261l140 -175h79z" />
    <glyph glyph-name="uni04BB" unicode="&#x4bb;" horiz-adv-x="645" 
d="M367 514c129 0 203 -44 203 -200v-314h-90v298c0 91 -24 130 -133 130c-69 0 -145 -34 -182 -64v-364h-90v691h90v-240c41 27 122 63 202 63z" />
    <glyph glyph-name="uni04D9" unicode="&#x4d9;" horiz-adv-x="580" 
d="M275 523c157 0 260 -86 260 -261c0 -197 -115 -274 -257 -274c-146 0 -235 92 -235 247v52h398v6c-2 96 -68 146 -171 146c-71 0 -124 -11 -223 -44v90c48 16 145 38 228 38zM277 72c82 0 138 30 160 138h-303c11 -84 57 -138 143 -138z" />
    <glyph glyph-name="Kanji" unicode="&#x5186;" horiz-adv-x="804" 
d="M724 650v-522c0 -117 -88 -140 -154 -140c-24 0 -48 1 -77 3v84c5 0 23 -1 54 -1c53 0 83 11 83 57v135h-456l-1 -266h-93v650h644zM174 564v-212h184v212h-184zM446 564v-212h184v212h-184z" />
    <glyph glyph-name="uni5143" unicode="&#x5143;" horiz-adv-x="831" 
d="M714 564h-649v86h649v-86zM749 361h-208v-232c0 -39 16 -52 62 -52c51 0 62 36 90 102l81 -46c-25 -61 -58 -145 -171 -145c-107 0 -156 34 -156 122v251h-118v-51c0 -141 -72 -203 -242 -322l-58 79c152 111 206 132 206 252v42h-204v86h718v-86z" />
    <glyph glyph-name="fraction" unicode="&#x2044;" horiz-adv-x="174" 
d="M-31 0h-99l337 650h97z" />
    <glyph glyph-name="onehalf" unicode="&#xbd;" horiz-adv-x="896" 
d="M204 284v284l-104 -24v62l171 46v-368h-67zM319 0h-99l337 650h97zM698 369c-37 0 -79 -8 -122 -23v-66c40 14 88 24 115 24c47 0 68 -19 68 -49c0 -52 -70 -120 -194 -204v-52h273v62h-156c89 53 148 125 148 195c0 74 -44 113 -132 113z" />
    <glyph glyph-name="onequarter" unicode="&#xbc;" horiz-adv-x="869" 
d="M204 284v284l-104 -24v62l171 46v-368h-67zM319 0h-99l337 650h97zM838 84h-59v-84h-65v84h-211v49c55 87 96 145 166 227h86c-84 -93 -114 -133 -168 -214h127v107h65v-107h59v-62z" />
    <glyph glyph-name="threequarters" unicode="&#xbe;" horiz-adv-x="872" 
d="M330 595l-102 -86c77 -6 123 -38 123 -104c0 -86 -70 -124 -165 -124c-36 0 -79 6 -121 17v66c44 -12 89 -18 119 -18c65 0 96 20 96 57c0 42 -48 50 -117 50h-39v44l97 91h-154v62h263v-55zM223 0h99l335 650h-97zM841 84h-59v-84h-65v84h-211v49c55 87 96 145 166 227
h86c-84 -93 -114 -133 -168 -214h127v107h65v-107h59v-62z" />
    <glyph glyph-name="oneeighth" unicode="&#x215b;" horiz-adv-x="913" 
d="M204 284v284l-104 -24v62l171 46v-368h-67zM319 0h-99l337 650h97zM713 370c72 0 134 -33 134 -102c0 -32 -23 -60 -51 -76c36 -16 65 -46 65 -89c0 -69 -58 -112 -147 -112c-90 0 -149 43 -149 112c0 43 30 73 65 89c-29 18 -51 44 -51 76c0 67 62 102 134 102zM713 310
c-41 0 -64 -18 -64 -48c0 -25 23 -46 64 -46c38 0 64 21 64 46c0 31 -26 48 -64 48zM714 161c-53 0 -79 -26 -79 -57s33 -50 79 -50c45 0 77 19 77 50c0 30 -24 57 -77 57z" />
    <glyph glyph-name="threeeighths" unicode="&#x215c;" horiz-adv-x="915" 
d="M330 595l-102 -86c77 -6 123 -38 123 -104c0 -86 -70 -124 -165 -124c-36 0 -79 6 -121 17v66c44 -12 89 -18 119 -18c65 0 96 20 96 57c0 42 -48 50 -117 50h-39v44l97 91h-154v62h263v-55zM223 0h99l335 650h-97zM715 370c72 0 134 -33 134 -102c0 -32 -23 -60 -51 -76
c36 -16 65 -46 65 -89c0 -69 -58 -112 -147 -112c-90 0 -149 43 -149 112c0 43 30 73 65 89c-29 18 -51 44 -51 76c0 67 62 102 134 102zM715 310c-41 0 -64 -18 -64 -48c0 -25 23 -46 64 -46c38 0 64 21 64 46c0 31 -26 48 -64 48zM716 161c-53 0 -79 -26 -79 -57
s33 -50 79 -50c45 0 77 19 77 50c0 30 -24 57 -77 57z" />
    <glyph glyph-name="fiveeighths" unicode="&#x215d;" horiz-adv-x="915" 
d="M317 588h-166l-7 -68c14 4 45 7 67 7c84 0 134 -43 134 -118c0 -71 -53 -128 -155 -128c-43 0 -83 6 -127 18v66c65 -17 91 -19 124 -19c53 0 87 25 87 62c0 36 -28 54 -83 54c-37 0 -81 -9 -122 -21l22 209h226v-62zM224 0h99l335 650h-97zM715 370
c72 0 134 -33 134 -102c0 -32 -23 -60 -51 -76c36 -16 65 -46 65 -89c0 -69 -58 -112 -147 -112c-90 0 -149 43 -149 112c0 43 30 73 65 89c-29 18 -51 44 -51 76c0 67 62 102 134 102zM715 310c-41 0 -64 -18 -64 -48c0 -25 23 -46 64 -46c38 0 64 21 64 46
c0 31 -26 48 -64 48zM716 161c-53 0 -79 -26 -79 -57s33 -50 79 -50c45 0 77 19 77 50c0 30 -24 57 -77 57z" />
    <glyph glyph-name="seveneighths" unicode="&#x215e;" horiz-adv-x="873" 
d="M352 650v-43c-74 -108 -132 -206 -173 -317h-77c39 105 89 203 152 298h-193v62h291zM182 0h99l335 650h-97zM673 370c72 0 134 -33 134 -102c0 -32 -23 -60 -51 -76c36 -16 65 -46 65 -89c0 -69 -58 -112 -147 -112c-90 0 -149 43 -149 112c0 43 30 73 65 89
c-29 18 -51 44 -51 76c0 67 62 102 134 102zM673 310c-41 0 -64 -18 -64 -48c0 -25 23 -46 64 -46c38 0 64 21 64 46c0 31 -26 48 -64 48zM674 161c-53 0 -79 -26 -79 -57s33 -50 79 -50c45 0 77 19 77 50c0 30 -24 57 -77 57z" />
    <glyph glyph-name="zero.dnom" 
d="M201 370c104 0 167 -80 167 -193c0 -109 -67 -186 -167 -186c-103 0 -169 77 -169 186c0 113 62 193 169 193zM199 305c-51 0 -96 -39 -96 -128c0 -84 46 -121 98 -121c46 0 96 37 96 121c0 89 -45 128 -98 128z" />
    <glyph glyph-name="one.dnom" 
d="M204 0v284l-104 -24v62l171 46v-368h-67z" />
    <glyph glyph-name="two.dnom" 
d="M202 369c-37 0 -79 -8 -122 -23v-66c40 14 88 24 115 24c47 0 68 -19 68 -49c0 -52 -70 -120 -194 -204v-52h273v62h-156c89 53 148 125 148 195c0 74 -44 113 -132 113z" />
    <glyph glyph-name="three.dnom" 
d="M330 305l-102 -86c77 -6 123 -38 123 -104c0 -86 -70 -124 -165 -124c-36 0 -79 6 -121 17v66c44 -12 89 -18 119 -18c65 0 96 20 96 57c0 42 -48 50 -117 50h-39v44l97 91h-154v62h263v-55z" />
    <glyph glyph-name="four.dnom" 
d="M369 84h-59v-84h-65v84h-211v49c55 87 96 145 166 227h86c-84 -93 -114 -133 -168 -214h127v107h65v-107h59v-62z" />
    <glyph glyph-name="five.dnom" 
d="M317 298h-166l-7 -68c14 4 45 7 67 7c84 0 134 -43 134 -118c0 -71 -53 -128 -155 -128c-43 0 -83 6 -127 18v66c65 -17 91 -19 124 -19c53 0 87 25 87 62c0 36 -28 54 -83 54c-37 0 -81 -9 -122 -21l22 209h226v-62z" />
    <glyph glyph-name="six.dnom" 
d="M307 370v-66c-73 -5 -133 -31 -162 -73c22 16 56 21 78 21c71 0 122 -44 122 -125c0 -68 -50 -136 -146 -136c-93 0 -145 54 -145 152c0 117 80 207 253 227zM202 189c-46 0 -77 -29 -77 -64c0 -43 28 -69 76 -69c46 0 73 30 73 70c0 36 -28 63 -72 63z" />
    <glyph glyph-name="seven.dnom" 
d="M352 360v-43c-74 -108 -132 -206 -173 -317h-77c39 105 89 203 152 298h-193v62h291z" />
    <glyph glyph-name="eight.dnom" 
d="M200 370c72 0 134 -33 134 -102c0 -32 -23 -60 -51 -76c36 -16 65 -46 65 -89c0 -69 -58 -112 -147 -112c-90 0 -149 43 -149 112c0 43 30 73 65 89c-29 18 -51 44 -51 76c0 67 62 102 134 102zM200 310c-41 0 -64 -18 -64 -48c0 -25 23 -46 64 -46c38 0 64 21 64 46
c0 31 -26 48 -64 48zM201 161c-53 0 -79 -26 -79 -57s33 -50 79 -50c45 0 77 19 77 50c0 30 -24 57 -77 57z" />
    <glyph glyph-name="nine.dnom" 
d="M94 -9v69c77 4 133 30 162 72c-22 -16 -56 -22 -78 -22c-71 0 -122 45 -122 125c0 68 50 135 146 135c92 0 145 -55 145 -151c0 -120 -80 -208 -253 -228zM199 169c46 0 77 30 77 67c0 43 -28 69 -76 69c-46 0 -73 -29 -73 -70c0 -38 28 -66 72 -66z" />
    <glyph glyph-name="zero.numr" 
d="M201 660c104 0 167 -80 167 -193c0 -109 -67 -186 -167 -186c-103 0 -169 77 -169 186c0 113 62 193 169 193zM199 595c-51 0 -96 -39 -96 -128c0 -84 46 -121 98 -121c46 0 96 37 96 121c0 89 -45 128 -98 128z" />
    <glyph glyph-name="one.numr" 
d="M204 290v284l-104 -24v62l171 46v-368h-67z" />
    <glyph glyph-name="two.numr" 
d="M202 659c-37 0 -79 -8 -122 -23v-66c40 14 88 24 115 24c47 0 68 -19 68 -49c0 -52 -70 -120 -194 -204v-52h273v62h-156c89 53 148 125 148 195c0 74 -44 113 -132 113z" />
    <glyph glyph-name="three.numr" 
d="M330 595l-102 -86c77 -6 123 -38 123 -104c0 -86 -70 -124 -165 -124c-36 0 -79 6 -121 17v66c44 -12 89 -18 119 -18c65 0 96 20 96 57c0 42 -48 50 -117 50h-39v44l97 91h-154v62h263v-55z" />
    <glyph glyph-name="four.numr" 
d="M369 374h-59v-84h-65v84h-211v49c55 87 96 145 166 227h86c-84 -93 -114 -133 -168 -214h127v107h65v-107h59v-62z" />
    <glyph glyph-name="five.numr" 
d="M317 588h-166l-7 -68c14 4 45 7 67 7c84 0 134 -43 134 -118c0 -71 -53 -128 -155 -128c-43 0 -83 6 -127 18v66c65 -17 91 -19 124 -19c53 0 87 25 87 62c0 36 -28 54 -83 54c-37 0 -81 -9 -122 -21l22 209h226v-62z" />
    <glyph glyph-name="six.numr" 
d="M307 660v-66c-73 -5 -133 -31 -162 -73c22 16 56 21 78 21c71 0 122 -44 122 -125c0 -68 -50 -136 -146 -136c-93 0 -145 54 -145 152c0 117 80 207 253 227zM202 479c-46 0 -77 -29 -77 -64c0 -43 28 -69 76 -69c46 0 73 30 73 70c0 36 -28 63 -72 63z" />
    <glyph glyph-name="seven.numr" 
d="M352 650v-43c-74 -108 -132 -206 -173 -317h-77c39 105 89 203 152 298h-193v62h291z" />
    <glyph glyph-name="eight.numr" 
d="M200 660c72 0 134 -33 134 -102c0 -32 -23 -60 -51 -76c36 -16 65 -46 65 -89c0 -69 -58 -112 -147 -112c-90 0 -149 43 -149 112c0 43 30 73 65 89c-29 18 -51 44 -51 76c0 67 62 102 134 102zM200 600c-41 0 -64 -18 -64 -48c0 -25 23 -46 64 -46c38 0 64 21 64 46
c0 31 -26 48 -64 48zM201 451c-53 0 -79 -26 -79 -57s33 -50 79 -50c45 0 77 19 77 50c0 30 -24 57 -77 57z" />
    <glyph glyph-name="nine.numr" 
d="M94 281v69c77 4 133 30 162 72c-22 -16 -56 -22 -78 -22c-71 0 -122 45 -122 125c0 68 50 135 146 135c92 0 145 -55 145 -151c0 -120 -80 -208 -253 -228zM199 459c46 0 77 30 77 67c0 43 -28 69 -76 69c-46 0 -73 -29 -73 -70c0 -38 28 -66 72 -66z" />
    <glyph glyph-name="zeroinferior" unicode="&#x2080;" 
d="M201 270c104 0 167 -80 167 -193c0 -109 -67 -186 -167 -186c-103 0 -169 77 -169 186c0 113 62 193 169 193zM199 205c-51 0 -96 -39 -96 -128c0 -84 46 -121 98 -121c46 0 96 37 96 121c0 89 -45 128 -98 128z" />
    <glyph glyph-name="oneinferior" unicode="&#x2081;" 
d="M204 -100v284l-104 -24v62l171 46v-368h-67z" />
    <glyph glyph-name="twoinferior" unicode="&#x2082;" 
d="M202 269c-37 0 -79 -8 -122 -23v-66c40 14 88 24 115 24c47 0 68 -19 68 -49c0 -52 -70 -120 -194 -204v-52h273v62h-156c89 53 148 125 148 195c0 74 -44 113 -132 113z" />
    <glyph glyph-name="threeinferior" unicode="&#x2083;" 
d="M327 205l-102 -86c77 -6 123 -38 123 -104c0 -86 -70 -124 -165 -124c-36 0 -79 6 -121 17v66c44 -12 89 -18 119 -18c65 0 96 20 96 57c0 42 -48 50 -117 50h-39v44l97 91h-154v62h263v-55z" />
    <glyph glyph-name="fourinferior" unicode="&#x2084;" 
d="M369 -16h-59v-84h-65v84h-211v49c55 87 96 145 166 227h86c-84 -93 -114 -133 -168 -214h127v107h65v-107h59v-62z" />
    <glyph glyph-name="fiveinferior" unicode="&#x2085;" 
d="M317 198h-166l-7 -68c14 4 45 7 67 7c84 0 134 -43 134 -118c0 -71 -53 -128 -155 -128c-43 0 -83 6 -127 18v66c65 -17 91 -19 124 -19c53 0 87 25 87 62c0 36 -28 54 -83 54c-37 0 -81 -9 -122 -21l22 209h226v-62z" />
    <glyph glyph-name="sixinferior" unicode="&#x2086;" 
d="M307 270v-66c-73 -5 -133 -31 -162 -73c22 16 56 21 78 21c71 0 122 -44 122 -125c0 -68 -50 -136 -146 -136c-93 0 -145 54 -145 152c0 117 80 207 253 227zM202 89c-46 0 -77 -29 -77 -64c0 -43 28 -69 76 -69c46 0 73 30 73 70c0 36 -28 63 -72 63z" />
    <glyph glyph-name="seveninferior" unicode="&#x2087;" 
d="M352 260v-43c-74 -108 -132 -206 -173 -317h-77c39 105 89 203 152 298h-193v62h291z" />
    <glyph glyph-name="eightinferior" unicode="&#x2088;" 
d="M200 270c72 0 134 -33 134 -102c0 -32 -23 -60 -51 -76c36 -16 65 -46 65 -89c0 -69 -58 -112 -147 -112c-90 0 -149 43 -149 112c0 43 30 73 65 89c-29 18 -51 44 -51 76c0 67 62 102 134 102zM200 210c-41 0 -64 -18 -64 -48c0 -25 23 -46 64 -46c38 0 64 21 64 46
c0 31 -26 48 -64 48zM201 61c-53 0 -79 -26 -79 -57s33 -50 79 -50c45 0 77 19 77 50c0 30 -24 57 -77 57z" />
    <glyph glyph-name="nineinferior" unicode="&#x2089;" 
d="M94 -109v69c77 4 133 30 162 72c-22 -16 -56 -22 -78 -22c-71 0 -122 45 -122 125c0 68 50 135 146 135c92 0 145 -55 145 -151c0 -120 -80 -208 -253 -228zM199 69c46 0 77 30 77 67c0 43 -28 69 -76 69c-46 0 -73 -29 -73 -70c0 -38 28 -66 72 -66z" />
    <glyph glyph-name="zerosuperior" unicode="&#x2070;" 
d="M201 754c104 0 167 -80 167 -193c0 -109 -67 -186 -167 -186c-103 0 -169 77 -169 186c0 113 62 193 169 193zM199 689c-51 0 -96 -39 -96 -128c0 -84 46 -121 98 -121c46 0 96 37 96 121c0 89 -45 128 -98 128z" />
    <glyph glyph-name="onesuperior" unicode="&#xb9;" 
d="M204 384v284l-104 -24v62l171 46v-368h-67z" />
    <glyph glyph-name="twosuperior" unicode="&#xb2;" 
d="M202 753c-37 0 -79 -8 -122 -23v-66c40 14 88 24 115 24c47 0 68 -19 68 -49c0 -52 -70 -120 -194 -204v-52h273v62h-156c89 53 148 125 148 195c0 74 -44 113 -132 113z" />
    <glyph glyph-name="threesuperior" unicode="&#xb3;" 
d="M330 689l-102 -86c77 -6 123 -38 123 -104c0 -86 -70 -124 -165 -124c-36 0 -79 6 -121 17v66c44 -12 89 -18 119 -18c65 0 96 20 96 57c0 42 -48 50 -117 50h-39v44l97 91h-154v62h263v-55z" />
    <glyph glyph-name="foursuperior" unicode="&#x2074;" 
d="M369 468h-59v-84h-65v84h-211v49c55 87 96 145 166 227h86c-84 -93 -114 -133 -168 -214h127v107h65v-107h59v-62z" />
    <glyph glyph-name="fivesuperior" unicode="&#x2075;" 
d="M317 682h-166l-7 -68c14 4 45 7 67 7c84 0 134 -43 134 -118c0 -71 -53 -128 -155 -128c-43 0 -83 6 -127 18v66c65 -17 91 -19 124 -19c53 0 87 25 87 62c0 36 -28 54 -83 54c-37 0 -81 -9 -122 -21l22 209h226v-62z" />
    <glyph glyph-name="sixsuperior" unicode="&#x2076;" 
d="M307 754v-66c-73 -5 -133 -31 -162 -73c22 16 56 21 78 21c71 0 122 -44 122 -125c0 -68 -50 -136 -146 -136c-93 0 -145 54 -145 152c0 117 80 207 253 227zM202 573c-46 0 -77 -29 -77 -64c0 -43 28 -69 76 -69c46 0 73 30 73 70c0 36 -28 63 -72 63z" />
    <glyph glyph-name="sevensuperior" unicode="&#x2077;" 
d="M352 744v-43c-74 -108 -132 -206 -173 -317h-77c39 105 89 203 152 298h-193v62h291z" />
    <glyph glyph-name="eightsuperior" unicode="&#x2078;" 
d="M200 754c72 0 134 -33 134 -102c0 -32 -23 -60 -51 -76c36 -16 65 -46 65 -89c0 -69 -58 -112 -147 -112c-90 0 -149 43 -149 112c0 43 30 73 65 89c-29 18 -51 44 -51 76c0 67 62 102 134 102zM200 694c-41 0 -64 -18 -64 -48c0 -25 23 -46 64 -46c38 0 64 21 64 46
c0 31 -26 48 -64 48zM201 545c-53 0 -79 -26 -79 -57s33 -50 79 -50c45 0 77 19 77 50c0 30 -24 57 -77 57z" />
    <glyph glyph-name="ninesuperior" unicode="&#x2079;" 
d="M94 375v69c77 4 133 30 162 72c-22 -16 -56 -22 -78 -22c-71 0 -122 45 -122 125c0 68 50 135 146 135c92 0 145 -55 145 -151c0 -120 -80 -208 -253 -228zM199 553c46 0 77 30 77 67c0 43 -28 69 -76 69c-46 0 -73 -29 -73 -70c0 -38 28 -66 72 -66z" />
    <glyph glyph-name="periodcentered" unicode="&#xb7;" horiz-adv-x="200" 
d="M150 257h-100v97h100v-97z" />
    <glyph glyph-name="bullet" unicode="&#x2022;" horiz-adv-x="280" 
d="M230 219h-180v175h180v-175z" />
    <glyph glyph-name="ellipsis" unicode="&#x2026;" horiz-adv-x="600" 
d="M150 0h-100v97h100v-97zM350 0h-100v97h100v-97zM550 0h-100v97h100v-97z" />
    <glyph glyph-name="exclamdbl" unicode="&#x203c;" 
d="M150 650l-12 -473h-74l-12 473h98zM350 650l-12 -473h-74l-12 473h98zM150 0h-100v97h100v-97zM350 0h-100v97h100v-97z" />
    <glyph glyph-name="exclamdown" unicode="&#xa1;" horiz-adv-x="200" 
d="M50 416v97h100v-97h-100zM64 336h74l12 -473h-98z" />
    <glyph glyph-name="overline" unicode="&#x203e;" horiz-adv-x="500" 
d="M500 665h-500v85h500v-85z" />
    <glyph glyph-name="questiondown" unicode="&#xbf;" horiz-adv-x="555" 
d="M284 513h100v-97h-100v97zM303 -149c-149 0 -270 43 -270 177c0 193 255 129 255 297v30h88v-41c0 -185 -253 -181 -253 -284c0 -71 75 -94 182 -94c94 0 168 28 216 47v-89c-46 -17 -125 -43 -218 -43z" />
    <glyph glyph-name="underscoredbl" unicode="&#x2017;" horiz-adv-x="500" 
d="M500 -190h-500v85h500v-85zM500 -300h-500v85h500v-85z" />
    <glyph glyph-name="uni208D" unicode="&#x208d;" horiz-adv-x="165" 
d="M106 302h76c-49 -87 -83 -148 -83 -247c0 -106 35 -160 86 -247h-77c-48 85 -78 157 -78 249c0 91 28 161 76 245z" />
    <glyph glyph-name="parenleftsuperior" unicode="&#x207d;" horiz-adv-x="165" 
d="M106 792h76c-49 -87 -83 -148 -83 -247c0 -106 35 -160 86 -247h-77c-48 85 -78 157 -78 249c0 91 28 161 76 245z" />
    <glyph glyph-name="uni208E" unicode="&#x208e;" horiz-adv-x="165" 
d="M-17 302h76c48 -84 76 -154 76 -245c0 -92 -30 -164 -78 -249h-77c51 87 86 141 86 247c0 99 -34 160 -83 247z" />
    <glyph glyph-name="parenrightsuperior" unicode="&#x207e;" horiz-adv-x="165" 
d="M-17 792h76c48 -84 76 -154 76 -245c0 -92 -30 -164 -78 -249h-77c51 87 86 141 86 247c0 99 -34 160 -83 247z" />
    <glyph glyph-name="emdash" unicode="&#x2014;" horiz-adv-x="810" 
d="M770 263h-730v85h730v-85z" />
    <glyph glyph-name="endash" unicode="&#x2013;" horiz-adv-x="510" 
d="M470 348v-85h-430v85h430z" />
    <glyph glyph-name="uni2015" unicode="&#x2015;" horiz-adv-x="810" 
d="M770 263h-730v85h730v-85z" />
    <glyph glyph-name="hyphentwo" unicode="&#x2010;" horiz-adv-x="410" 
d="M370 262h-330v85h330v-85z" />
    <glyph glyph-name="softhyphen" unicode="&#xad;" horiz-adv-x="410" 
d="M370 262h-330v85h330v-85z" />
    <glyph glyph-name="guillemotleft" unicode="&#xab;" horiz-adv-x="509" 
d="M149 266l98 -192h-75l-107 197l107 192h74zM346 266l98 -192h-75l-107 197l106 192h75z" />
    <glyph glyph-name="guillemotright" unicode="&#xbb;" horiz-adv-x="509" 
d="M247 271l-107 -197h-75l98 192l-97 197h75zM444 271l-107 -197h-75l98 192l-97 197h74z" />
    <glyph glyph-name="guilsinglleft" unicode="&#x2039;" horiz-adv-x="312" 
d="M149 266l98 -192h-75l-107 197l107 192h74z" />
    <glyph glyph-name="guilsinglright" unicode="&#x203a;" horiz-adv-x="312" 
d="M247 271l-107 -197h-75l98 192l-97 197h74z" />
    <glyph glyph-name="quotedblbase" unicode="&#x201e;" horiz-adv-x="302" 
d="M69 -90h-69l51 187h86zM209 -90h-69l51 187h86z" />
    <glyph glyph-name="quotedblleft" unicode="&#x201c;" horiz-adv-x="302" 
d="M111 475h-86l68 187h69zM251 475h-86l68 187h69z" />
    <glyph glyph-name="quotedblright" unicode="&#x201d;" horiz-adv-x="302" 
d="M69 475h-69l51 187h86zM209 475h-69l51 187h86z" />
    <glyph glyph-name="quoteleft" unicode="&#x2018;" horiz-adv-x="162" 
d="M93 662h69l-51 -187h-86z" />
    <glyph glyph-name="quotereversed" unicode="&#x201b;" horiz-adv-x="162" 
d="M111 662l51 -187h-69l-68 187h86z" />
    <glyph glyph-name="quoteright" unicode="&#x2019;" horiz-adv-x="162" 
d="M69 475h-69l51 187h86z" />
    <glyph glyph-name="quotesinglbase" unicode="&#x201a;" horiz-adv-x="162" 
d="M69 -90h-69l51 187h86z" />
    <glyph glyph-name="uni00A0" unicode="&#xa0;" horiz-adv-x="251" 
 />
    <glyph glyph-name="uni20BD" unicode="&#x20bd;" horiz-adv-x="627" 
d="M174 252v-73h196v-86h-196v-93h-94v93h-80v86h80v73h-80v86h80v312h257c85 0 240 -29 240 -185c0 -172 -127 -213 -236 -213h-167zM174 338h147c66 0 156 11 156 125c0 81 -68 101 -151 101h-152v-226z" />
    <glyph glyph-name="cent" unicode="&#xa2;" horiz-adv-x="553" 
d="M508 170v-89c-53 -16 -90 -26 -153 -29v-82h-88v87c-126 23 -222 115 -222 263s96 241 222 263v98h88v-93c62 -3 94 -13 145 -31v-89c-72 27 -115 36 -163 36c-106 0 -198 -60 -198 -186c0 -94 71 -182 198 -182c75 0 106 13 171 34z" />
    <glyph glyph-name="currency" unicode="&#xa4;" horiz-adv-x="600" 
d="M527 520l-64 -65c28 -41 42 -83 42 -124c0 -43 -14 -84 -42 -125l64 -64l-47 -47l-65 63c-39 -27 -81 -41 -124 -41c-44 0 -86 14 -125 41l-65 -63l-47 47l63 65c-27 39 -41 81 -41 125c0 43 14 85 41 124l-64 64l47 47l65 -63c39 27 80 40 123 40c45 0 87 -13 128 -40
l64 63zM291 473c-79 0 -143 -63 -143 -142s64 -142 143 -142s142 63 142 142s-63 142 -142 142z" />
    <glyph glyph-name="Euro" unicode="&#x20ac;" horiz-adv-x="740" 
d="M479 74c79 0 124 11 211 46v-92c-41 -16 -111 -40 -218 -40c-159 0 -285 66 -321 228h-131l30 77h91l-1 26c0 9 0 18 1 27h-101l30 77h80c33 164 149 239 324 239c70 0 158 -19 211 -44v-94c-67 34 -138 52 -213 52c-115 0 -192 -52 -222 -153h269l-30 -77h-251l-1 -26
c0 -9 0 -18 1 -27h261l-30 -77h-216c34 -100 121 -142 226 -142z" />
    <glyph glyph-name="florin" unicode="&#x192;" horiz-adv-x="426" 
d="M320 576c-45 0 -63 -22 -71 -79l-7 -45h151l-11 -77h-151l-47 -347c-16 -116 -70 -155 -164 -155c-20 0 -50 2 -95 12l12 85c43 -9 64 -11 89 -11c45 0 63 22 71 79l46 337h-110l11 77h110l8 55c16 116 70 155 164 155c20 0 50 -2 95 -12l-12 -85c-43 9 -64 11 -89 11z
" />
    <glyph glyph-name="franc" unicode="&#x20a3;" horiz-adv-x="571" 
d="M174 564v-174h327v-86h-327v-94h196v-86h-196v-124h-94v124h-80v86h80v440h446v-86h-352z" />
    <glyph glyph-name="lira" unicode="&#x20a4;" horiz-adv-x="554" 
d="M544 0h-464v62c49 43 80 76 80 168v11h-90v77h90v48h-90v77h90v54c0 116 52 165 176 165c43 0 94 -9 139 -22v-84c-44 11 -97 20 -139 20c-61 0 -82 -22 -82 -79v-54h165v-77h-165v-48h165v-77h-166v-21c0 -38 -5 -110 -59 -134h350v-86z" />
    <glyph glyph-name="uni20BA" unicode="&#x20ba;" horiz-adv-x="604" 
d="M476 345h93c0 -211 -162 -345 -348 -345c-16 0 -61 1 -76 2v219l-100 -54v85l100 54v81l-100 -54v85l100 54v178h94v-127l171 93v-86l-171 -92v-81l171 93v-86l-171 -92v-186c133 6 237 101 237 259z" />
    <glyph glyph-name="peseta" unicode="&#x20a7;" horiz-adv-x="1100" 
d="M80 650h237c72 0 237 -36 237 -219c0 -181 -124 -228 -233 -228h-147v-203h-94v650zM174 566v-279h127c66 0 156 19 156 140c0 107 -82 139 -161 139h-122zM676 304h95v-71h-95v-143c0 -14 2 -28 26 -28c9 0 23 0 67 8v-76c-30 -4 -56 -6 -70 -6c-87 0 -100 50 -100 92
v153h-61v71h61v71h77v-71zM938 309c43 0 87 -7 119 -14v-80c-54 13 -92 19 -128 19c-32 0 -44 -5 -44 -19c0 -10 8 -12 24 -15l67 -14c46 -10 94 -30 94 -99c0 -79 -63 -99 -147 -99c-38 0 -75 5 -114 13v82c29 -9 73 -22 125 -22c26 0 56 4 56 24c0 15 -10 21 -28 24
l-81 15c-43 8 -77 30 -77 87c0 83 69 98 134 98z" />
    <glyph glyph-name="uni20B9" unicode="&#x20b9;" horiz-adv-x="563" 
d="M520 573h-122c27 -25 45 -57 48 -94h92l-18 -77h-83c-25 -79 -96 -138 -200 -159l180 -243h-93l-188 247l31 67c89 0 146 32 171 88h-298l18 77h295c-2 51 -37 94 -129 94h-184l18 77h480z" />
    <glyph glyph-name="sterling" unicode="&#xa3;" horiz-adv-x="554" 
d="M544 0h-464v62c49 43 80 76 80 168v106h-90v77h90v84c0 116 52 165 176 165c43 0 94 -9 139 -22v-84c-44 11 -97 20 -139 20c-61 0 -82 -22 -82 -79v-84h165v-77h-165v-116c0 -38 -6 -110 -60 -134h350v-86z" />
    <glyph glyph-name="yen" unicode="&#xa5;" horiz-adv-x="599" 
d="M494 650h110c-114 -160 -139 -194 -213 -291h173v-77h-218v-75h218v-77h-218v-130h-94v130h-217v77h217v75h-217v77h170c-72 93 -104 133 -210 291h107c67 -105 144 -217 199 -292c50 68 113 162 193 292z" />
    <glyph glyph-name="Omega" unicode="&#x3a9;" horiz-adv-x="771" 
d="M729 332c0 -115 -55 -203 -124 -249h131v-83h-266v87c59 30 159 92 159 244c0 157 -95 240 -243 240c-142 0 -244 -77 -244 -240c0 -144 91 -209 159 -244v-87h-266v83h132c-60 39 -125 125 -125 248c0 202 129 331 344 331c220 0 343 -135 343 -330z" />
    <glyph glyph-name="approxequal" unicode="&#x2248;" horiz-adv-x="511" 
d="M394 419h77c0 -69 -54 -116 -123 -116c-61 0 -111 37 -172 37c-30 0 -58 -12 -59 -37h-77c0 69 54 116 123 116c61 0 111 -37 172 -37c30 0 58 12 59 37zM394 259h77c0 -69 -54 -116 -123 -116c-61 0 -111 37 -172 37c-30 0 -58 -12 -59 -37h-77c0 69 54 116 123 116
c61 0 111 -37 172 -37c30 0 58 12 59 37z" />
    <glyph glyph-name="bulletoperator" unicode="&#x2219;" horiz-adv-x="200" 
d="M230 219h-180v175h180v-175z" />
    <glyph glyph-name="divide" unicode="&#xf7;" horiz-adv-x="510" 
d="M304 416h-100v97h100v-97zM40 341h430v-85h-430v85zM304 84h-100v97h100v-97z" />
    <glyph glyph-name="divisionslash" unicode="&#x2215;" horiz-adv-x="530" 
d="M158 0h-98l310 650h100z" />
    <glyph glyph-name="uni208C" unicode="&#x208c;" horiz-adv-x="295" 
d="M280 95h-265v71h265v-71zM280 -15h-265v71h265v-71z" />
    <glyph glyph-name="equalsuperior" unicode="&#x207c;" horiz-adv-x="295" 
d="M280 585h-265v71h265v-71zM280 475h-265v71h265v-71z" />
    <glyph glyph-name="greaterequal" unicode="&#x2265;" horiz-adv-x="589" 
d="M549 392v-92l-509 -180v86l416 139l-416 142v86zM549 0h-509v85h509v-85z" />
    <glyph glyph-name="Delta" unicode="&#x394;" horiz-adv-x="702" 
d="M296 650h111c25 -40 151 -272 260 -588v-62h-631v62c111 325 234 548 260 588zM146 88h414c-54 150 -141 369 -207 477c-52 -86 -156 -327 -207 -477z" />
    <glyph glyph-name="infinity" unicode="&#x221e;" horiz-adv-x="662" 
d="M490 453c90 0 137 -64 137 -152c0 -85 -52 -151 -133 -151c-72 0 -105 33 -163 95c-57 -62 -91 -95 -163 -95c-80 0 -133 66 -133 151c0 88 54 152 137 152c70 0 112 -47 159 -102c47 55 89 102 159 102zM174 373c-40 0 -58 -31 -58 -74c0 -40 18 -70 57 -70
c36 0 56 21 105 71c-34 41 -68 73 -104 73zM488 373c-36 0 -70 -32 -104 -73c47 -49 64 -71 105 -71c40 0 57 30 57 70c0 43 -17 74 -58 74z" />
    <glyph glyph-name="integral" unicode="&#x222b;" horiz-adv-x="341" 
d="M278 750c24 0 50 -4 63 -7v-82c-18 3 -38 5 -62 5c-39 0 -65 -25 -65 -81v-628c0 -117 -54 -169 -151 -169c-24 0 -50 4 -63 7v82c18 -3 38 -5 62 -5c39 0 65 23 65 81v628c0 117 54 169 151 169z" />
    <glyph glyph-name="lessequal" unicode="&#x2264;" horiz-adv-x="589" 
d="M549 487l-416 -142l416 -139v-86l-509 180v92l509 181v-86zM549 85v-85h-509v85h509z" />
    <glyph glyph-name="logicalnot" unicode="&#xac;" horiz-adv-x="510" 
d="M385 109v174h-345v85h430v-259h-85z" />
    <glyph glyph-name="mu" unicode="&#x3bc;" horiz-adv-x="639" 
d="M564 513v-513h-66l-13 47c-63 -37 -147 -59 -199 -59c-50 0 -92 13 -122 36l-1 -224h-88v713h90v-300c0 -79 25 -141 132 -141c59 0 126 17 177 51v390h90z" />
    <glyph glyph-name="minus" unicode="&#x2212;" horiz-adv-x="510" 
d="M470 283h-430v85h430v-85z" />
    <glyph glyph-name="uni208B" unicode="&#x208b;" horiz-adv-x="295" 
d="M280 39h-265v71h265v-71z" />
    <glyph glyph-name="uni207B" unicode="&#x207b;" horiz-adv-x="295" 
d="M280 529h-265v71h265v-71z" />
    <glyph glyph-name="multiply" unicode="&#xd7;" horiz-adv-x="509" 
d="M436 177l-60 -60l-121 121l-122 -121l-60 60l121 122l-121 121l60 60l122 -121l121 121l60 -60l-121 -121z" />
    <glyph glyph-name="notequal" unicode="&#x2260;" horiz-adv-x="510" 
d="M328 333l-51 -107h193v-85h-231l-49 -101h-98l48 101h-100v85h142l50 107h-192v85h231l47 100h100l-47 -100h99v-85h-142z" />
    <glyph glyph-name="partialdiff" unicode="&#x2202;" horiz-adv-x="640" 
d="M211 647l24 76c190 -40 360 -119 360 -428c0 -220 -130 -307 -276 -307c-145 0 -274 88 -274 247c0 173 120 249 246 249c71 0 132 -17 196 -59c-38 157 -150 198 -276 222zM321 73c123 0 180 86 180 222l-1 32c-70 56 -124 73 -200 73c-83 0 -161 -55 -161 -165
c0 -76 57 -162 182 -162z" />
    <glyph glyph-name="perthousand" unicode="&#x2030;" horiz-adv-x="1282" 
d="M200 662c112 0 165 -78 165 -187s-50 -194 -168 -194c-116 0 -167 85 -167 192c0 109 52 189 170 189zM323 0h-99l337 650h97zM199 592c-54 0 -80 -48 -81 -129c-1 -68 27 -111 79 -111s80 46 79 117c-1 77 -26 123 -77 123zM685 368c116 0 167 -85 167 -192
c0 -109 -52 -189 -170 -189c-112 0 -165 78 -165 187s50 194 168 194zM1085 368c116 0 167 -85 167 -192c0 -109 -52 -189 -170 -189c-112 0 -165 78 -165 187s50 194 168 194zM685 297c-52 0 -78 -46 -78 -118c0 -76 25 -122 76 -122c54 0 80 48 80 129
c0 68 -26 111 -78 111zM1085 297c-52 0 -78 -46 -78 -118c0 -76 25 -122 76 -122c54 0 80 48 80 129c0 68 -26 111 -78 111z" />
    <glyph glyph-name="uni208A" unicode="&#x208a;" horiz-adv-x="294" 
d="M183 -57h-72v96h-96v71h96v96h72v-96h96v-71h-96v-96z" />
    <glyph glyph-name="plusminus" unicode="&#xb1;" horiz-adv-x="513" 
d="M299 142h-85v124h-162v85h162v150h85v-150h162v-85h-162v-124zM461 0h-409v85h409v-85z" />
    <glyph glyph-name="plussuperior" unicode="&#x207a;" horiz-adv-x="294" 
d="M183 433h-72v96h-96v71h96v96h72v-96h96v-71h-96v-96z" />
    <glyph glyph-name="product" unicode="&#x220f;" horiz-adv-x="709" 
d="M629 -200h-94v805h-361v-805h-94v891h549v-891z" />
    <glyph glyph-name="radical" unicode="&#x221a;" horiz-adv-x="530" 
d="M316 -199h-83l-160 329l-44 -21l-29 61l115 52l146 -311l173 839h81z" />
    <glyph glyph-name="summation" unicode="&#x2211;" horiz-adv-x="601" 
d="M163 -114h398v-86h-521v64l314 382l-314 381v64h521v-86h-398l275 -337v-44z" />
    <glyph glyph-name="lozenge" unicode="&#x25ca;" horiz-adv-x="561" 
d="M546 326l-224 -338h-83l-224 338l224 336h83zM129 326l151 -239l151 239l-151 238z" />
    <glyph glyph-name="uniF8FF" unicode="&#xf8ff;" horiz-adv-x="492" 
d="M492 750v-750h-492v750h492zM405 85v580h-318v-580h318z" />
    <glyph glyph-name="brokenbar" unicode="&#xa6;" horiz-adv-x="254" 
d="M80 734h94v-404h-94v404zM174 -250h-94v420h94v-420z" />
    <glyph glyph-name="paragraph" unicode="&#xb6;" horiz-adv-x="582" 
d="M502 -75h-88v648h-91v-648h-88v330c-130 11 -195 76 -195 195c0 133 83 200 250 200h212v-725z" />
    <glyph glyph-name="uni2105" unicode="&#x2105;" horiz-adv-x="916" 
d="M203 661c42 0 73 -5 112 -14v-79c-51 14 -81 18 -106 18c-51 0 -89 -28 -89 -87c0 -44 29 -85 89 -85c39 0 49 2 110 20v-77c-41 -14 -70 -18 -115 -18c-92 0 -164 57 -164 161c0 103 73 161 163 161zM327 0h-99l337 650h97zM710 311c88 0 166 -55 166 -162
s-79 -160 -166 -160c-88 0 -165 53 -165 160s77 162 165 162zM710 236c-48 0 -85 -32 -85 -87c0 -44 27 -85 86 -85c57 0 84 41 84 85c0 55 -37 87 -85 87z" />
    <glyph glyph-name="copyright" unicode="&#xa9;" horiz-adv-x="852" 
d="M802 362c0 210 -160 376 -376 376s-376 -166 -376 -376c0 -213 160 -373 376 -373c214 0 376 165 376 373zM758 362c0 -186 -150 -329 -332 -329c-188 0 -331 149 -331 329c0 184 145 331 331 331c184 0 332 -149 332 -331zM436 569c49 0 86 -8 133 -24l-1 -67
c-58 20 -92 27 -133 27c-81 0 -144 -46 -144 -143c0 -72 47 -140 144 -140c58 0 90 12 140 30v-70c-47 -17 -86 -24 -146 -24c-119 0 -211 74 -211 206c0 131 94 205 218 205z" />
    <glyph glyph-name="registered" unicode="&#xae;" horiz-adv-x="542" 
d="M271 662c127 0 221 -98 221 -221s-95 -220 -221 -220c-127 0 -221 94 -221 220c0 123 94 221 221 221zM271 262c99 0 180 77 180 179c0 99 -80 179 -180 179c-101 0 -180 -79 -180 -179c0 -98 77 -179 180 -179zM369 484c0 -41 -23 -64 -49 -73c28 -35 48 -65 64 -88h-53
c-21 30 -37 54 -62 82h-41v-82h-46v237h95c42 0 92 -19 92 -76zM228 448h47c22 0 46 6 46 36c0 22 -14 34 -48 34h-45v-70z" />
    <glyph glyph-name="uni2117" unicode="&#x2117;" horiz-adv-x="852" 
d="M802 362c0 210 -160 376 -376 376s-376 -166 -376 -376c0 -213 160 -373 376 -373c214 0 376 165 376 373zM758 362c0 -186 -150 -329 -332 -329c-188 0 -331 149 -331 329c0 184 145 331 331 331c184 0 332 -149 332 -331zM364 283v-132h-68v405h166
c48 0 152 -17 152 -135c0 -89 -49 -138 -162 -138h-88zM364 495v-150h90c38 0 90 14 90 75c0 54 -47 75 -92 75h-88z" />
    <glyph glyph-name="section" unicode="&#xa7;" horiz-adv-x="484" 
d="M306 182l9 -5c74 -36 99 -67 99 -125c0 -80 -62 -136 -184 -136c-47 0 -93 8 -140 20v87c42 -13 91 -23 137 -23c75 0 93 21 93 50c0 25 -16 33 -77 63l-95 47c-61 30 -78 63 -78 103c0 61 28 101 105 132l-6 3c-71 34 -99 75 -99 133c0 84 70 131 177 131
c37 0 80 -5 127 -16v-87c-42 12 -87 19 -123 19c-68 0 -86 -16 -86 -45c0 -28 15 -41 76 -71l95 -47c61 -30 78 -63 78 -103c0 -62 -29 -100 -108 -130zM164 280c0 -21 11 -36 37 -48l43 -21c53 25 76 45 76 85c0 19 -11 35 -37 47l-46 22c-51 -24 -73 -46 -73 -85z" />
    <glyph glyph-name="trademark" unicode="&#x2122;" horiz-adv-x="780" 
d="M335 585h-126v-297h-70v297h-129v65h325v-65zM639 650h64c15 -58 36 -131 67 -362h-70c-21 160 -30 216 -39 252c-28 -70 -56 -149 -82 -218h-52c-30 78 -51 137 -82 215c-8 -44 -21 -124 -39 -249h-70c32 225 51 299 68 362h64c28 -64 52 -124 85 -211
c39 98 64 160 86 211z" />
    <glyph glyph-name="degree" unicode="&#xb0;" horiz-adv-x="350" 
d="M135 514c-69 0 -125 56 -125 125s56 125 125 125s125 -56 125 -125s-56 -125 -125 -125zM135 572c37 0 67 30 67 67s-30 67 -67 67s-67 -30 -67 -67s30 -67 67 -67z" />
    <glyph glyph-name="estimated" unicode="&#x212e;" horiz-adv-x="828" 
d="M414 662c234 0 368 -161 368 -348h-587c-8 0 -13 -5 -13 -11v-161c0 -19 2 -31 14 -42c56 -55 129 -88 218 -88c95 0 180 44 230 106h66c-43 -61 -139 -129 -296 -129c-223 0 -369 141 -369 335c0 190 139 338 369 338zM414 637c-89 0 -162 -34 -218 -90
c-12 -11 -14 -21 -14 -39v-161c0 -7 5 -11 13 -11h437c8 0 13 4 13 11v161c0 18 -3 28 -15 39c-66 65 -142 90 -216 90z" />
    <glyph glyph-name="uni2113" unicode="&#x2113;" horiz-adv-x="429" 
d="M279 82c18 0 51 5 70 11l1 -84c-19 -6 -57 -13 -80 -13c-97 0 -162 41 -162 149v84l-54 -33l-34 61c31 18 61 36 88 54v214c0 142 64 210 156 210c89 0 150 -51 150 -145c0 -105 -89 -207 -217 -301v-118c0 -67 25 -89 82 -89zM197 525v-148c79 66 126 135 126 213
c0 30 -19 61 -59 61c-45 0 -67 -44 -67 -126z" />
    <glyph glyph-name="uni2116" unicode="&#x2116;" horiz-adv-x="1275" 
d="M1001 661c122 0 229 -76 229 -224c0 -150 -108 -223 -230 -223s-229 74 -229 223c0 148 107 224 230 224zM646 0h-79l-394 524v-524h-93v650h108l365 -486v486h93v-650zM1001 583c-82 0 -143 -56 -143 -146c0 -76 45 -143 144 -143c97 0 142 67 142 143
c0 90 -62 146 -143 146zM1199 0h-397v85h397v-85z" />
    <glyph glyph-name="dagger" unicode="&#x2020;" horiz-adv-x="509" 
d="M297 0h-85v413h-172v85h172v172h85v-172h172v-85h-172v-413z" />
    <glyph glyph-name="daggerdbl" unicode="&#x2021;" horiz-adv-x="509" 
d="M297 413v-115h172v-85h-172v-213h-85v213h-172v85h172v115h-172v85h172v172h85v-172h172v-85h-172z" />
    <glyph glyph-name="uni203D" unicode="&#x203d;" horiz-adv-x="555" 
d="M252 662c149 0 270 -43 270 -177c0 -193 -255 -129 -255 -297v-30h-87l-11 313h96l-4 -127c73 52 171 75 171 139c0 71 -75 94 -182 94c-94 0 -168 -28 -216 -47v89c46 17 125 43 218 43zM271 97v-97h-100v97h100z" />
    <glyph glyph-name="minute" unicode="&#x2032;" horiz-adv-x="282" 
d="M174 493h-66l-13 230h92z" />
    <glyph glyph-name="second" unicode="&#x2033;" horiz-adv-x="282" 
d="M187 723l-13 -230h-66l-13 230h92z" />
    <glyph glyph-name="ampersand.001" horiz-adv-x="699" 
d="M304 660c118 0 171 -79 171 -149c0 -84 -88 -133 -152 -168c38 -43 96 -105 142 -143c27 28 60 70 89 114l89 -2c-35 -69 -77 -131 -114 -168c59 -48 123 -96 190 -144h-149c-38 28 -73 55 -105 83c-74 -62 -154 -99 -231 -99c-121 0 -194 60 -194 165
c0 71 52 143 152 211c-43 52 -65 97 -65 140c0 79 58 160 177 160zM304 582c-44 0 -88 -30 -88 -75c0 -31 29 -71 59 -107c34 17 109 62 109 110c0 49 -40 72 -80 72zM250 293c-82 -53 -119 -100 -119 -144c0 -40 25 -81 104 -81c58 0 105 24 164 72
c-40 36 -100 99 -149 153z" />
    <glyph glyph-name="acute" unicode="&#xb4;" horiz-adv-x="240" 
d="M109 591h-79l74 145h106z" />
    <glyph glyph-name="breve" unicode="&#x2d8;" horiz-adv-x="344" 
d="M237 712h77c-8 -73 -53 -119 -142 -119s-134 46 -142 119h77c4 -31 24 -53 65 -53s61 22 65 53z" />
    <glyph glyph-name="caron" unicode="&#x2c7;" horiz-adv-x="372" 
d="M241 591h-110l-101 145h81l75 -86l75 86h81z" />
    <glyph glyph-name="cedilla" unicode="&#xb8;" horiz-adv-x="260" 
d="M167 5l-13 -44c49 -5 76 -32 76 -75c0 -63 -37 -93 -112 -93c-22 0 -49 2 -88 13v67c42 -13 67 -16 89 -16c27 0 41 9 41 30c0 14 -15 25 -45 25c-18 0 -28 -1 -40 -3l31 96h61z" />
    <glyph glyph-name="circumflex" unicode="&#x2c6;" horiz-adv-x="372" 
d="M186 677l-75 -86h-81l101 145h110l101 -145h-81z" />
    <glyph glyph-name="dieresis" unicode="&#xa8;" horiz-adv-x="356" 
d="M128 588h-98v96h98v-96zM326 588h-98v96h98v-96z" />
    <glyph glyph-name="dotaccent" unicode="&#x2d9;" horiz-adv-x="158" 
d="M128 588h-98v96h98v-96z" />
    <glyph glyph-name="hungarumlaut" unicode="&#x2dd;" horiz-adv-x="408" 
d="M108 591h-78l74 145h107zM275 591h-78l74 145h107z" />
    <glyph glyph-name="macron" unicode="&#xaf;" horiz-adv-x="334" 
d="M304 615h-274v77h274v-77z" />
    <glyph glyph-name="ogonek" unicode="&#x2db;" horiz-adv-x="244" 
d="M128 4h86c-65 -27 -110 -64 -110 -96c0 -18 9 -25 28 -25c26 0 55 10 81 23l1 -68c-27 -12 -55 -20 -90 -20c-61 0 -94 24 -94 73c0 56 61 98 98 113z" />
    <glyph glyph-name="ring" unicode="&#x2da;" horiz-adv-x="262" 
d="M131 580c-65 0 -101 35 -101 86s36 86 101 86s101 -35 101 -86s-36 -86 -101 -86zM131 706c-26 0 -52 -10 -52 -40s26 -40 52 -40s52 10 52 40s-26 40 -52 40z" />
    <glyph glyph-name="tilde" unicode="&#x2dc;" horiz-adv-x="362" 
d="M272 714h60c-8 -56 -38 -97 -94 -97c-37 0 -83 27 -114 27c-22 0 -29 -10 -34 -30h-60c8 56 38 97 94 97c42 0 79 -27 114 -27c24 0 31 10 34 30z" />
    <glyph glyph-name="acute.case" horiz-adv-x="240" 
d="M109 710h-79l74 145h106z" />
    <glyph glyph-name="breve.case" horiz-adv-x="344" 
d="M237 827h77c-8 -73 -53 -119 -142 -119s-134 46 -142 119h77c4 -31 24 -53 65 -53s61 22 65 53z" />
    <glyph glyph-name="caron.alt" horiz-adv-x="198" 
d="M104 525h-74l44 166h94z" />
    <glyph glyph-name="caron.case" horiz-adv-x="372" 
d="M241 710h-110l-101 145h81l75 -86l75 86h81z" />
    <glyph glyph-name="circumflex.case" horiz-adv-x="372" 
d="M342 710h-81l-75 86l-75 -86h-81l101 145h110z" />
    <glyph glyph-name="dieresis.case" horiz-adv-x="358" 
d="M130 707h-100v98h100v-98zM328 707h-100v98h100v-98z" />
    <glyph glyph-name="dotaccent.case" horiz-adv-x="160" 
d="M130 707h-100v98h100v-98z" />
    <glyph glyph-name="grave.case" horiz-adv-x="240" 
d="M210 710h-79l-101 145h106z" />
    <glyph glyph-name="hungarumlaut.case" horiz-adv-x="408" 
d="M108 710h-78l74 145h107zM275 710h-78l74 145h107z" />
    <glyph glyph-name="macron.case" horiz-adv-x="334" 
d="M304 716h-274v77h274v-77z" />
    <glyph glyph-name="ring.case" horiz-adv-x="262" 
d="M131 711c-65 0 -101 35 -101 86s36 86 101 86s101 -35 101 -86s-36 -86 -101 -86zM131 837c-26 0 -52 -10 -52 -40s26 -40 52 -40s52 10 52 40s-26 40 -52 40z" />
    <glyph glyph-name="tilde.case" horiz-adv-x="362" 
d="M272 834h60c-8 -56 -38 -97 -94 -97c-37 0 -83 27 -114 27c-22 0 -29 -10 -34 -30h-60c8 56 38 97 94 97c42 0 79 -27 114 -27c24 0 31 10 34 30z" />
    <glyph glyph-name="uni0326" unicode="&#x326;" horiz-adv-x="0" 
d="M99 -220h-69l44 165h89z" />
    <glyph glyph-name="uni0312" unicode="&#x312;" horiz-adv-x="0" 
d="M94 759h69l-44 -165h-89z" />
    <glyph glyph-name="brevecy" horiz-adv-x="0" 
d="M314 713h-59c-14 -40 -41 -55 -81 -55c-31 0 -53 14 -60 55h-84c6 -76 47 -120 133 -120c79 0 135 39 151 120z" />
    <glyph glyph-name="brevecy.case" horiz-adv-x="0" 
d="M314 817h-59c-14 -40 -41 -55 -81 -55c-31 0 -53 14 -60 55h-84c6 -76 47 -120 133 -120c79 0 135 39 151 120z" />
    <glyph glyph-name="uni02BC" unicode="&#x2bc;" horiz-adv-x="193" 
d="M99 525h-69l44 166h89z" />
    <glyph glyph-name="firsttonechinese" unicode="&#x2c9;" horiz-adv-x="334" 
d="M304 615h-274v77h274v-77z" />
    <glyph glyph-name="uni20BC" unicode="&#x20bc;" horiz-adv-x="627" 
d="M174 252v-73h196v-86h-196v-93h-94v93h-80v86h80v73h-80v86h80v312h257c85 0 240 -29 240 -185c0 -172 -127 -213 -236 -213h-167zM174 338h147c66 0 156 11 156 125c0 81 -68 101 -151 101h-152v-226z" />
    <glyph glyph-name="uniFEFF" unicode="&#xfeff;" horiz-adv-x="600" 
 />
    <glyph glyph-name="Abreve" unicode="&#x102;" horiz-adv-x="663" 
d="M332 708c-89 0 -134 46 -142 119h77c4 -31 24 -53 65 -53s61 22 65 53h77c-8 -73 -53 -119 -142 -119zM668 0h-98c-16 48 -36 106 -60 168h-354c-26 -66 -47 -125 -60 -168h-101c98 297 238 580 281 650h111c27 -43 166 -303 281 -650zM190 252h287
c-46 115 -99 233 -144 313c-41 -77 -96 -198 -143 -313z" />
    <glyph glyph-name="Amacron" unicode="&#x100;" horiz-adv-x="663" 
d="M469 716h-274v77h274v-77zM668 0h-98c-16 48 -36 106 -60 168h-354c-26 -66 -47 -125 -60 -168h-101c98 297 238 580 281 650h111c27 -43 166 -303 281 -650zM190 252h287c-46 115 -99 233 -144 313c-41 -77 -96 -198 -143 -313z" />
    <glyph glyph-name="Aogonek" unicode="&#x104;" horiz-adv-x="663" 
d="M573 -117c26 0 55 10 81 23l1 -68c-27 -12 -55 -20 -90 -20c-61 0 -94 24 -94 73c0 56 61 98 98 113c-16 47 -36 104 -59 164h-354c-26 -66 -47 -125 -60 -168h-101c98 297 238 580 281 650h111c27 -43 166 -303 281 -650h-22c-60 -27 -101 -62 -101 -92
c0 -18 9 -25 28 -25zM190 252h287c-46 115 -99 233 -144 313c-41 -77 -96 -198 -143 -313z" />
    <glyph glyph-name="Aringacute" unicode="&#x1fa;" horiz-adv-x="663" 
d="M373 919h-79l74 145h106zM332 711c-65 0 -101 35 -101 86s36 86 101 86s101 -35 101 -86s-36 -86 -101 -86zM332 837c-26 0 -52 -10 -52 -40s26 -40 52 -40s52 10 52 40s-26 40 -52 40zM668 0h-98c-16 48 -36 106 -60 168h-354c-26 -66 -47 -125 -60 -168h-101
c98 297 238 580 281 650h111c27 -43 166 -303 281 -650zM190 252h287c-46 115 -99 233 -144 313c-41 -77 -96 -198 -143 -313z" />
    <glyph glyph-name="AEacute" unicode="&#x1fc;" horiz-adv-x="955" 
d="M698 710h-79l74 145h106zM568 564v-187h300v-85h-300v-206h327v-86h-421v179h-275c-37 -60 -71 -120 -104 -179h-110c170 298 337 527 446 650h464v-86h-327zM473 265v303c-85 -102 -157 -203 -221 -303h221z" />
    <glyph glyph-name="Cacute" unicode="&#x106;" horiz-adv-x="704" 
d="M443 710h-79l74 145h106zM436 662c73 0 160 -18 213 -42v-98c-66 34 -139 52 -215 52c-158 0 -285 -84 -285 -254c0 -177 154 -244 292 -244c83 0 127 10 213 44v-92c-43 -18 -113 -40 -220 -40c-181 0 -384 91 -384 331c0 235 182 343 386 343z" />
    <glyph glyph-name="Ccaron" unicode="&#x10c;" horiz-adv-x="704" 
d="M462 710h-110l-101 145h81l75 -86l75 86h81zM436 662c73 0 160 -18 213 -42v-98c-66 34 -139 52 -215 52c-158 0 -285 -84 -285 -254c0 -177 154 -244 292 -244c83 0 127 10 213 44v-92c-43 -18 -113 -40 -220 -40c-181 0 -384 91 -384 331c0 235 182 343 386 343z" />
    <glyph glyph-name="Ccircumflex" unicode="&#x108;" horiz-adv-x="704" 
d="M563 710h-81l-75 86l-75 -86h-81l101 145h110zM436 662c73 0 160 -18 213 -42v-98c-66 34 -139 52 -215 52c-158 0 -285 -84 -285 -254c0 -177 154 -244 292 -244c83 0 127 10 213 44v-92c-43 -18 -113 -40 -220 -40c-181 0 -384 91 -384 331c0 235 182 343 386 343z" />
    <glyph glyph-name="Cdotaccent" unicode="&#x10a;" horiz-adv-x="704" 
d="M457 707h-100v98h100v-98zM436 662c73 0 160 -18 213 -42v-98c-66 34 -139 52 -215 52c-158 0 -285 -84 -285 -254c0 -177 154 -244 292 -244c83 0 127 10 213 44v-92c-43 -18 -113 -40 -220 -40c-181 0 -384 91 -384 331c0 235 182 343 386 343z" />
    <glyph glyph-name="Dcaron" unicode="&#x10e;" horiz-adv-x="713" 
d="M378 710h-110l-101 145h81l75 -86l75 86h81zM80 650h221c189 0 357 -84 357 -326c0 -231 -176 -324 -365 -324h-213v650zM174 564v-478h99c192 0 282 90 282 239c0 146 -80 239 -273 239h-108z" />
    <glyph glyph-name="Dcroat" unicode="&#x110;" horiz-adv-x="707" 
d="M80 650h221c189 0 357 -84 357 -326c0 -231 -176 -324 -365 -324h-213v293h-80v86h80v271zM174 86h99c192 0 282 90 282 239c0 146 -80 239 -273 239h-108v-185h206v-86h-206v-207z" />
    <glyph glyph-name="Ebreve" unicode="&#x114;" horiz-adv-x="599" 
d="M375 827h77c-8 -73 -53 -119 -142 -119s-134 46 -142 119h77c4 -31 24 -53 65 -53s61 22 65 53zM539 564h-365v-187h336v-85h-336v-206h365v-86h-459v650h459v-86z" />
    <glyph glyph-name="Ecaron" unicode="&#x11a;" horiz-adv-x="599" 
d="M365 710h-110l-101 145h81l75 -86l75 86h81zM539 564h-365v-187h336v-85h-336v-206h365v-86h-459v650h459v-86z" />
    <glyph glyph-name="Edotaccent" unicode="&#x116;" horiz-adv-x="599" 
d="M360 707h-100v98h100v-98zM539 564h-365v-187h336v-85h-336v-206h365v-86h-459v650h459v-86z" />
    <glyph glyph-name="Emacron" unicode="&#x112;" horiz-adv-x="599" 
d="M447 716h-274v77h274v-77zM539 564h-365v-187h336v-85h-336v-206h365v-86h-459v650h459v-86z" />
    <glyph glyph-name="Eogonek" unicode="&#x118;" horiz-adv-x="599" 
d="M174 564v-187h336v-85h-336v-206h365v-86h-65c-60 -27 -101 -62 -101 -92c0 -18 9 -25 28 -25c26 0 55 10 81 23l1 -68c-27 -12 -55 -20 -90 -20c-61 0 -94 24 -94 73c0 52 52 91 89 109h-308v650h459v-86h-365z" />
    <glyph glyph-name="Gbreve" unicode="&#x11e;" horiz-adv-x="721" 
d="M456 827h77c-8 -73 -53 -119 -142 -119s-134 46 -142 119h77c4 -31 24 -53 65 -53s61 22 65 53zM429 662c73 0 159 -18 219 -40v-92c-87 32 -143 44 -220 44c-151 0 -279 -81 -279 -252c0 -179 147 -246 286 -246c51 0 86 5 122 15v228h94v-291
c-61 -23 -122 -40 -223 -40c-180 0 -378 91 -378 331c0 233 178 343 379 343z" />
    <glyph glyph-name="Gcircumflex" unicode="&#x11c;" horiz-adv-x="721" 
d="M547 710h-81l-75 86l-75 -86h-81l101 145h110zM429 662c73 0 159 -18 219 -40v-92c-87 32 -143 44 -220 44c-151 0 -279 -81 -279 -252c0 -179 147 -246 286 -246c51 0 86 5 122 15v228h94v-291c-61 -23 -122 -40 -223 -40c-180 0 -378 91 -378 331
c0 233 178 343 379 343z" />
    <glyph glyph-name="Gcommaaccent" unicode="&#x122;" horiz-adv-x="721" 
d="M429 662c73 0 159 -18 219 -40v-92c-87 32 -143 44 -220 44c-151 0 -279 -81 -279 -252c0 -179 147 -246 286 -246c51 0 86 5 122 15v228h94v-291c-61 -23 -122 -40 -223 -40c-180 0 -378 91 -378 331c0 233 178 343 379 343zM392 -220h-69l44 165h89z" />
    <glyph glyph-name="Gdotaccent" unicode="&#x120;" horiz-adv-x="721" 
d="M441 707h-100v98h100v-98zM429 662c73 0 159 -18 219 -40v-92c-87 32 -143 44 -220 44c-151 0 -279 -81 -279 -252c0 -179 147 -246 286 -246c51 0 86 5 122 15v228h94v-291c-61 -23 -122 -40 -223 -40c-180 0 -378 91 -378 331c0 233 178 343 379 343z" />
    <glyph glyph-name="Hbar" unicode="&#x126;" horiz-adv-x="715" 
d="M715 491h-76v-491h-94v281h-371v-281h-94v491h-80v76h80v83h94v-83h371v83h94v-83h76v-76zM545 491h-371v-124h371v124z" />
    <glyph glyph-name="Hcircumflex" unicode="&#x124;" horiz-adv-x="719" 
d="M516 710h-81l-75 86l-75 -86h-81l101 145h110zM639 0h-94v281h-371v-281h-94v650h94v-283h371v283h94v-650z" />
    <glyph glyph-name="IJ" unicode="&#x132;" horiz-adv-x="708" 
d="M174 0h-94v650h94v-650zM633 650v-466c0 -121 -82 -196 -207 -196c-28 0 -95 6 -162 26v94c44 -16 107 -31 158 -31c67 0 117 34 117 129v444h94z" />
    <glyph glyph-name="Ibreve" unicode="&#x12c;" horiz-adv-x="254" 
d="M192 827h77c-8 -73 -53 -119 -142 -119s-134 46 -142 119h77c4 -31 24 -53 65 -53s61 22 65 53zM174 0h-94v650h94v-650z" />
    <glyph glyph-name="Idotaccent" unicode="&#x130;" horiz-adv-x="254" 
d="M177 707h-100v98h100v-98zM174 0h-94v650h94v-650z" />
    <glyph glyph-name="Imacron" unicode="&#x12a;" horiz-adv-x="254" 
d="M264 716h-274v77h274v-77zM174 0h-94v650h94v-650z" />
    <glyph glyph-name="Iogonek" unicode="&#x12e;" horiz-adv-x="254" 
d="M174 0h-17c-60 -27 -101 -62 -101 -92c0 -18 9 -25 28 -25c26 0 55 10 81 23l1 -68c-27 -12 -55 -20 -90 -20c-61 0 -94 24 -94 73c0 56 61 98 98 113v646h94v-650z" />
    <glyph glyph-name="Itilde" unicode="&#x128;" horiz-adv-x="254" 
d="M215 834h60c-8 -56 -38 -97 -94 -97c-37 0 -83 27 -114 27c-22 0 -29 -10 -34 -30h-60c8 56 38 97 94 97c42 0 79 -27 114 -27c24 0 31 10 34 30zM174 0h-94v650h94v-650z" />
    <glyph glyph-name="Jcircumflex" unicode="&#x134;" horiz-adv-x="454" 
d="M378 710h-81l-75 86l-75 -86h-81l101 145h110zM379 650v-466c0 -121 -82 -196 -207 -196c-28 0 -95 6 -162 26v94c44 -16 107 -31 158 -31c67 0 117 34 117 129v444h94z" />
    <glyph glyph-name="Kcommaaccent" unicode="&#x136;" horiz-adv-x="659" 
d="M174 0h-94v650h94v-650zM510 650h144c-144 -119 -258 -224 -346 -324c113 -98 234 -209 346 -326h-132c-104 108 -218 213 -340 318c94 111 200 221 328 332zM319 -220h-69l44 165h89z" />
    <glyph glyph-name="Lacute" unicode="&#x139;" horiz-adv-x="557" 
d="M170 710h-79l74 145h106zM174 86h373v-86h-467v650h94v-564z" />
    <glyph glyph-name="Lcaron" unicode="&#x13d;" horiz-adv-x="557" 
d="M174 86h373v-86h-467v650h94v-564zM390 484h-74l44 166h94z" />
    <glyph glyph-name="Lcommaaccent" unicode="&#x13b;" horiz-adv-x="557" 
d="M174 86h373v-86h-467v650h94v-564zM294 -220h-69l44 165h89z" />
    <glyph glyph-name="Ldot" unicode="&#x13f;" horiz-adv-x="557" 
d="M174 86h373v-86h-467v650h94v-564zM435 345h-100v97h100v-97z" />
    <glyph glyph-name="Nacute" unicode="&#x143;" horiz-adv-x="726" 
d="M406 710h-79l74 145h106zM646 0h-79l-394 524v-524h-93v650h108l365 -486v486h93v-650z" />
    <glyph glyph-name="Ncaron" unicode="&#x147;" horiz-adv-x="726" 
d="M425 710h-110l-101 145h81l75 -86l75 86h81zM646 0h-79l-394 524v-524h-93v650h108l365 -486v486h93v-650z" />
    <glyph glyph-name="Ncommaaccent" unicode="&#x145;" horiz-adv-x="726" 
d="M646 0h-79l-394 524v-524h-93v650h108l365 -486v486h93v-650zM381 -220h-69l44 165h89z" />
    <glyph glyph-name="Eng" unicode="&#x14a;" horiz-adv-x="726" 
d="M646 650v-694c0 -121 -82 -196 -207 -196c-28 0 -95 6 -162 26v94c44 -16 107 -31 158 -31c67 0 118 34 118 129v41l-380 505v-524h-93v650h108l365 -486v486h93z" />
    <glyph glyph-name="Obreve" unicode="&#x14e;" horiz-adv-x="792" 
d="M456 827h77c-8 -73 -53 -119 -142 -119s-134 46 -142 119h77c4 -31 24 -53 65 -53s61 22 65 53zM400 662c219 0 342 -135 342 -336c0 -207 -138 -338 -341 -338c-216 0 -351 134 -351 338c0 205 135 336 350 336zM400 574c-147 0 -251 -81 -251 -248
c0 -157 103 -248 252 -248c141 0 244 91 244 248c0 164 -101 248 -245 248z" />
    <glyph glyph-name="Ohungarumlaut" unicode="&#x150;" horiz-adv-x="792" 
d="M350 710h-78l74 145h107zM517 710h-78l74 145h107zM400 662c219 0 342 -135 342 -336c0 -207 -138 -338 -341 -338c-216 0 -351 134 -351 338c0 205 135 336 350 336zM400 574c-147 0 -251 -81 -251 -248c0 -157 103 -248 252 -248c141 0 244 91 244 248
c0 164 -101 248 -245 248z" />
    <glyph glyph-name="Omacron" unicode="&#x14c;" horiz-adv-x="792" 
d="M528 716h-274v77h274v-77zM400 662c219 0 342 -135 342 -336c0 -207 -138 -338 -341 -338c-216 0 -351 134 -351 338c0 205 135 336 350 336zM400 574c-147 0 -251 -81 -251 -248c0 -157 103 -248 252 -248c141 0 244 91 244 248c0 164 -101 248 -245 248z" />
    <glyph glyph-name="Oslashacute" unicode="&#x1fe;" horiz-adv-x="792" 
d="M427 710h-79l74 145h106zM698 617l-42 -50c56 -59 86 -142 86 -241c0 -207 -138 -338 -341 -338c-75 0 -140 16 -193 46l-52 -62l-62 52l49 58c-60 59 -93 143 -93 244c0 205 135 336 350 336c76 0 140 -16 192 -46l44 53zM149 326c0 -70 21 -127 57 -169l325 387
c-37 20 -81 30 -131 30c-147 0 -251 -81 -251 -248zM401 78c141 0 244 91 244 248c0 70 -18 126 -51 167l-324 -386c37 -19 82 -29 131 -29z" />
    <glyph glyph-name="Racute" unicode="&#x154;" horiz-adv-x="660" 
d="M339 710h-79l74 145h106zM635 0h-125c-51 75 -122 163 -193 238h-143v-238h-94v650h273c81 0 241 -34 241 -202c0 -119 -81 -181 -160 -201c56 -60 130 -150 201 -247zM174 324h166c63 0 156 18 156 121c0 90 -75 119 -152 119h-170v-240z" />
    <glyph glyph-name="Rcaron" unicode="&#x158;" horiz-adv-x="660" 
d="M248 710l-101 145h81l75 -86l75 86h81l-101 -145h-110zM635 0h-125c-51 75 -122 163 -193 238h-143v-238h-94v650h273c81 0 241 -34 241 -202c0 -119 -81 -181 -160 -201c56 -60 130 -150 201 -247zM174 324h166c63 0 156 18 156 121c0 90 -75 119 -152 119h-170v-240z
" />
    <glyph glyph-name="Rcommaaccent" unicode="&#x156;" horiz-adv-x="660" 
d="M434 247c56 -60 130 -150 201 -247h-125c-51 75 -122 163 -193 238h-143v-238h-94v650h273c81 0 241 -34 241 -202c0 -119 -81 -181 -160 -201zM174 324h166c63 0 156 18 156 121c0 90 -75 119 -152 119h-170v-240zM282 -55h89l-64 -165h-69z" />
    <glyph glyph-name="Sacute" unicode="&#x15a;" horiz-adv-x="605" 
d="M337 710h-79l74 145h106zM320 662c81 0 146 -14 207 -34v-90c-84 26 -140 39 -207 39c-85 0 -171 -21 -171 -93c0 -48 41 -75 95 -90l165 -47c80 -22 146 -71 146 -170c0 -121 -101 -189 -276 -189c-85 0 -159 16 -234 44v95c76 -25 148 -53 234 -53
c109 0 179 39 179 100c0 53 -41 80 -97 95l-153 42c-83 22 -154 69 -154 173c0 127 121 178 266 178z" />
    <glyph glyph-name="Scedilla" unicode="&#x15e;" horiz-adv-x="605" 
d="M555 177c0 -105 -75 -170 -209 -185l-9 -31c49 -5 76 -32 76 -75c0 -63 -37 -93 -112 -93c-22 0 -49 2 -88 13v67c42 -13 67 -16 89 -16c27 0 41 9 41 30c0 14 -15 25 -45 25c-18 0 -28 -1 -40 -3l26 79h-5c-85 0 -159 16 -234 44v95c76 -25 148 -53 234 -53
c109 0 179 39 179 100c0 53 -41 80 -97 95l-153 42c-83 22 -154 69 -154 173c0 127 121 178 266 178c81 0 146 -14 207 -34v-90c-84 26 -140 39 -207 39c-85 0 -171 -21 -171 -93c0 -48 41 -75 95 -90l165 -47c80 -22 146 -71 146 -170z" />
    <glyph glyph-name="Scircumflex" unicode="&#x15c;" horiz-adv-x="605" 
d="M457 710h-81l-75 86l-75 -86h-81l101 145h110zM320 662c81 0 146 -14 207 -34v-90c-84 26 -140 39 -207 39c-85 0 -171 -21 -171 -93c0 -48 41 -75 95 -90l165 -47c80 -22 146 -71 146 -170c0 -121 -101 -189 -276 -189c-85 0 -159 16 -234 44v95c76 -25 148 -53 234 -53
c109 0 179 39 179 100c0 53 -41 80 -97 95l-153 42c-83 22 -154 69 -154 173c0 127 121 178 266 178z" />
    <glyph glyph-name="Scommaaccent" unicode="&#x218;" horiz-adv-x="605" 
d="M320 662c81 0 146 -14 207 -34v-90c-84 26 -140 39 -207 39c-85 0 -171 -21 -171 -93c0 -48 41 -75 95 -90l165 -47c80 -22 146 -71 146 -170c0 -121 -101 -189 -276 -189c-85 0 -159 16 -234 44v95c76 -25 148 -53 234 -53c109 0 179 39 179 100c0 53 -41 80 -97 95
l-153 42c-83 22 -154 69 -154 173c0 127 121 178 266 178zM318 -220h-69l44 165h89z" />
    <glyph glyph-name="uni1E9E" unicode="&#x1e9e;" horiz-adv-x="750" 
d="M627 529l-132 -135c133 -31 205 -105 205 -206c0 -108 -73 -200 -233 -200c-81 0 -151 16 -228 46v87c53 -19 136 -50 231 -50c93 0 133 43 133 115c0 70 -56 125 -213 136v67l125 133c-42 37 -96 55 -157 55c-118 0 -184 -55 -184 -221v-356h-94v356
c0 214 99 306 279 306c116 0 219 -55 268 -133z" />
    <glyph glyph-name="Schwa" unicode="&#x18f;" horiz-adv-x="769" 
d="M391 662c203 0 328 -122 328 -327c0 -203 -123 -347 -328 -347c-222 0 -341 132 -341 338v50h570c-8 130 -83 200 -229 200c-92 0 -160 -15 -257 -48v94c83 24 170 40 257 40zM391 74c148 0 220 87 230 216h-472c7 -138 112 -216 242 -216z" />
    <glyph glyph-name="Tbar" unicode="&#x166;" horiz-adv-x="623" 
d="M360 564v-185h142v-86h-142v-293h-94v293h-145v86h145v185h-246v86h586v-86h-246z" />
    <glyph glyph-name="Tcaron" unicode="&#x164;" horiz-adv-x="626" 
d="M368 710h-110l-101 145h81l75 -86l75 86h81zM606 564h-246v-564h-94v564h-246v86h586v-86z" />
    <glyph glyph-name="Tcedilla" unicode="&#x162;" horiz-adv-x="626" 
d="M606 564h-246v-564h-94v564h-246v86h586v-86zM287 -220h-69l44 165h89z" />
    <glyph glyph-name="uni021A" unicode="&#x21a;" horiz-adv-x="626" 
d="M606 564h-246v-564h-94v564h-246v86h586v-86zM287 -220h-69l44 165h89z" />
    <glyph glyph-name="Ubreve" unicode="&#x16c;" horiz-adv-x="718" 
d="M414 827h77c-8 -73 -53 -119 -142 -119s-134 46 -142 119h77c4 -31 24 -53 65 -53s61 22 65 53zM638 650v-371c0 -155 -64 -291 -283 -291c-217 0 -280 136 -280 291v371h94v-372c0 -133 63 -202 186 -202c125 0 189 69 189 202v372h94z" />
    <glyph glyph-name="Uhungarumlaut" unicode="&#x170;" horiz-adv-x="718" 
d="M308 710h-78l74 145h107zM475 710h-78l74 145h107zM638 650v-371c0 -155 -64 -291 -283 -291c-217 0 -280 136 -280 291v371h94v-372c0 -133 63 -202 186 -202c125 0 189 69 189 202v372h94z" />
    <glyph glyph-name="Umacron" unicode="&#x16a;" horiz-adv-x="718" 
d="M486 716h-274v77h274v-77zM638 650v-371c0 -155 -64 -291 -283 -291c-217 0 -280 136 -280 291v371h94v-372c0 -133 63 -202 186 -202c125 0 189 69 189 202v372h94z" />
    <glyph glyph-name="Uogonek" unicode="&#x172;" horiz-adv-x="718" 
d="M638 650v-371c0 -127 -43 -241 -179 -278c-61 -27 -102 -62 -102 -93c0 -18 9 -25 28 -25c26 0 55 10 81 23l1 -68c-27 -12 -55 -20 -90 -20c-61 0 -94 24 -94 73c0 42 34 76 67 97c-213 2 -275 137 -275 291v371h94v-372c0 -133 63 -202 186 -202c125 0 189 69 189 202
v372h94z" />
    <glyph glyph-name="Uring" unicode="&#x16e;" horiz-adv-x="718" 
d="M349 711c-65 0 -101 35 -101 86s36 86 101 86s101 -35 101 -86s-36 -86 -101 -86zM349 837c-26 0 -52 -10 -52 -40s26 -40 52 -40s52 10 52 40s-26 40 -52 40zM638 650v-371c0 -155 -64 -291 -283 -291c-217 0 -280 136 -280 291v371h94v-372c0 -133 63 -202 186 -202
c125 0 189 69 189 202v372h94z" />
    <glyph glyph-name="Utilde" unicode="&#x168;" horiz-adv-x="718" 
d="M437 834h60c-8 -56 -38 -97 -94 -97c-37 0 -83 27 -114 27c-22 0 -29 -10 -34 -30h-60c8 56 38 97 94 97c42 0 79 -27 114 -27c24 0 31 10 34 30zM638 650v-371c0 -155 -64 -291 -283 -291c-217 0 -280 136 -280 291v371h94v-372c0 -133 63 -202 186 -202
c125 0 189 69 189 202v372h94z" />
    <glyph glyph-name="Wacute" unicode="&#x1e82;" horiz-adv-x="873" 
d="M471 710h-79l74 145h106zM768 650h97c-70 -334 -143 -537 -183 -650h-99c-66 155 -116 292 -149 382c-31 -90 -80 -230 -147 -382h-97c-41 113 -118 315 -182 650h96c53 -255 105 -421 138 -525c56 126 128 331 157 417h72c11 -34 94 -274 158 -418
c36 107 86 274 139 526z" />
    <glyph glyph-name="Wcircumflex" unicode="&#x174;" horiz-adv-x="873" 
d="M591 710h-81l-75 86l-75 -86h-81l101 145h110zM768 650h97c-70 -334 -143 -537 -183 -650h-99c-66 155 -116 292 -149 382c-31 -90 -80 -230 -147 -382h-97c-41 113 -118 315 -182 650h96c53 -255 105 -421 138 -525c56 126 128 331 157 417h72c11 -34 94 -274 158 -418
c36 107 86 274 139 526z" />
    <glyph glyph-name="Wdieresis" unicode="&#x1e84;" horiz-adv-x="873" 
d="M386 707h-100v98h100v-98zM584 707h-100v98h100v-98zM768 650h97c-70 -334 -143 -537 -183 -650h-99c-66 155 -116 292 -149 382c-31 -90 -80 -230 -147 -382h-97c-41 113 -118 315 -182 650h96c53 -255 105 -421 138 -525c56 126 128 331 157 417h72
c11 -34 94 -274 158 -418c36 107 86 274 139 526z" />
    <glyph glyph-name="Wgrave" unicode="&#x1e80;" horiz-adv-x="873" 
d="M482 710h-79l-101 145h106zM768 650h97c-70 -334 -143 -537 -183 -650h-99c-66 155 -116 292 -149 382c-31 -90 -80 -230 -147 -382h-97c-41 113 -118 315 -182 650h96c53 -255 105 -421 138 -525c56 126 128 331 157 417h72c11 -34 94 -274 158 -418
c36 107 86 274 139 526z" />
    <glyph glyph-name="Ycircumflex" unicode="&#x176;" horiz-adv-x="606" 
d="M456 710h-81l-75 86l-75 -86h-81l101 145h110zM498 650h113c-93 -178 -219 -374 -261 -430v-220h-94v220c-43 57 -166 250 -261 430h110c76 -152 136 -248 198 -344c59 90 116 184 195 344z" />
    <glyph glyph-name="Ygrave" unicode="&#x1ef2;" horiz-adv-x="606" 
d="M347 710h-79l-101 145h106zM498 650h113c-93 -178 -219 -374 -261 -430v-220h-94v220c-43 57 -166 250 -261 430h110c76 -152 136 -248 198 -344c59 90 116 184 195 344z" />
    <glyph glyph-name="Zacute" unicode="&#x179;" horiz-adv-x="599" 
d="M335 710h-79l74 145h106zM559 567l-393 -481h391v-86h-517v83l394 481h-394v86h519v-83z" />
    <glyph glyph-name="Zdotaccent" unicode="&#x17b;" horiz-adv-x="599" 
d="M349 707h-100v98h100v-98zM559 567l-393 -481h391v-86h-517v83l394 481h-394v86h519v-83z" />
    <glyph glyph-name="abreve" unicode="&#x103;" horiz-adv-x="603" 
d="M302 593c-89 0 -134 46 -142 119h77c4 -31 24 -53 65 -53s61 22 65 53h77c-8 -73 -53 -119 -142 -119zM286 524c162 0 242 -57 242 -221v-303h-68l-12 47c-44 -30 -113 -59 -192 -59c-111 0 -203 57 -203 171c0 123 106 167 216 167c60 0 123 -13 169 -36v30
c0 101 -75 120 -162 120c-66 0 -117 -11 -191 -35v89c70 21 137 30 201 30zM148 160c0 -70 63 -90 124 -90c78 0 136 33 166 52v93c-51 27 -112 36 -158 36c-74 0 -132 -24 -132 -91z" />
    <glyph glyph-name="amacron" unicode="&#x101;" horiz-adv-x="603" 
d="M437 615h-274v77h274v-77zM286 524c162 0 242 -57 242 -221v-303h-68l-12 47c-44 -30 -113 -59 -192 -59c-111 0 -203 57 -203 171c0 123 106 167 216 167c60 0 123 -13 169 -36v30c0 101 -75 120 -162 120c-66 0 -117 -11 -191 -35v89c70 21 137 30 201 30zM148 160
c0 -70 63 -90 124 -90c78 0 136 33 166 52v93c-51 27 -112 36 -158 36c-74 0 -132 -24 -132 -91z" />
    <glyph glyph-name="aogonek" unicode="&#x105;" horiz-adv-x="603" 
d="M544 -94l1 -68c-27 -12 -55 -20 -90 -20c-61 0 -94 24 -94 73c0 56 61 98 98 113l-11 43c-44 -30 -113 -59 -192 -59c-111 0 -203 57 -203 171c0 123 106 167 216 167c60 0 123 -13 169 -36v30c0 101 -75 120 -162 120c-66 0 -117 -11 -191 -35v89c70 21 137 30 201 30
c162 0 242 -57 242 -221v-303c-65 -34 -93 -68 -93 -92c0 -18 9 -25 28 -25c26 0 55 10 81 23zM148 160c0 -70 63 -90 124 -90c78 0 136 33 166 52v93c-51 27 -112 36 -158 36c-74 0 -132 -24 -132 -91z" />
    <glyph glyph-name="aringacute" unicode="&#x1fb;" horiz-adv-x="603" 
d="M339 789h-79l74 145h106zM297 580c-65 0 -101 35 -101 86s36 86 101 86s101 -35 101 -86s-36 -86 -101 -86zM297 706c-26 0 -52 -10 -52 -40s26 -40 52 -40s52 10 52 40s-26 40 -52 40zM286 524c162 0 242 -57 242 -221v-303h-68l-12 47c-44 -30 -113 -59 -192 -59
c-111 0 -203 57 -203 171c0 123 106 167 216 167c60 0 123 -13 169 -36v30c0 101 -75 120 -162 120c-66 0 -117 -11 -191 -35v89c70 21 137 30 201 30zM148 160c0 -70 63 -90 124 -90c78 0 136 33 166 52v93c-51 27 -112 36 -158 36c-74 0 -132 -24 -132 -91z" />
    <glyph glyph-name="aeacute" unicode="&#x1fd;" horiz-adv-x="977" 
d="M542 591h-79l74 145h106zM703 524c141 0 227 -93 227 -248v-53h-402c12 -135 123 -151 189 -151c74 0 114 11 203 38v-87c-48 -17 -130 -35 -207 -35c-84 0 -165 26 -217 87c-96 -62 -158 -87 -240 -87c-111 0 -203 57 -203 171c0 123 106 167 216 167
c60 0 123 -13 169 -36v30c0 101 -75 120 -162 120c-66 0 -117 -11 -191 -35v89c70 21 137 30 201 30c104 0 174 -24 210 -86c51 59 128 86 207 86zM701 440c-82 0 -160 -43 -169 -139h306c-3 77 -44 139 -137 139zM280 251c-74 0 -132 -24 -132 -91c0 -70 63 -90 124 -90
c86 0 155 42 187 65c-9 23 -16 50 -19 79c-51 25 -116 37 -160 37z" />
    <glyph glyph-name="cacute" unicode="&#x107;" horiz-adv-x="553" 
d="M355 591h-79l74 145h106zM327 524c82 0 115 -10 173 -31v-89c-72 27 -115 36 -163 36c-106 0 -198 -60 -198 -186c0 -94 71 -182 198 -182c75 0 106 13 171 34v-89c-60 -18 -99 -29 -179 -29c-155 0 -284 97 -284 268s128 268 282 268z" />
    <glyph glyph-name="ccaron" unicode="&#x10d;" horiz-adv-x="553" 
d="M371 591h-110l-101 145h81l75 -86l75 86h81zM327 524c82 0 115 -10 173 -31v-89c-72 27 -115 36 -163 36c-106 0 -198 -60 -198 -186c0 -94 71 -182 198 -182c75 0 106 13 171 34v-89c-60 -18 -99 -29 -179 -29c-155 0 -284 97 -284 268s128 268 282 268z" />
    <glyph glyph-name="ccircumflex" unicode="&#x109;" horiz-adv-x="553" 
d="M316 677l-75 -86h-81l101 145h110l101 -145h-81zM327 524c82 0 115 -10 173 -31v-89c-72 27 -115 36 -163 36c-106 0 -198 -60 -198 -186c0 -94 71 -182 198 -182c75 0 106 13 171 34v-89c-60 -18 -99 -29 -179 -29c-155 0 -284 97 -284 268s128 268 282 268z" />
    <glyph glyph-name="cdotaccent" unicode="&#x10b;" horiz-adv-x="553" 
d="M365 588h-98v96h98v-96zM327 524c82 0 115 -10 173 -31v-89c-72 27 -115 36 -163 36c-106 0 -198 -60 -198 -186c0 -94 71 -182 198 -182c75 0 106 13 171 34v-89c-60 -18 -99 -29 -179 -29c-155 0 -284 97 -284 268s128 268 282 268z" />
    <glyph glyph-name="dcaron" unicode="&#x10f;" horiz-adv-x="743" 
d="M477 691h90v-691h-65l-10 38c-53 -33 -114 -50 -174 -50c-146 0 -273 91 -273 266c0 171 127 270 275 270c51 0 109 -10 157 -40v207zM748 691l-64 -166h-74l44 166h94zM140 254c0 -122 89 -183 188 -183c51 0 103 16 149 47v278c-43 31 -95 46 -146 46
c-99 0 -191 -60 -191 -188z" />
    <glyph glyph-name="dcroat" unicode="&#x111;" horiz-adv-x="642" 
d="M677 642v-77h-110v-565h-65l-10 38c-53 -33 -114 -50 -174 -50c-146 0 -273 91 -273 266c0 171 127 270 275 270c51 0 109 -10 157 -40v81h-142v77h142v49h90v-49h110zM140 254c0 -122 89 -183 188 -183c51 0 103 16 149 47v278c-43 31 -95 46 -146 46
c-99 0 -191 -60 -191 -188z" />
    <glyph glyph-name="ebreve" unicode="&#x115;" horiz-adv-x="584" 
d="M304 593c-89 0 -134 46 -142 119h77c4 -31 24 -53 65 -53s61 22 65 53h77c-8 -73 -53 -119 -142 -119zM537 223h-402c12 -135 123 -151 189 -151c74 0 114 11 203 38v-87c-48 -17 -130 -35 -207 -35c-142 0 -275 76 -275 265c0 195 129 271 265 271
c141 0 227 -93 227 -248v-53zM139 300h306c-3 77 -44 140 -137 140c-82 0 -160 -43 -169 -140z" />
    <glyph glyph-name="ecaron" unicode="&#x11b;" horiz-adv-x="584" 
d="M247 591l-101 145h81l75 -86l75 86h81l-101 -145h-110zM537 223h-402c12 -135 123 -151 189 -151c74 0 114 11 203 38v-87c-48 -17 -130 -35 -207 -35c-142 0 -275 76 -275 265c0 195 129 271 265 271c141 0 227 -93 227 -248v-53zM139 300h306c-3 77 -44 140 -137 140
c-82 0 -160 -43 -169 -140z" />
    <glyph glyph-name="edotaccent" unicode="&#x117;" horiz-adv-x="584" 
d="M351 588h-98v96h98v-96zM537 223h-402c12 -135 123 -151 189 -151c74 0 114 11 203 38v-87c-48 -17 -130 -35 -207 -35c-142 0 -275 76 -275 265c0 195 129 271 265 271c141 0 227 -93 227 -248v-53zM139 300h306c-3 77 -44 140 -137 140c-82 0 -160 -43 -169 -140z" />
    <glyph glyph-name="emacron" unicode="&#x113;" horiz-adv-x="584" 
d="M439 615h-274v77h274v-77zM537 223h-402c12 -135 123 -151 189 -151c74 0 114 11 203 38v-87c-48 -17 -130 -35 -207 -35c-142 0 -275 76 -275 265c0 195 129 271 265 271c141 0 227 -93 227 -248v-53zM139 300h306c-3 77 -44 140 -137 140c-82 0 -160 -43 -169 -140z
" />
    <glyph glyph-name="eogonek" unicode="&#x119;" horiz-adv-x="584" 
d="M537 223h-402c12 -135 123 -151 189 -151c74 0 114 11 203 38v-87c-19 -7 -43 -13 -70 -19c-64 -27 -109 -64 -109 -96c0 -18 9 -25 28 -25c26 0 55 10 81 23l1 -68c-27 -12 -55 -20 -90 -20c-61 0 -94 24 -94 73c0 42 35 77 68 97h-22c-142 0 -275 76 -275 265
c0 195 129 271 265 271c141 0 227 -93 227 -248v-53zM139 300h306c-3 77 -44 140 -137 140c-82 0 -160 -43 -169 -140z" />
    <glyph glyph-name="gbreve" unicode="&#x11f;" horiz-adv-x="642" 
d="M326 593c-89 0 -134 46 -142 119h77c4 -31 24 -53 65 -53s61 22 65 53h77c-8 -73 -53 -119 -142 -119zM567 511v-491c0 -172 -108 -232 -263 -232c-76 0 -143 14 -221 46v89c72 -29 139 -51 218 -51c78 0 176 23 176 127v28c-48 -25 -99 -39 -159 -39
c-146 0 -273 89 -273 264c0 173 127 272 275 272c60 0 128 -19 171 -51l9 38h67zM328 71c51 0 103 15 149 45v278c-43 32 -95 48 -146 48c-99 0 -191 -60 -191 -190c0 -122 89 -181 188 -181z" />
    <glyph glyph-name="gcircumflex" unicode="&#x11d;" horiz-adv-x="642" 
d="M249 591h-81l101 145h110l101 -145h-81l-75 86zM567 511v-491c0 -172 -108 -232 -263 -232c-76 0 -143 14 -221 46v89c72 -29 139 -51 218 -51c78 0 176 23 176 127v28c-48 -25 -99 -39 -159 -39c-146 0 -273 89 -273 264c0 173 127 272 275 272c60 0 128 -19 171 -51
l9 38h67zM328 71c51 0 103 15 149 45v278c-43 32 -95 48 -146 48c-99 0 -191 -60 -191 -190c0 -122 89 -181 188 -181z" />
    <glyph glyph-name="gcommaaccent" unicode="&#x123;" horiz-adv-x="642" 
d="M346 594h-89l64 165h69zM567 511v-491c0 -172 -108 -232 -263 -232c-76 0 -143 14 -221 46v89c72 -29 139 -51 218 -51c78 0 176 23 176 127v28c-48 -25 -99 -39 -159 -39c-146 0 -273 89 -273 264c0 173 127 272 275 272c60 0 128 -19 171 -51l9 38h67zM328 71
c51 0 103 15 149 45v278c-43 32 -95 48 -146 48c-99 0 -191 -60 -191 -190c0 -122 89 -181 188 -181z" />
    <glyph glyph-name="gdotaccent" unicode="&#x121;" horiz-adv-x="642" 
d="M373 588h-98v96h98v-96zM567 511v-491c0 -172 -108 -232 -263 -232c-76 0 -143 14 -221 46v89c72 -29 139 -51 218 -51c78 0 176 23 176 127v28c-48 -25 -99 -39 -159 -39c-146 0 -273 89 -273 264c0 173 127 272 275 272c60 0 128 -19 171 -51l9 38h67zM328 71
c51 0 103 15 149 45v278c-43 32 -95 48 -146 48c-99 0 -191 -60 -191 -190c0 -122 89 -181 188 -181z" />
    <glyph glyph-name="hbar" unicode="&#x127;" horiz-adv-x="645" 
d="M367 524c129 0 203 -44 203 -200v-324h-90v308c0 91 -24 130 -133 130c-69 0 -143 -34 -182 -64v-374h-90v565h-110v77h110v49h90v-49h142v-77h-142v-104c40 26 122 63 202 63z" />
    <glyph glyph-name="hcircumflex" unicode="&#x125;" horiz-adv-x="645" 
d="M158 731h-81l101 145h110l101 -145h-81l-75 86zM367 524c129 0 203 -44 203 -200v-324h-90v308c0 91 -24 130 -133 130c-69 0 -143 -34 -182 -64v-374h-90v691h90v-230c40 26 122 63 202 63z" />
    <glyph glyph-name="ibreve" unicode="&#x12d;" horiz-adv-x="240" 
d="M187 712h77c-8 -73 -53 -119 -142 -119s-134 46 -142 119h77c4 -31 24 -53 65 -53s61 22 65 53zM165 0h-90v513h90v-513z" />
    <glyph glyph-name="ij" unicode="&#x133;" horiz-adv-x="469" 
d="M171 588h-102v92h102v-92zM400 588h-102v92h102v-92zM165 0h-90v513h90v-513zM393 513v-570c0 -126 -80 -155 -174 -155c-17 0 -41 3 -85 13v79c43 -11 74 -12 89 -12c51 0 80 19 80 76v569h90z" />
    <glyph glyph-name="imacron" unicode="&#x12b;" horiz-adv-x="240" 
d="M257 615h-274v77h274v-77zM165 0h-90v513h90v-513z" />
    <glyph glyph-name="iogonek" unicode="&#x12f;" horiz-adv-x="240" 
d="M169 684v-96h-98v96h98zM75 513h90v-513h-13c-60 -27 -101 -62 -101 -92c0 -18 9 -25 28 -25c26 0 55 10 81 23l1 -68c-27 -12 -55 -20 -90 -20c-61 0 -94 24 -94 73c0 56 61 98 98 113v509z" />
    <glyph glyph-name="itilde" unicode="&#x129;" horiz-adv-x="240" 
d="M211 714h60c-8 -56 -38 -97 -94 -97c-37 0 -83 27 -114 27c-22 0 -29 -10 -34 -30h-60c8 56 38 97 94 97c42 0 79 -27 114 -27c24 0 31 10 34 30zM165 0h-90v513h90v-513z" />
    <glyph glyph-name="dotlessj" unicode="&#x237;" horiz-adv-x="228" 
d="M153 513v-570c0 -126 -80 -155 -174 -155c-17 0 -41 3 -85 13v79c43 -11 74 -12 89 -12c51 0 80 19 80 76v569h90z" />
    <glyph glyph-name="jcircumflex" unicode="&#x135;" horiz-adv-x="228" 
d="M108 677l-75 -86h-81l101 145h110l101 -145h-81zM153 513v-570c0 -126 -80 -155 -174 -155c-17 0 -41 3 -85 13v79c43 -11 74 -12 89 -12c51 0 80 19 80 76v569h90z" />
    <glyph glyph-name="kcommaaccent" unicode="&#x137;" horiz-adv-x="564" 
d="M165 0h-90v691h90v-691zM412 513h137c-89 -71 -184 -150 -258 -240c89 -72 250 -243 273 -273h-127c-68 79 -171 188 -259 266c51 66 135 161 234 247zM276 -220h-69l44 165h89z" />
    <glyph glyph-name="kgreenlandic" unicode="&#x138;" horiz-adv-x="564" 
d="M165 0h-90v513h90v-513zM412 513h131c-89 -71 -182 -146 -256 -236c101 -80 250 -242 277 -277h-127c-68 79 -171 188 -259 266c51 66 135 161 234 247z" />
    <glyph glyph-name="lacute" unicode="&#x13a;" horiz-adv-x="240" 
d="M159 731h-79l74 145h106zM165 0h-90v691h90v-691z" />
    <glyph glyph-name="lcaron" unicode="&#x13e;" horiz-adv-x="359" 
d="M165 0h-90v691h90v-691zM300 525h-74l44 166h94z" />
    <glyph glyph-name="lcommaaccent" unicode="&#x13c;" horiz-adv-x="240" 
d="M165 0h-90v691h90v-691zM96 -220h-69l44 165h89z" />
    <glyph glyph-name="ldot" unicode="&#x140;" horiz-adv-x="335" 
d="M165 0h-90v691h90v-691zM335 432h-100v97h100v-97z" />
    <glyph glyph-name="nacute" unicode="&#x144;" horiz-adv-x="645" 
d="M360 591h-79l74 145h106zM367 524c129 0 203 -44 203 -200v-324h-90v308c0 91 -24 130 -133 130c-69 0 -145 -34 -182 -64v-374h-90v513h66l15 -59c36 28 124 70 211 70z" />
    <glyph glyph-name="napostrophe" unicode="&#x149;" horiz-adv-x="675" 
d="M133 691l-64 -166h-69l44 166h89zM397 524c129 0 203 -44 203 -200v-324h-90v308c0 91 -24 130 -133 130c-69 0 -145 -34 -182 -64v-374h-90v513h66l15 -59c36 28 124 70 211 70z" />
    <glyph glyph-name="ncaron" unicode="&#x148;" horiz-adv-x="645" 
d="M266 591l-101 145h81l75 -86l75 86h81l-101 -145h-110zM367 524c129 0 203 -44 203 -200v-324h-90v308c0 91 -24 130 -133 130c-69 0 -145 -34 -182 -64v-374h-90v513h66l15 -59c36 28 124 70 211 70z" />
    <glyph glyph-name="ncommaaccent" unicode="&#x146;" horiz-adv-x="645" 
d="M367 524c129 0 203 -44 203 -200v-324h-90v308c0 91 -24 130 -133 130c-69 0 -145 -34 -182 -64v-374h-90v513h66l15 -59c36 28 124 70 211 70zM287 -55h89l-64 -165h-69z" />
    <glyph glyph-name="eng" unicode="&#x14b;" horiz-adv-x="645" 
d="M367 524c129 0 203 -44 203 -200v-381c0 -126 -80 -155 -174 -155c-17 0 -41 3 -85 13v79c43 -11 74 -12 89 -12c51 0 80 19 80 76v364c0 91 -24 130 -133 130c-69 0 -145 -34 -182 -64v-374h-90v513h66l15 -59c36 28 124 70 211 70z" />
    <glyph glyph-name="obreve" unicode="&#x14f;" horiz-adv-x="640" 
d="M387 712h77c-8 -73 -53 -119 -142 -119s-134 46 -142 119h77c4 -31 24 -53 65 -53s61 22 65 53zM320 524c146 0 275 -92 275 -269c0 -180 -130 -267 -276 -267c-145 0 -274 88 -274 267c0 177 129 269 275 269zM320 440c-103 0 -181 -71 -181 -185
c0 -96 57 -182 182 -182c123 0 180 86 180 182c0 114 -78 185 -181 185z" />
    <glyph glyph-name="ohungarumlaut" unicode="&#x151;" horiz-adv-x="640" 
d="M288 591h-78l74 145h107zM455 591h-78l74 145h107zM320 524c146 0 275 -92 275 -269c0 -180 -130 -267 -276 -267c-145 0 -274 88 -274 267c0 177 129 269 275 269zM320 440c-103 0 -181 -71 -181 -185c0 -96 57 -182 182 -182c123 0 180 86 180 182
c0 114 -78 185 -181 185z" />
    <glyph glyph-name="omacron" unicode="&#x14d;" horiz-adv-x="640" 
d="M457 615h-274v77h274v-77zM320 524c146 0 275 -92 275 -269c0 -180 -130 -267 -276 -267c-145 0 -274 88 -274 267c0 177 129 269 275 269zM320 440c-103 0 -181 -71 -181 -185c0 -96 57 -182 182 -182c123 0 180 86 180 182c0 114 -78 185 -181 185z" />
    <glyph glyph-name="oslashacute" unicode="&#x1ff;" horiz-adv-x="640" 
d="M359 591h-79l74 145h106zM566 489l-39 -47c42 -45 68 -107 68 -187c0 -180 -130 -267 -276 -267c-52 0 -102 11 -145 34l-40 -48l-60 47l39 47c-42 44 -68 106 -68 187c0 177 129 269 275 269c53 0 103 -12 146 -36l40 48zM139 255c0 -43 11 -83 35 -115l234 280
c-25 13 -55 20 -88 20c-103 0 -181 -71 -181 -185zM321 73c123 0 180 86 180 182c0 46 -13 85 -35 115l-234 -279c24 -11 54 -18 89 -18z" />
    <glyph glyph-name="racute" unicode="&#x155;" horiz-adv-x="402" 
d="M269 591h-79l74 145h106zM379 524v-90c-97 -1 -173 -28 -214 -60v-374h-90v513h66l16 -57c72 45 134 67 222 68z" />
    <glyph glyph-name="rcaron" unicode="&#x159;" horiz-adv-x="402" 
d="M175 591l-101 145h81l75 -86l75 86h81l-101 -145h-110zM141 513l16 -57c72 45 134 67 222 68v-90c-97 -1 -173 -28 -214 -60v-374h-90v513h66z" />
    <glyph glyph-name="rcommaaccent" unicode="&#x157;" horiz-adv-x="402" 
d="M379 524v-90c-97 -1 -173 -28 -214 -60v-374h-90v513h66l16 -57c72 45 134 67 222 68zM71 -55h89l-64 -165h-69z" />
    <glyph glyph-name="sacute" unicode="&#x15b;" horiz-adv-x="513" 
d="M296 591h-79l74 145h106zM262 524c76 0 142 -13 190 -27v-87c-54 18 -123 31 -188 31c-57 0 -127 -3 -127 -63c0 -28 25 -47 74 -58l114 -26c82 -19 148 -48 148 -151c0 -122 -100 -155 -239 -155c-61 0 -140 13 -194 28v87c36 -11 120 -32 195 -32c70 0 147 9 147 73
c0 38 -31 53 -71 63l-150 36c-75 18 -116 72 -116 131c0 131 119 150 217 150z" />
    <glyph glyph-name="scedilla" unicode="&#x15f;" horiz-adv-x="513" 
d="M473 143c0 -106 -76 -145 -186 -153l-9 -29c49 -5 76 -32 76 -75c0 -63 -37 -93 -112 -93c-22 0 -49 2 -88 13v67c42 -13 67 -16 89 -16c27 0 41 9 41 30c0 14 -15 25 -45 25c-18 0 -28 -1 -40 -3l26 79c-60 1 -134 14 -185 28v87c36 -11 120 -32 195 -32
c70 0 147 9 147 73c0 38 -31 53 -71 63l-150 36c-75 18 -116 72 -116 131c0 131 119 150 217 150c76 0 142 -13 190 -27v-87c-54 18 -123 31 -188 31c-57 0 -127 -3 -127 -63c0 -28 25 -47 74 -58l114 -26c82 -19 148 -48 148 -151z" />
    <glyph glyph-name="scircumflex" unicode="&#x15d;" horiz-adv-x="513" 
d="M257 677l-75 -86h-81l101 145h110l101 -145h-81zM262 524c76 0 142 -13 190 -27v-87c-54 18 -123 31 -188 31c-57 0 -127 -3 -127 -63c0 -28 25 -47 74 -58l114 -26c82 -19 148 -48 148 -151c0 -122 -100 -155 -239 -155c-61 0 -140 13 -194 28v87
c36 -11 120 -32 195 -32c70 0 147 9 147 73c0 38 -31 53 -71 63l-150 36c-75 18 -116 72 -116 131c0 131 119 150 217 150z" />
    <glyph glyph-name="scommaaccent" unicode="&#x219;" horiz-adv-x="513" 
d="M262 524c76 0 142 -13 190 -27v-87c-54 18 -123 31 -188 31c-57 0 -127 -3 -127 -63c0 -28 25 -47 74 -58l114 -26c82 -19 148 -48 148 -151c0 -122 -100 -155 -239 -155c-61 0 -140 13 -194 28v87c36 -11 120 -32 195 -32c70 0 147 9 147 73c0 38 -31 53 -71 63l-150 36
c-75 18 -116 72 -116 131c0 131 119 150 217 150zM259 -220h-69l44 165h89z" />
    <glyph glyph-name="longs" unicode="&#x17f;" horiz-adv-x="338" 
d="M269 723c17 0 41 -3 85 -13v-79c-43 11 -74 12 -89 12c-51 0 -82 -19 -82 -76v-567h-90v436h-98v77h98v55c0 126 82 155 176 155z" />
    <glyph glyph-name="schwa" unicode="&#x259;" horiz-adv-x="580" 
d="M275 523c157 0 260 -86 260 -261c0 -197 -115 -274 -257 -274c-146 0 -235 92 -235 247v52h398v6c-2 96 -68 146 -171 146c-71 0 -124 -11 -223 -44v90c48 16 145 38 228 38zM277 72c82 0 138 30 160 138h-303c11 -84 57 -138 143 -138z" />
    <glyph glyph-name="tbar" unicode="&#x167;" horiz-adv-x="399" 
d="M265 68c15 0 61 4 104 18v-80c-44 -13 -83 -18 -100 -18c-94 0 -176 29 -176 155v143h-98v77h98v73h-98v77h98l12 131h78v-131h171v-77h-171v-73h171v-77h-171v-142c0 -57 31 -76 82 -76z" />
    <glyph glyph-name="tcaron" unicode="&#x165;" horiz-adv-x="399" 
d="M379 555h-74l44 166h94zM354 513v-77h-171v-292c0 -57 31 -76 82 -76c15 0 61 4 104 18v-80c-44 -13 -83 -18 -100 -18c-94 0 -176 29 -176 155v293h-98v77h98l12 131h78v-131h171z" />
    <glyph glyph-name="tcedilla" unicode="&#x163;" horiz-adv-x="399" 
d="M354 513v-77h-171v-292c0 -57 31 -76 82 -76c15 0 61 4 104 18v-80c-44 -13 -83 -18 -100 -18c-94 0 -176 29 -176 155v293h-98v77h98l12 131h78v-131h171zM236 -220h-69l44 165h89z" />
    <glyph glyph-name="uni021B" unicode="&#x21b;" horiz-adv-x="399" 
d="M354 513v-77h-171v-292c0 -57 31 -76 82 -76c15 0 61 4 104 18v-80c-44 -13 -83 -18 -100 -18c-94 0 -176 29 -176 155v293h-98v77h98l12 131h78v-131h171zM236 -220h-69l44 165h89z" />
    <glyph glyph-name="ubreve" unicode="&#x16d;" horiz-adv-x="639" 
d="M322 593c-89 0 -134 46 -142 119h77c4 -31 24 -53 65 -53s61 22 65 53h77c-8 -73 -53 -119 -142 -119zM564 513v-513h-66l-13 47c-63 -37 -146 -59 -220 -59c-101 0 -190 54 -190 198v327h90v-303c0 -113 53 -138 132 -138c59 0 126 17 177 51v390h90z" />
    <glyph glyph-name="uhungarumlaut" unicode="&#x171;" horiz-adv-x="639" 
d="M288 591h-78l74 145h107zM377 591l74 145h107l-103 -145h-78zM564 513v-513h-66l-13 47c-63 -37 -146 -59 -220 -59c-101 0 -190 54 -190 198v327h90v-303c0 -113 53 -138 132 -138c59 0 126 17 177 51v390h90z" />
    <glyph glyph-name="umacron" unicode="&#x16b;" horiz-adv-x="639" 
d="M457 615h-274v77h274v-77zM564 513v-513h-66l-13 47c-63 -37 -146 -59 -220 -59c-101 0 -190 54 -190 198v327h90v-303c0 -113 53 -138 132 -138c59 0 126 17 177 51v390h90z" />
    <glyph glyph-name="uogonek" unicode="&#x173;" horiz-adv-x="639" 
d="M582 -94l1 -68c-27 -12 -55 -20 -90 -20c-61 0 -94 24 -94 73c0 56 61 98 98 113l-12 43c-63 -37 -146 -59 -220 -59c-101 0 -190 54 -190 198v327h90v-303c0 -113 53 -138 132 -138c59 0 126 17 177 51v390h90v-513c-65 -34 -91 -68 -91 -92c0 -18 9 -25 28 -25
c26 0 55 10 81 23z" />
    <glyph glyph-name="uring" unicode="&#x16f;" horiz-adv-x="639" 
d="M317 580c-65 0 -101 35 -101 86s36 86 101 86s101 -35 101 -86s-36 -86 -101 -86zM317 706c-26 0 -52 -10 -52 -40s26 -40 52 -40s52 10 52 40s-26 40 -52 40zM564 513v-513h-66l-13 47c-63 -37 -146 -59 -220 -59c-101 0 -190 54 -190 198v327h90v-303
c0 -113 53 -138 132 -138c59 0 126 17 177 51v390h90z" />
    <glyph glyph-name="utilde" unicode="&#x169;" horiz-adv-x="639" 
d="M263 644c-22 0 -29 -10 -34 -30h-60c8 56 38 97 94 97c42 0 79 -27 114 -27c24 0 31 10 34 30h60c-8 -56 -38 -97 -94 -97c-37 0 -83 27 -114 27zM564 513v-513h-66l-13 47c-63 -37 -146 -59 -220 -59c-101 0 -190 54 -190 198v327h90v-303c0 -113 53 -138 132 -138
c59 0 126 17 177 51v390h90z" />
    <glyph glyph-name="wacute" unicode="&#x1e83;" horiz-adv-x="858" 
d="M478 591h-79l74 145h106zM770 513h93c-50 -174 -124 -365 -199 -513h-81c-50 105 -123 290 -151 381c-31 -96 -101 -258 -161 -381h-78c-78 159 -152 351 -198 513h98c47 -154 100 -303 142 -399c69 137 145 349 158 399h92c13 -49 73 -240 142 -398
c45 97 98 245 143 398z" />
    <glyph glyph-name="wcircumflex" unicode="&#x175;" horiz-adv-x="858" 
d="M439 677l-75 -86h-81l101 145h110l101 -145h-81zM770 513h93c-50 -174 -124 -365 -199 -513h-81c-50 105 -123 290 -151 381c-31 -96 -101 -258 -161 -381h-78c-78 159 -152 351 -198 513h98c47 -154 100 -303 142 -399c69 137 145 349 158 399h92
c13 -49 73 -240 142 -398c45 97 98 245 143 398z" />
    <glyph glyph-name="wdieresis" unicode="&#x1e85;" horiz-adv-x="858" 
d="M389 588h-98v96h98v-96zM587 588h-98v96h98v-96zM770 513h93c-50 -174 -124 -365 -199 -513h-81c-50 105 -123 290 -151 381c-31 -96 -101 -258 -161 -381h-78c-78 159 -152 351 -198 513h98c47 -154 100 -303 142 -399c69 137 145 349 158 399h92
c13 -49 73 -240 142 -398c45 97 98 245 143 398z" />
    <glyph glyph-name="wgrave" unicode="&#x1e81;" horiz-adv-x="858" 
d="M483 591h-79l-101 145h106zM770 513h93c-50 -174 -124 -365 -199 -513h-81c-50 105 -123 290 -151 381c-31 -96 -101 -258 -161 -381h-78c-78 159 -152 351 -198 513h98c47 -154 100 -303 142 -399c69 137 145 349 158 399h92c13 -49 73 -240 142 -398
c45 97 98 245 143 398z" />
    <glyph glyph-name="ycircumflex" unicode="&#x177;" horiz-adv-x="541" 
d="M182 591h-81l101 145h110l101 -145h-81l-75 86zM446 513h105c-76 -208 -195 -458 -343 -713h-104c42 75 82 143 120 213c-94 170 -170 331 -234 500h100c49 -134 112 -271 185 -404c57 112 112 237 171 404z" />
    <glyph glyph-name="ygrave" unicode="&#x1ef3;" horiz-adv-x="541" 
d="M222 591l-101 145h106l74 -145h-79zM446 513h105c-76 -208 -195 -458 -343 -713h-104c42 75 82 143 120 213c-94 170 -170 331 -234 500h100c49 -134 112 -271 185 -404c57 112 112 237 171 404z" />
    <glyph glyph-name="zacute" unicode="&#x17a;" horiz-adv-x="533" 
d="M296 591h-79l74 145h106zM488 433l-333 -356h338v-77h-453v80l335 356h-321v77h434v-80z" />
    <glyph glyph-name="zdotaccent" unicode="&#x17c;" horiz-adv-x="533" 
d="M306 588h-98v96h98v-96zM488 433l-333 -356h338v-77h-453v80l335 356h-321v77h434v-80z" />
    <glyph glyph-name="nsuperior" unicode="&#x207f;" horiz-adv-x="645" 
d="M367 524c129 0 203 -44 203 -200v-324h-90v308c0 91 -24 130 -133 130c-69 0 -145 -34 -182 -64v-374h-90v513h66l15 -59c36 28 124 70 211 70z" />
    <glyph glyph-name="Alpha" unicode="&#x391;" horiz-adv-x="663" 
d="M668 0h-98c-16 48 -36 106 -60 168h-354c-26 -66 -47 -125 -60 -168h-101c98 297 238 580 281 650h111c27 -43 166 -303 281 -650zM190 252h287c-46 115 -99 233 -144 313c-41 -77 -96 -198 -143 -313z" />
    <glyph glyph-name="Beta" unicode="&#x392;" horiz-adv-x="674" 
d="M80 650h281c117 0 231 -38 231 -160c0 -76 -40 -125 -99 -150v-1c61 -20 121 -67 121 -164c0 -138 -122 -175 -277 -175h-257v650zM174 374h166c96 0 154 30 154 100c0 83 -85 90 -154 90h-166v-190zM174 86h158c102 0 184 15 184 100c0 75 -69 105 -180 105h-162v-205z
" />
    <glyph glyph-name="Gamma" unicode="&#x393;" horiz-adv-x="563" 
d="M174 0h-94v650h438v-86h-344v-564z" />
    <glyph glyph-name="Epsilon" unicode="&#x395;" horiz-adv-x="599" 
d="M174 564v-187h336v-85h-336v-206h365v-86h-459v650h459v-86h-365z" />
    <glyph glyph-name="Zeta" unicode="&#x396;" horiz-adv-x="599" 
d="M166 86h391v-86h-517v83l394 481h-394v86h519v-83z" />
    <glyph glyph-name="Eta" unicode="&#x397;" horiz-adv-x="719" 
d="M545 0v281h-371v-281h-94v650h94v-283h371v283h94v-650h-94z" />
    <glyph glyph-name="Theta" unicode="&#x398;" horiz-adv-x="792" 
d="M400 662c219 0 342 -135 342 -336c0 -207 -138 -338 -341 -338c-216 0 -351 134 -351 338c0 205 135 336 350 336zM400 574c-147 0 -251 -81 -251 -248c0 -157 103 -248 252 -248c141 0 244 91 244 248c0 164 -101 248 -245 248zM238 366h316v-80h-316v80z" />
    <glyph glyph-name="Iota" unicode="&#x399;" horiz-adv-x="254" 
d="M80 0v650h94v-650h-94z" />
    <glyph glyph-name="Kappa" unicode="&#x39a;" horiz-adv-x="659" 
d="M80 0v650h94v-650h-94zM510 650h144c-144 -119 -258 -224 -346 -324c113 -98 234 -209 346 -326h-132c-104 108 -218 213 -340 318c94 111 200 221 328 332z" />
    <glyph glyph-name="Lambda" unicode="&#x39b;" horiz-adv-x="663" 
d="M333 565c-67 -126 -189 -407 -237 -565h-101c98 297 238 580 281 650h111c27 -43 166 -303 281 -650h-98c-63 191 -142 388 -237 565z" />
    <glyph glyph-name="Mu" unicode="&#x39c;" horiz-adv-x="864" 
d="M612 650h95c31 -113 77 -251 127 -650h-95c-41 304 -76 455 -93 523c-62 -149 -125 -305 -181 -454h-66s-153 408 -179 449c-17 -69 -53 -220 -94 -518h-96c54 395 99 534 131 650h95c54 -120 113 -261 176 -425c84 208 134 322 180 425z" />
    <glyph glyph-name="Nu" unicode="&#x39d;" horiz-adv-x="726" 
d="M567 0l-394 524v-524h-93v650h108l365 -486v486h93v-650h-79z" />
    <glyph glyph-name="Xi" unicode="&#x39e;" horiz-adv-x="661" 
d="M62 650h537v-96h-537v96zM93 381h475v-94h-475v94zM60 96h541v-96h-541v96z" />
    <glyph glyph-name="Omicron" unicode="&#x39f;" horiz-adv-x="792" 
d="M400 662c219 0 342 -135 342 -336c0 -207 -138 -338 -341 -338c-216 0 -351 134 -351 338c0 205 135 336 350 336zM400 574c-147 0 -251 -81 -251 -248c0 -157 103 -248 252 -248c141 0 244 91 244 248c0 164 -101 248 -245 248z" />
    <glyph glyph-name="Pi" unicode="&#x3a0;" horiz-adv-x="709" 
d="M535 0v564h-361v-564h-94v650h549v-650h-94z" />
    <glyph glyph-name="Rho" unicode="&#x3a1;" horiz-adv-x="633" 
d="M80 650h270c79 0 243 -33 243 -219c0 -185 -164 -219 -243 -219h-176v-212h-94v650zM174 298h164c77 0 155 30 155 132s-77 134 -155 134h-164v-266z" />
    <glyph glyph-name="Sigma" unicode="&#x3a3;" horiz-adv-x="613" 
d="M392 328l-228 -242h409v-86h-533v71l235 252l-229 243v84h521v-86h-388l213 -226v-10z" />
    <glyph glyph-name="Tau" unicode="&#x3a4;" horiz-adv-x="626" 
d="M360 564v-564h-94v564h-246v86h586v-86h-246z" />
    <glyph glyph-name="Upsilon" unicode="&#x3a5;" horiz-adv-x="606" 
d="M498 650h113c-93 -178 -219 -374 -261 -430v-220h-94v220c-43 57 -166 250 -261 430h110c76 -152 136 -248 198 -344c59 90 116 184 195 344z" />
    <glyph glyph-name="Phi" unicode="&#x3a6;" horiz-adv-x="849" 
d="M378 -51v51c-234 6 -338 138 -338 324c0 210 132 318 338 324v51h93v-51c232 -7 338 -134 338 -324c0 -195 -114 -319 -338 -324v-51h-93zM378 88v473c-149 0 -241 -75 -241 -237c0 -156 86 -236 241 -236zM471 561v-473c160 0 241 85 241 236c0 162 -91 237 -241 237z
" />
    <glyph glyph-name="Chi" unicode="&#x3a7;" horiz-adv-x="632" 
d="M637 0h-118l-205 265l-196 -265h-123l259 328l-257 322h121l195 -254l202 254h116l-251 -321z" />
    <glyph glyph-name="Psi" unicode="&#x3a8;" horiz-adv-x="852" 
d="M379 0v131c-253 0 -304 108 -304 255v264h94v-255c0 -142 63 -176 210 -176v431h94v-431c135 0 210 24 210 176v255h94v-267c0 -180 -89 -252 -304 -252v-131h-94z" />
    <glyph glyph-name="Alphatonos" unicode="&#x386;" horiz-adv-x="663" 
d="M668 0h-98c-16 48 -36 106 -60 168h-354c-26 -66 -47 -125 -60 -168h-101c98 297 238 580 281 650h111c27 -43 166 -303 281 -650zM157 650l-88 -150h-64l44 150h108zM190 252h287c-46 115 -99 233 -144 313c-41 -77 -96 -198 -143 -313z" />
    <glyph glyph-name="Epsilontonos" unicode="&#x388;" horiz-adv-x="599" 
d="M-153 500l44 150h108l-88 -150h-64zM539 650v-86h-365v-187h336v-85h-336v-206h365v-86h-459v650h459z" />
    <glyph glyph-name="Etatonos" unicode="&#x389;" horiz-adv-x="719" 
d="M-153 500l44 150h108l-88 -150h-64zM639 650v-650h-94v281h-371v-281h-94v650h94v-283h371v283h94z" />
    <glyph glyph-name="Iotatonos" unicode="&#x38a;" horiz-adv-x="254" 
d="M-153 500l44 150h108l-88 -150h-64zM174 650v-650h-94v650h94z" />
    <glyph glyph-name="Omicrontonos" unicode="&#x38c;" horiz-adv-x="792" 
d="M400 662c219 0 342 -135 342 -336c0 -207 -138 -338 -341 -338c-216 0 -351 134 -351 338c0 205 135 336 350 336zM-79 500l44 150h108l-88 -150h-64zM400 574c-147 0 -251 -81 -251 -248c0 -157 103 -248 252 -248c141 0 244 91 244 248c0 164 -101 248 -245 248z" />
    <glyph glyph-name="Upsilontonos" unicode="&#x38e;" horiz-adv-x="606" 
d="M-192 500l44 150h108l-88 -150h-64zM498 650h113c-93 -178 -219 -374 -261 -430v-220h-94v220c-43 57 -166 250 -261 430h110c76 -152 136 -248 198 -344c59 90 116 184 195 344z" />
    <glyph glyph-name="Omegatonos" unicode="&#x38f;" horiz-adv-x="771" 
d="M729 332c0 -115 -55 -203 -124 -249h131v-83h-266v87c59 30 159 92 159 244c0 157 -95 240 -243 240c-142 0 -244 -77 -244 -240c0 -144 91 -209 159 -244v-87h-266v83h132c-60 39 -125 125 -125 248c0 202 129 331 344 331c220 0 343 -135 343 -330zM-53 500l44 150h108
l-88 -150h-64z" />
    <glyph glyph-name="Iotadieresis" unicode="&#x3aa;" horiz-adv-x="254" 
d="M78 707h-100v98h100v-98zM276 707h-100v98h100v-98zM174 0h-94v650h94v-650z" />
    <glyph glyph-name="Upsilondieresis" unicode="&#x3ab;" horiz-adv-x="606" 
d="M251 707h-100v98h100v-98zM449 707h-100v98h100v-98zM498 650h113c-93 -178 -219 -374 -261 -430v-220h-94v220c-43 57 -166 250 -261 430h110c76 -152 136 -248 198 -344c59 90 116 184 195 344z" />
    <glyph glyph-name="alpha" unicode="&#x3b1;" horiz-adv-x="642" 
d="M567 0h-65l-10 38c-48 -31 -114 -50 -174 -50c-146 0 -273 91 -273 266c0 171 127 270 275 270c68 0 128 -18 171 -49l9 38h67v-513zM328 71c55 0 103 17 149 47v278c-43 31 -95 46 -146 46c-99 0 -191 -60 -191 -188c0 -122 89 -183 188 -183z" />
    <glyph glyph-name="beta" unicode="&#x3b2;" horiz-adv-x="647" 
d="M75 -200v694c0 143 77 229 242 229c159 0 230 -67 230 -187c0 -53 -26 -121 -82 -149c90 -21 137 -82 137 -176c0 -85 -34 -223 -256 -223c-81 0 -145 21 -181 42v-230h-90zM320 643c-90 0 -155 -46 -155 -149v-376c43 -30 105 -46 177 -46c123 0 165 60 165 144
c0 102 -73 117 -158 117h-101v83h74c98 0 137 39 137 116c0 62 -34 111 -139 111z" />
    <glyph glyph-name="gamma" unicode="&#x3b3;" horiz-adv-x="595" 
d="M240 -200v145c0 61 -164 449 -215 568h101c35 -84 119 -300 166 -441h2c81 104 147 279 152 441h99c-5 -211 -108 -398 -215 -538v-175h-90z" />
    <glyph glyph-name="delta" unicode="&#x3b4;" horiz-adv-x="630" 
d="M311 -12c-164 0 -271 93 -271 245c0 121 66 215 197 247c-58 30 -85 64 -85 118c0 74 66 125 202 125c77 0 127 -13 171 -30v-79c-44 16 -103 29 -160 29c-70 0 -117 -13 -117 -53c0 -33 32 -49 94 -76c116 -51 243 -118 243 -273c0 -154 -109 -253 -274 -253zM315 73
c123 0 176 80 176 164c0 104 -78 159 -170 195c-104 -15 -187 -75 -187 -194c0 -93 64 -165 181 -165z" />
    <glyph glyph-name="epsilon" unicode="&#x3b5;" horiz-adv-x="565" 
d="M500 106v-89c-46 -16 -113 -29 -191 -29c-140 0 -254 34 -254 157c0 60 34 109 104 120c-63 21 -88 58 -88 112c0 73 64 147 238 147c85 0 135 -7 191 -28v-89c-46 17 -104 33 -192 33c-90 0 -143 -22 -143 -74c0 -45 42 -64 117 -64h115v-82h-125
c-101 0 -123 -32 -123 -70c0 -57 64 -78 161 -78c81 0 145 14 190 34z" />
    <glyph glyph-name="zeta" unicode="&#x3b6;" horiz-adv-x="531" 
d="M466 -200h-95c29 52 41 102 41 127c0 45 -14 55 -87 65c-148 20 -280 78 -280 267c0 173 131 290 275 345h-223v87h409v-79c-218 -61 -367 -166 -367 -344c0 -111 76 -169 207 -183c108 -12 160 -41 160 -139c0 -49 -13 -96 -40 -146z" />
    <glyph glyph-name="eta" unicode="&#x3b7;" horiz-adv-x="640" 
d="M362 524c129 0 203 -44 203 -200v-524h-90v508c0 91 -24 130 -133 130c-69 0 -140 -34 -177 -64v-374h-90v513h66l15 -59c36 28 119 70 206 70z" />
    <glyph glyph-name="theta" unicode="&#x3b8;" horiz-adv-x="640" 
d="M319 -12c-205 0 -274 160 -274 374c0 186 62 361 274 361c174 0 276 -118 276 -362c0 -224 -75 -373 -276 -373zM139 408h362c-3 179 -88 231 -182 231c-84 0 -177 -44 -180 -231zM319 73c128 0 182 80 182 252h-362c0 -161 45 -252 180 -252z" />
    <glyph glyph-name="iota" unicode="&#x3b9;" horiz-adv-x="381" 
d="M160 513v-369c0 -57 31 -76 82 -76c15 0 61 4 104 18v-80c-44 -13 -83 -18 -100 -18c-94 0 -176 29 -176 155v370h90z" />
    <glyph glyph-name="kappa" unicode="&#x3ba;" horiz-adv-x="564" 
d="M75 0v513h90v-513h-90zM412 513h131c-89 -71 -182 -146 -256 -236c101 -80 250 -242 277 -277h-127c-68 79 -171 188 -259 266c51 66 135 161 234 247z" />
    <glyph glyph-name="lambda" unicode="&#x3bb;" horiz-adv-x="557" 
d="M107 639c-18 0 -52 -5 -70 -12v83c22 8 59 13 84 13c92 0 131 -29 217 -202c89 -179 170 -414 204 -521h-98c-53 158 -92 276 -159 412c-52 -73 -127 -244 -166 -412h-99c20 112 113 366 221 501c-52 102 -72 138 -134 138z" />
    <glyph glyph-name="nu" unicode="&#x3bd;" horiz-adv-x="519" 
d="M429 513h100c-66 -171 -138 -342 -235 -513h-72c-96 171 -167 342 -232 513h103c49 -134 95 -263 169 -397c74 135 118 260 167 397z" />
    <glyph glyph-name="xi" unicode="&#x3be;" horiz-adv-x="565" 
d="M332 -8c-217 24 -287 81 -287 202c0 105 73 170 157 186c-76 20 -126 67 -126 153c0 126 90 190 257 190c74 0 137 -13 182 -32v-86c-42 17 -103 34 -175 34c-100 0 -172 -23 -172 -112c0 -88 92 -105 203 -105h97v-87h-125c-125 0 -204 -28 -204 -121
c0 -85 64 -112 214 -129c108 -12 160 -41 160 -139c0 -49 -13 -96 -40 -146h-95c29 52 41 102 41 127c0 45 -14 57 -87 65z" />
    <glyph glyph-name="omicron" unicode="&#x3bf;" horiz-adv-x="640" 
d="M320 524c146 0 275 -92 275 -269c0 -180 -130 -267 -276 -267c-145 0 -274 88 -274 267c0 177 129 269 275 269zM320 440c-103 0 -181 -71 -181 -185c0 -96 57 -182 182 -182c123 0 180 86 180 182c0 114 -78 185 -181 185z" />
    <glyph glyph-name="pi" unicode="&#x3c0;" horiz-adv-x="733" 
d="M153 0v426h-123v87h658v-87h-135v-276c0 -45 1 -82 61 -82c20 0 38 3 57 11v-80c-23 -7 -45 -11 -73 -11c-93 0 -135 41 -135 148v290h-220v-426h-90z" />
    <glyph glyph-name="rho" unicode="&#x3c1;" horiz-adv-x="627" 
d="M324 524c145 0 258 -94 258 -262c0 -182 -134 -274 -270 -274c-66 0 -120 18 -162 42v-230h-90v471c0 163 98 253 264 253zM300 72c124 0 187 84 187 187c0 101 -61 183 -180 183c-139 0 -157 -104 -157 -165v-159c34 -24 88 -46 150 -46z" />
    <glyph glyph-name="sigmafinal" unicode="&#x3c2;" horiz-adv-x="553" 
d="M325 -8c-149 13 -280 78 -280 267c0 171 121 265 272 265c87 0 126 -12 184 -35l-1 -88c-74 28 -125 39 -173 39c-106 0 -188 -59 -188 -181c0 -100 76 -160 207 -174c108 -12 160 -41 160 -139c0 -49 -13 -96 -40 -146h-95c29 52 41 102 41 127c0 45 -14 55 -87 65z" />
    <glyph glyph-name="sigma" unicode="&#x3c3;" horiz-adv-x="664" 
d="M321 -12c-167 0 -276 99 -276 263c0 159 111 262 274 262h310v-87h-123c49 -39 79 -102 79 -174c0 -209 -167 -264 -264 -264zM320 73c89 0 171 54 171 180c0 85 -49 140 -104 173h-71c-128 0 -177 -88 -177 -176c0 -115 74 -177 181 -177z" />
    <glyph glyph-name="tau" unicode="&#x3c4;" horiz-adv-x="582" 
d="M542 513v-87h-225v-282c0 -57 21 -76 82 -76c18 0 45 2 88 16v-80c-44 -13 -77 -16 -103 -16c-85 0 -157 29 -157 155v283h-192v87h507z" />
    <glyph glyph-name="upsilon" unicode="&#x3c5;" horiz-adv-x="626" 
d="M309 -12c-194 0 -234 91 -234 207v318h90v-300c0 -96 33 -141 148 -141c135 0 164 107 164 207c0 88 -26 175 -62 234h103c35 -62 53 -132 53 -225c0 -191 -92 -300 -262 -300z" />
    <glyph glyph-name="phi" unicode="&#x3c6;" horiz-adv-x="800" 
d="M355 -200v182c-165 0 -310 70 -310 276c0 158 91 272 310 274v130h90v-130c191 0 310 -92 310 -274c0 -189 -122 -275 -310 -276v-182h-90zM355 64v386c-141 0 -216 -55 -216 -193s75 -193 216 -193zM445 450v-386c149 0 216 65 216 193c0 132 -72 193 -216 193z" />
    <glyph glyph-name="chi" unicode="&#x3c7;" horiz-adv-x="549" 
d="M274 227l163 286h94l-208 -355l211 -358h-101l-162 287l-165 -287h-94l210 356l-212 357h100z" />
    <glyph glyph-name="psi" unicode="&#x3c8;" horiz-adv-x="779" 
d="M345 -200v188c-232 0 -270 108 -270 235v290h90v-289c0 -123 45 -149 180 -152v590h90v-590h22c126 0 173 83 173 213c0 59 -18 158 -62 228h103c39 -69 53 -139 53 -224c0 -187 -90 -301 -271 -301h-19v-188h-89z" />
    <glyph glyph-name="omega" unicode="&#x3c9;" horiz-adv-x="800" 
d="M400 86c-29 -64 -85 -98 -164 -98c-116 0 -186 81 -186 233c0 94 27 200 94 292h100c-50 -66 -100 -179 -100 -296c0 -113 46 -144 103 -144c62 0 108 44 108 119v200h90v-200c0 -75 46 -119 108 -119c63 0 103 39 103 144c0 117 -50 230 -100 296h100
c67 -92 94 -198 94 -292c0 -146 -66 -233 -186 -233c-79 0 -134 34 -164 98z" />
    <glyph glyph-name="iotatonos" unicode="&#x3af;" horiz-adv-x="381" 
d="M84 591l44 150h108l-88 -150h-64zM160 513v-369c0 -57 31 -76 82 -76c15 0 61 4 104 18v-80c-44 -13 -83 -18 -100 -18c-94 0 -176 29 -176 155v370h90z" />
    <glyph glyph-name="iotadieresis" unicode="&#x3ca;" horiz-adv-x="381" 
d="M64 684v-96h-98v96h98zM262 684v-96h-98v96h98zM160 513v-369c0 -57 31 -76 82 -76c15 0 61 4 104 18v-80c-44 -13 -83 -18 -100 -18c-94 0 -176 29 -176 155v370h90z" />
    <glyph glyph-name="iotadieresistonos" unicode="&#x390;" horiz-adv-x="381" 
d="M85 591l19 150h108l-63 -150h-64zM-65 591v96h98v-96h-98zM241 591v96h98v-96h-98zM160 513v-369c0 -57 31 -76 82 -76c15 0 61 4 104 18v-80c-44 -13 -83 -18 -100 -18c-94 0 -176 29 -176 155v370h90z" />
    <glyph glyph-name="upsilontonos" unicode="&#x3cd;" horiz-adv-x="626" 
d="M272 591l44 150h108l-88 -150h-64zM309 -12c-194 0 -234 91 -234 207v318h90v-300c0 -96 33 -141 148 -141c135 0 164 107 164 207c0 88 -26 175 -62 234h103c35 -62 53 -132 53 -225c0 -191 -92 -300 -262 -300z" />
    <glyph glyph-name="upsilondieresis" unicode="&#x3cb;" horiz-adv-x="626" 
d="M250 684v-96h-98v96h98zM448 684v-96h-98v96h98zM309 -12c-194 0 -234 91 -234 207v318h90v-300c0 -96 33 -141 148 -141c135 0 164 107 164 207c0 88 -26 175 -62 234h103c35 -62 53 -132 53 -225c0 -191 -92 -300 -262 -300z" />
    <glyph glyph-name="upsilondieresistonos" unicode="&#x3b0;" horiz-adv-x="626" 
d="M255 591l19 150h108l-63 -150h-64zM105 591v96h98v-96h-98zM411 591v96h98v-96h-98zM309 -12c-194 0 -234 91 -234 207v318h90v-300c0 -96 33 -141 148 -141c135 0 164 107 164 207c0 88 -26 175 -62 234h103c35 -62 53 -132 53 -225c0 -191 -92 -300 -262 -300z" />
    <glyph glyph-name="omicrontonos" unicode="&#x3cc;" horiz-adv-x="640" 
d="M288 591l44 150h108l-88 -150h-64zM320 524c146 0 275 -92 275 -269c0 -180 -130 -267 -276 -267c-145 0 -274 88 -274 267c0 177 129 269 275 269zM320 440c-103 0 -181 -71 -181 -185c0 -96 57 -182 182 -182c123 0 180 86 180 182c0 114 -78 185 -181 185z" />
    <glyph glyph-name="omegatonos" unicode="&#x3ce;" horiz-adv-x="800" 
d="M364 591l44 150h108l-88 -150h-64zM400 86c-29 -64 -85 -98 -164 -98c-116 0 -186 81 -186 233c0 94 27 200 94 292h100c-50 -66 -100 -179 -100 -296c0 -113 46 -144 103 -144c62 0 108 44 108 119v200h90v-200c0 -75 46 -119 108 -119c63 0 103 39 103 144
c0 117 -50 230 -100 296h100c67 -92 94 -198 94 -292c0 -146 -66 -233 -186 -233c-79 0 -134 34 -164 98z" />
    <glyph glyph-name="alphatonos" unicode="&#x3ac;" horiz-adv-x="642" 
d="M288 591l44 150h108l-88 -150h-64zM567 0h-65l-10 38c-48 -31 -114 -50 -174 -50c-146 0 -273 91 -273 266c0 171 127 270 275 270c68 0 128 -18 171 -49l9 38h67v-513zM328 71c55 0 103 17 149 47v278c-43 31 -95 46 -146 46c-99 0 -191 -60 -191 -188
c0 -122 89 -183 188 -183z" />
    <glyph glyph-name="epsilontonos" unicode="&#x3ad;" horiz-adv-x="565" 
d="M280 591l44 150h108l-88 -150h-64zM500 106v-89c-46 -16 -113 -29 -191 -29c-140 0 -254 34 -254 157c0 60 34 109 104 120c-63 21 -88 58 -88 112c0 73 64 147 238 147c85 0 135 -7 191 -28v-89c-46 17 -104 33 -192 33c-90 0 -143 -22 -143 -74c0 -45 42 -64 117 -64
h115v-82h-125c-101 0 -123 -32 -123 -70c0 -57 64 -78 161 -78c81 0 145 14 190 34z" />
    <glyph glyph-name="etatonos" unicode="&#x3ae;" horiz-adv-x="640" 
d="M278 591l44 150h108l-88 -150h-64zM362 524c129 0 203 -44 203 -200v-524h-90v508c0 91 -24 130 -133 130c-69 0 -140 -34 -177 -64v-374h-90v513h66l15 -59c36 28 119 70 206 70z" />
    <glyph glyph-name="Sevenroman" unicode="&#x2166;" horiz-adv-x="1171" 
d="M570 650h98c-115 -347 -254 -607 -281 -650h-111c-43 70 -183 353 -281 650h101c19 -63 142 -390 237 -565c100 177 172 382 237 565zM837 0h-94v650h94v-650zM1091 0h-94v650h94v-650z" />
    <glyph glyph-name="anoteleia" unicode="&#x387;" horiz-adv-x="190" 
d="M45 416v97h100v-97h-100z" />
    <glyph glyph-name="uni037E" unicode="&#x37e;" horiz-adv-x="226" 
d="M89 364v97h100v-97h-100zM30 -129l62 226h104l-82 -226h-84z" />
    <glyph glyph-name="Ohm" unicode="&#x2126;" horiz-adv-x="766" 
d="M716 329c0 -111 -37 -192 -94 -243h91v-86h-268v76c86 0 174 101 174 252c0 152 -89 246 -236 246s-236 -94 -236 -246c0 -151 88 -252 174 -252v-76h-268v86h91c-57 51 -94 132 -94 243c0 201 125 333 333 333s333 -132 333 -333z" />
    <glyph glyph-name="increment" unicode="&#x2206;" horiz-adv-x="638" 
d="M269 650h102c25 -40 141 -272 250 -588v-62h-605v62c111 325 227 548 253 588zM120 86h398c-54 150 -134 366 -200 475c-53 -86 -147 -326 -198 -475z" />
    <glyph glyph-name="uni00B5" unicode="&#xb5;" horiz-adv-x="629" 
d="M554 0h-66l-13 47c-63 -37 -136 -59 -210 -59c-38 0 -71 8 -100 22v-210h-90v713h90v-303c0 -113 53 -138 132 -138c59 0 116 17 167 51v390h90v-513z" />
    <glyph glyph-name="uni0374" unicode="&#x374;" horiz-adv-x="203" 
d="M30 531l35 205h108l-79 -205h-64z" />
    <glyph glyph-name="uni0375" unicode="&#x375;" horiz-adv-x="203" 
d="M173 58l-35 -205h-108l79 205h64z" />
    <glyph glyph-name="tonos" unicode="&#x384;" horiz-adv-x="213" 
d="M30 591l44 150h108l-88 -150h-64z" />
    <glyph glyph-name="dieresistonos" unicode="&#x385;" horiz-adv-x="464" 
d="M180 591l19 150h108l-63 -150h-64zM30 591v96h98v-96h-98zM336 591v96h98v-96h-98z" />
    <glyph glyph-name="tonos.cap" horiz-adv-x="213" 
d="M30 500l44 150h108l-88 -150h-64z" />
    </font>
</defs>
</svg>
